<?xml version="1.0" encoding="UTF-8" standalone="no"?>
<!-- Generator: Adobe Illustrator 20.0.0, SVG Export Plug-In . SVG Version: 6.00 Build 0)  -->

<svg
   xmlns:dc="http://purl.org/dc/elements/1.1/"
   xmlns:cc="http://creativecommons.org/ns#"
   xmlns:rdf="http://www.w3.org/1999/02/22-rdf-syntax-ns#"
   xmlns:svg="http://www.w3.org/2000/svg"
   xmlns="http://www.w3.org/2000/svg"
   xmlns:sodipodi="http://sodipodi.sourceforge.net/DTD/sodipodi-0.dtd"
   xmlns:inkscape="http://www.inkscape.org/namespaces/inkscape"
   version="1.1"
   id="Livello_3"
   x="0px"
   y="0px"
   width="41.9px"
   height="48.1px"
   viewBox="0 0 41.9 48.1"
   style="enable-background:new 0 0 41.9 48.1;"
   xml:space="preserve"
   inkscape:version="0.91 r13725"
   sodipodi:docname="BugReport.svg"><metadata
     id="metadata13"><rdf:RDF><cc:Work
         rdf:about=""><dc:format>image/svg+xml</dc:format><dc:type
           rdf:resource="http://purl.org/dc/dcmitype/StillImage" /></cc:Work></rdf:RDF></metadata><defs
     id="defs11" /><sodipodi:namedview
     pagecolor="#ffffff"
     bordercolor="#666666"
     borderopacity="1"
     objecttolerance="10"
     gridtolerance="10"
     guidetolerance="10"
     inkscape:pageopacity="0"
     inkscape:pageshadow="2"
     inkscape:window-width="718"
     inkscape:window-height="480"
     id="namedview9"
     showgrid="false"
     inkscape:zoom="4.9064451"
     inkscape:cx="20.950001"
     inkscape:cy="24.049999"
     inkscape:window-x="399"
     inkscape:window-y="102"
     inkscape:window-maximized="0"
     inkscape:current-layer="Livello_3" /><g
     id="g3"
     style="fill:#f63336;fill-opacity:1"
     transform="translate(0.05000076,-7.6293945e-7)"><path
       d="m 12.7,11.5 16.3,0 C 28.2,9.8 26.9,8.3 25.3,7.3 l -0.9,-0.5 0,-1 0,-2.2 c 0,-1.9 -1.6,-3.5 -3.5,-3.5 -1.9,0 -3.5,1.6 -3.5,3.5 l 0,2.1 0,1 -0.9,0.5 c -1.8,1 -3.1,2.4 -3.8,4.3 z"
       id="path5"
       style="fill:#f63336;fill-opacity:1"
       inkscape:connector-curvature="0" /><path
       d="m 26,2.8 0.1,1.7 0,1.2 c 2.7,1.6 4.7,4.3 5.2,7.5 l -20.9,0 C 10.9,10 12.9,7.3 15.6,5.7 L 15.6,4.5 15.7,2.8 0,2.8 0,48 41.8,48 41.8,2.8 26,2.8 Z m -1.7,33 -13.9,0 0,-1.7 13.9,0 0,1.7 z m 7,-6.9 -20.9,0 0,-1.7 20.9,0 0,1.7 z m 0,-7 -20.9,0 0,-1.7 20.9,0 0,1.7 z"
       id="path7"
       style="fill:#f63336;fill-opacity:1"
       inkscape:connector-curvature="0" /></g></svg>