<?xml version="1.0" encoding="UTF-8" standalone="no"?>
<!-- Generator: Adobe Illustrator 20.0.0, SVG Export Plug-In . SVG Version: 6.00 Build 0)  -->

<svg
   xmlns:dc="http://purl.org/dc/elements/1.1/"
   xmlns:cc="http://creativecommons.org/ns#"
   xmlns:rdf="http://www.w3.org/1999/02/22-rdf-syntax-ns#"
   xmlns:svg="http://www.w3.org/2000/svg"
   xmlns="http://www.w3.org/2000/svg"
   xmlns:sodipodi="http://sodipodi.sourceforge.net/DTD/sodipodi-0.dtd"
   xmlns:inkscape="http://www.inkscape.org/namespaces/inkscape"
   version="1.1"
   id="Livello_3"
   x="0px"
   y="0px"
   width="48.6px"
   height="48.1px"
   viewBox="0 0 48.6 48.1"
   style="enable-background:new 0 0 48.6 48.1;"
   xml:space="preserve"
   inkscape:version="0.91 r13725"
   sodipodi:docname="Dedicated support.svg"><metadata
     id="metadata25"><rdf:RDF><cc:Work
         rdf:about=""><dc:format>image/svg+xml</dc:format><dc:type
           rdf:resource="http://purl.org/dc/dcmitype/StillImage" /></cc:Work></rdf:RDF></metadata><defs
     id="defs23" /><sodipodi:namedview
     pagecolor="#ffffff"
     bordercolor="#666666"
     borderopacity="1"
     objecttolerance="10"
     gridtolerance="10"
     guidetolerance="10"
     inkscape:pageopacity="0"
     inkscape:pageshadow="2"
     inkscape:window-width="716"
     inkscape:window-height="480"
     id="namedview21"
     showgrid="false"
     inkscape:zoom="4.9064451"
     inkscape:cx="24.299999"
     inkscape:cy="24.049999"
     inkscape:window-x="0"
     inkscape:window-y="0"
     inkscape:window-maximized="0"
     inkscape:current-layer="Livello_3" /><g
     id="g3"
     style="fill:#f63336;fill-opacity:1"
     transform="translate(0.19999924,0.04999924)"><path
       d="m 20.3,13.7 c 1.2,-0.4 2.5,-0.7 3.8,-0.7 1.4,0 2.7,0.3 3.9,0.7 l 7.2,-11 C 31.9,1 28.1,0 24.1,0 c -4,0 -7.7,1 -11,2.7 l 7.2,11 z"
       id="path5"
       style="fill:#f63336;fill-opacity:1"
       inkscape:connector-curvature="0" /><path
       d="m 29.9,14.7 c 1.5,0.9 2.8,2.2 3.7,3.7 L 44.5,11.3 C 42.6,8.3 40.1,5.7 37,3.8 l -7.1,10.9 z"
       id="path7"
       style="fill:#f63336;fill-opacity:1"
       inkscape:connector-curvature="0" /><path
       d="m 34.4,20.2 c 0.4,1.2 0.7,2.5 0.7,3.8 l 0,0 c 0,1.3 -0.3,2.6 -0.7,3.8 l 11,7.2 c 1.7,-3.3 2.7,-7 2.7,-11 0,-4 -1,-7.7 -2.7,-11 l -11,7.2 z"
       id="path9"
       style="fill:#f63336;fill-opacity:1"
       inkscape:connector-curvature="0" /><path
       d="M 29.9,33.4 37,44.3 c 3,-1.9 5.6,-4.5 7.5,-7.5 L 33.6,29.7 c -0.9,1.5 -2.2,2.8 -3.7,3.7 z"
       id="path11"
       style="fill:#f63336;fill-opacity:1"
       inkscape:connector-curvature="0" /><path
       d="m 28.1,34.3 c -1.2,0.5 -2.5,0.7 -3.9,0.7 -1.3,0 -2.6,-0.3 -3.8,-0.7 l -7.2,11 c 3.3,1.7 7,2.7 11,2.7 4,0 7.8,-1 11.1,-2.7 l -7.2,-11 z"
       id="path13"
       style="fill:#f63336;fill-opacity:1"
       inkscape:connector-curvature="0" /><path
       d="M 18.5,33.5 C 17,32.6 15.7,31.3 14.7,29.8 L 3.8,36.9 c 1.9,3 4.5,5.6 7.5,7.5 l 7.2,-10.9 z"
       id="path15"
       style="fill:#f63336;fill-opacity:1"
       inkscape:connector-curvature="0" /><path
       d="M 18.5,14.6 11.4,3.7 c -3,1.9 -5.6,4.5 -7.5,7.5 l 10.9,7.1 c 0.9,-1.5 2.2,-2.8 3.7,-3.7 z"
       id="path17"
       style="fill:#f63336;fill-opacity:1"
       inkscape:connector-curvature="0" /><path
       d="m 13.8,28 c -0.5,-1.2 -0.7,-2.5 -0.7,-3.9 0,-1.4 0.3,-2.7 0.7,-3.9 L 2.8,13 c -1.7,3.3 -2.7,7.1 -2.7,11.1 0,4 1,7.8 2.7,11.1 l 11,-7.2 z"
       id="path19"
       style="fill:#f63336;fill-opacity:1"
       inkscape:connector-curvature="0" /></g></svg>