<?xml version="1.0" encoding="UTF-8" standalone="no"?>
<!-- Created with Inkscape (http://www.inkscape.org/) -->

<svg
   xmlns:dc="http://purl.org/dc/elements/1.1/"
   xmlns:cc="http://creativecommons.org/ns#"
   xmlns:rdf="http://www.w3.org/1999/02/22-rdf-syntax-ns#"
   xmlns:svg="http://www.w3.org/2000/svg"
   xmlns="http://www.w3.org/2000/svg"
   xmlns:sodipodi="http://sodipodi.sourceforge.net/DTD/sodipodi-0.dtd"
   xmlns:inkscape="http://www.inkscape.org/namespaces/inkscape"
   id="svg2"
   height="100"
   width="100"
   version="1.1"
   viewBox="0 0 100.00001 99.999985"
   inkscape:version="0.91 r13725"
   sodipodi:docname="cnrs.svg">
  <sodipodi:namedview
     pagecolor="#ffffff"
     bordercolor="#666666"
     borderopacity="1"
     objecttolerance="10"
     gridtolerance="10"
     guidetolerance="10"
     inkscape:pageopacity="0"
     inkscape:pageshadow="2"
     inkscape:window-width="1920"
     inkscape:window-height="1036"
     id="namedview29"
     showgrid="false"
     fit-margin-top="0"
     fit-margin-left="0"
     fit-margin-right="0"
     fit-margin-bottom="0"
     inkscape:zoom="1.18"
     inkscape:cx="-135.65715"
     inkscape:cy="99.997887"
     inkscape:window-x="0"
     inkscape:window-y="0"
     inkscape:window-maximized="1"
     inkscape:current-layer="svg2" />
  <defs
     id="defs4">
    <radialGradient
       id="radialGradient4212"
       cx="0"
       gradientUnits="userSpaceOnUse"
       cy="0"
       r="1"
       gradientTransform="matrix(38.394,0,0,-38.394,357.28,100.34)">
      <stop
         id="stop4214"
         stop-color="#456587"
         offset="0" />
      <stop
         id="stop4216"
         stop-color="#00294b"
         offset="1" />
    </radialGradient>
    <clipPath
       id="clipPath4224"
       clipPathUnits="userSpaceOnUse">
      <path
         id="path4226"
         d="m 318.33,61.001 63.359,0 0,64.626 -63.359,0 0,-64.626 z"
         inkscape:connector-curvature="0" />
    </clipPath>
  </defs>
  <metadata
     id="metadata7">
    <rdf:RDF>
      <cc:Work
         rdf:about="">
        <dc:format>image/svg+xml</dc:format>
        <dc:type
           rdf:resource="http://purl.org/dc/dcmitype/StillImage" />
        <dc:title />
      </cc:Work>
    </rdf:RDF>
  </metadata>
  <g
     id="layer1"
     transform="matrix(0.31999692,0,0,0.31999692,-9.2312311,-140.39398)">
    <g
       id="g4678"
       transform="matrix(2.6305,0,0,2.6305,1394.6,-1640.5)">
      <g
         id="g4200"
         transform="matrix(1.25,0,0,-1.25,-897.76,966.38)">
        <g
           id="g4202">
          <g
             id="g4208">
            <g
               id="g4210">
              <path
                 id="path4218"
                 d="m 347.42,123.65 c -7.518,0 -14.326,-3.206 -20.261,-9.549 -5.356,-5.725 -7.187,-10.342 -7.202,-15.889 l 0,-0.144 c 0.009,-3.001 0.542,-6.279 1.33,-10.152 1.483,-7.285 5.807,-14.318 11.864,-19.297 4.637,-3.811 9.81,-5.758 15.26,-5.794 2.824,-0.019 5.723,0.475 8.662,1.49 9.487,3.275 18.563,12.651 22.071,22.8 1.088,3.151 1.628,6.219 1.637,9.144 l 0,0.169 c -0.028,7.269 -3.349,13.641 -9.694,18.197 -7.698,5.529 -15.101,8.547 -22.007,8.973 -0.547,0.034 -1.091,0.051 -1.631,0.052 l -0.029,0"
                 style="fill:url(#radialGradient4212)"
                 inkscape:connector-curvature="0" />
            </g>
          </g>
        </g>
      </g>
      <g
         id="g4220"
         transform="matrix(1.25,0,0,-1.25,-897.76,966.38)">
        <g
           id="g4222"
           clip-path="url(#clipPath4224)">
          <g
             id="g4228"
             transform="translate(339.02,94.756)">
            <path
               id="path4230"
               d="m 0,0 -2.086,0 -0.003,-0.059 c -0.016,-0.405 -0.257,-3.954 -3.432,-3.954 -2.838,0 -4.278,2.544 -4.282,7.56 0.004,5.017 1.444,7.56 4.282,7.56 3.23,0 3.426,-3.792 3.432,-3.953 l 0.003,-0.059 2.086,0 c 0.193,0 0.38,0.079 0.514,0.216 0.129,0.133 0.195,0.304 0.186,0.482 -0.043,0.984 -0.548,5.894 -6.251,5.894 -4.608,0 -7.044,-3.503 -7.044,-10.129 0,-6.64 2.436,-10.15 7.044,-10.15 5.489,0 6.171,4.484 6.25,5.858 0.014,0.19 -0.051,0.372 -0.184,0.512 C 0.382,-0.081 0.193,0 0,0"
               inkscape:connector-curvature="0"
               style="fill:#ffffff" />
          </g>
          <g
             id="g4232"
             transform="translate(369.29,99.509)">
            <path
               id="path4234"
               d="m 0,0 0.001,-0.001 -1.798,0.784 c -1.727,0.759 -2.34,1.498 -2.34,2.823 0,1.728 1.264,2.89 3.146,2.89 1.112,0 2.025,-0.228 3.139,-1.363 L 2.209,5.071 3.168,5.948 c 0.555,0.516 0.394,0.98 0.162,1.278 -0.935,1.104 -2.437,1.71 -4.23,1.71 -3.458,0 -5.968,-2.256 -5.968,-5.364 0,-3.057 1.926,-4.334 4.007,-5.259 l 1.834,-0.819 c 1.842,-0.826 2.719,-1.531 2.719,-3.303 0,-2.418 -2.184,-3.063 -3.476,-3.063 -1.11,0 -2.346,0.238 -3.865,1.959 l -0.06,0.068 -0.999,-0.878 c -0.514,-0.452 -0.518,-0.839 -0.017,-1.483 1.375,-1.768 3.391,-2.139 4.84,-2.139 3.135,0 6.308,1.925 6.308,5.604 C 4.423,-2.556 2.655,-1.143 0,0"
               inkscape:connector-curvature="0"
               style="fill:#62c4dd" />
          </g>
          <g
             id="g4236"
             transform="translate(353,102.64)">
            <path
               id="path4238"
               d="m 0,0 c 0,3.131 -2.537,5.783 -5.669,5.783 -1.473,0 -2.814,-0.562 -3.822,-1.483 l 0,1.076 -1.886,0 c -0.568,0 -0.785,-0.37 -0.785,-0.797 l 0,-18.268 c 0,-0.514 0.314,-0.789 0.776,-0.789 l 1.887,0 0,14.367 c 0,1.887 1.531,3.418 3.418,3.418 1.887,0 3.417,-1.531 3.417,-3.418 l 0,-14.369 1.875,0 c 0.519,0 0.789,0.288 0.789,0.785 L 0,0 Z"
               inkscape:connector-curvature="0"
               style="fill:#62c4dd" />
          </g>
          <g
             id="g4240"
             transform="translate(362.74,107.06)">
            <path
               id="path4242"
               d="m 0,0 c 0.098,0.122 0.159,0.276 0.159,0.444 0,0.315 -0.205,0.579 -0.487,0.674 -0.545,0.183 -1.127,0.283 -1.731,0.283 -1.473,0 -2.814,-0.561 -3.822,-1.482 l 0,1.076 -1.886,0 c -0.568,0 -0.785,-0.371 -0.785,-0.797 l 0,-18.269 c 0,-0.514 0.314,-0.789 0.777,-0.789 l 1.886,0 0,14.367 c 0,1.888 1.53,3.418 3.418,3.418 0.495,0 0.964,-0.107 1.388,-0.296 L 0.006,-0.004 0,0 Z"
               inkscape:connector-curvature="0"
               style="fill:#ffffff" />
          </g>
          <g
             id="g4244"
             transform="translate(347.43,68.4)">
            <path
               id="path4246"
               d="m 0,0 c 0,-0.28 -0.227,-0.506 -0.507,-0.506 -0.279,0 -0.506,0.226 -0.506,0.506 l 0,34.468 c 0,0.28 0.227,0.507 0.506,0.507 0.28,0 0.507,-0.227 0.507,-0.507 L 0,0 Z"
               inkscape:connector-curvature="0"
               style="fill:#ffffff" />
          </g>
        </g>
      </g>
    </g>
  </g>
</svg>
