<?xml version="1.0" encoding="UTF-8" standalone="no"?>
<!-- Created with Inkscape (http://www.inkscape.org/) -->

<svg
   xmlns:dc="http://purl.org/dc/elements/1.1/"
   xmlns:cc="http://creativecommons.org/ns#"
   xmlns:rdf="http://www.w3.org/1999/02/22-rdf-syntax-ns#"
   xmlns:svg="http://www.w3.org/2000/svg"
   xmlns="http://www.w3.org/2000/svg"
   xmlns:sodipodi="http://sodipodi.sourceforge.net/DTD/sodipodi-0.dtd"
   xmlns:inkscape="http://www.inkscape.org/namespaces/inkscape"
   width="128"
   height="128"
   viewBox="0 0 128 128"
   id="svg2"
   version="1.1"
   inkscape:version="0.91 r13725"
   sodipodi:docname="elixir.svg">
  <defs
     id="defs4" />
  <sodipodi:namedview
     id="base"
     pagecolor="#ffffff"
     bordercolor="#666666"
     borderopacity="1.0"
     inkscape:pageopacity="0"
     inkscape:pageshadow="2"
     inkscape:zoom="1.979899"
     inkscape:cx="-194.96234"
     inkscape:cy="20.302012"
     inkscape:document-units="px"
     inkscape:current-layer="g4188"
     showgrid="false"
     units="px"
     inkscape:window-width="1920"
     inkscape:window-height="1036"
     inkscape:window-x="0"
     inkscape:window-y="0"
     inkscape:window-maximized="1" />
  <metadata
     id="metadata7">
    <rdf:RDF>
      <cc:Work
         rdf:about="">
        <dc:format>image/svg+xml</dc:format>
        <dc:type
           rdf:resource="http://purl.org/dc/dcmitype/StillImage" />
        <dc:title />
      </cc:Work>
    </rdf:RDF>
  </metadata>
  <g
     inkscape:label="Layer 1"
     inkscape:groupmode="layer"
     id="layer1"
     transform="translate(0,-924.3622)">
    <g
       id="g4188"
       transform="matrix(0.1527971,0,0,0.1527971,126.63895,890.87764)">
      <path
         inkscape:connector-curvature="0"
         id="path3374"
         d="m -500.69613,894.00563 c -17.8373,-6.57429 -34.94934,-20.91816 -42.81726,-35.89083 -5.55576,-10.57263 -7.78998,-20.49333 -7.855,-34.87889 -0.10039,-22.20867 5.96158,-44.05728 20.03933,-72.22591 12.98841,-25.98896 29.21601,-50.31066 51.64622,-77.40666 9.65072,-11.65819 42.76739,-45.84906 54.93334,-56.71519 l 4.70173,-4.1994 -3.83738,-9.88382 c -11.66368,-30.04183 -27.2826,-63.2853 -42.84937,-91.20108 -16.56804,-29.71135 -34.00423,-54.62062 -57.97122,-82.81747 -5.10612,-6.00729 -5.92498,-8.04152 -3.55502,-8.83151 2.94361,-0.9812 25.2623,22.11922 44.62894,46.19211 27.19224,33.80017 47.18099,65.47633 69.34966,109.89835 l 11.2386,22.52014 9.01951,-7.29343 c 13.83343,-11.18608 33.50976,-25.62796 52.45608,-38.50129 l 17.1726,-11.66815 0.0942,-4.53598 c 0.25201,-12.13238 12.75204,-19.58778 23.91584,-14.26414 l 3.37047,1.60727 10.38684,-6.27471 c 9.04842,-5.46617 10.30237,-6.5519 9.73135,-8.4258 -4.87529,-15.9991 5.61011,-30.94419 21.69673,-30.92493 4.40069,0.005 12.83537,3.89734 16.07889,7.4194 l 2.44183,2.65151 6.64954,-3.66166 c 3.65726,-2.01391 8.05817,-4.50523 9.77982,-5.53627 l 3.13026,-1.87462 -1.97432,-5.82038 c -6.14251,-18.1083 8.14784,-37.77441 27.31895,-37.59585 8.81248,0.0821 18.52535,5.22066 23.1892,12.26822 l 2.48859,3.76052 12.2697,-6.1313 c 6.74834,-3.37221 12.40606,-6.25374 12.5727,-6.4034 0.16665,-0.14966 -0.67655,-3.16622 -1.87376,-6.70347 -6.05921,-17.90225 2.73149,-38.54864 20.01815,-47.01594 5.23018,-2.56183 6.8321,-2.83973 16.40285,-2.84554 9.698605,-0.006 11.124354,0.24777 16.654626,2.96303 7.703605,3.78232 14.474304,10.55302 18.256629,18.25663 2.685611,5.46988 2.969464,7.01513 2.969464,16.16508 0,9.36599 -0.243073,10.61123 -3.274187,16.77358 -3.950313,8.03111 -11.182601,15.125 -19.233961,18.86591 -4.914089,2.28324 -7.13293,2.68181 -14.867491,2.67069 -11.79971,-0.017 -18.52152,-2.5678 -26.68646,-10.12709 -3.24965,-3.00861 -6.1635,-5.47019 -6.47523,-5.47019 -0.31173,0 -5.99336,2.96729 -12.62586,6.59399 l -12.05909,6.59398 0.48685,6.28546 c 0.66142,8.53916 -2.15696,15.93256 -8.48621,22.26182 -10.31293,10.31293 -25.08786,11.47345 -36.76279,2.88761 l -4.17172,-3.06791 -10.24935,6.28384 c -9.87085,6.05178 -10.23757,6.40423 -9.92999,9.54372 0.84681,8.64303 -5.70156,19.75165 -13.58499,23.04555 -5.18735,2.16742 -15.03958,1.79568 -19.54681,-0.73753 l -3.79306,-2.13182 -10.73914,7.20518 c -9.91435,6.65179 -10.74085,7.45558 -10.76133,10.46558 -0.0323,4.75258 -3.30141,11.19856 -7.02344,13.84888 -3.80785,2.71143 -10.74196,3.73611 -15.07079,2.22707 -2.91039,-1.01456 -3.63852,-0.63259 -14.46524,7.58833 -27.16225,20.62479 -66.45391,55.04909 -66.45391,58.22175 0,0.49194 2.68008,8.00371 5.95573,16.6928 18.08579,47.97498 29.72928,93.94079 29.84564,117.82376 0.0561,11.51791 -0.0965,12.44896 -3.06268,18.68782 -6.02849,12.67984 -13.54056,18.54668 -23.62603,18.45169 -11.44353,-0.10779 -13.34027,-4.31076 -5.08627,-11.27063 4.11579,-3.47049 5.34554,-5.29992 6.72681,-10.00711 1.48811,-5.07135 1.54815,-7.20995 0.50193,-17.88208 -2.15937,-22.0271 -9.94099,-56.14081 -20.90195,-91.63165 -3.0389,-9.83979 -5.98695,-19.10479 -6.55122,-20.58891 -1.01293,-2.66421 -1.05284,-2.67431 -3.15116,-0.7973 -3.72472,3.33187 -26.10766,29.64698 -26.10766,30.69419 0,0.58949 3.55693,1.00639 8.5863,1.00639 7.23943,0 8.90321,0.31692 10.6066,2.02031 3.00789,3.00789 2.69375,8.415 -0.64131,11.03836 -2.41078,1.89632 -4.05292,2.09734 -17.42513,2.13302 l -14.76352,0.0394 -3.35486,4.55917 c -8.7355,11.87127 -16.34312,22.6301 -16.34312,23.11271 0,0.29348 11.36422,0.5336 25.25382,0.5336 23.90695,0 25.36157,0.10776 27.27412,2.02031 2.72185,2.72185 2.66853,8.19113 -0.10434,10.70257 -1.97222,1.78629 -4.2883,1.94641 -32.28523,2.232 l -30.16058,0.30766 -3.46465,5.75325 c -3.47002,5.76219 -11.76695,21.91149 -11.76695,22.90342 0,0.29013 16.62164,0.52751 36.93698,0.52751 42.41585,0 42.81281,0.0721 42.84961,7.78932 0.0101,2.05078 -0.79756,4.0011 -2.19532,5.3033 -2.14985,2.0029 -3.34498,2.05966 -43.36398,2.05966 l -41.1532,0 -2.16305,5.78128 c -7.62495,20.3795 -10.22281,47.27578 -6.19596,64.14832 3.74241,15.68069 11.94752,28.94744 23.40706,37.84658 6.47673,5.02963 7.74081,7.1963 6.04601,10.36306 -2.46463,4.6052 -9.38778,6.16045 -16.21759,3.64319 z"
         style="fill:#ffffff;fill-opacity:1;stroke:none" />
      <path
         inkscape:connector-curvature="0"
         id="path3376"
         d="m -738.55792,-235.91153 c -14.43981,-3.53695 -15.57063,-10.41508 -7.53281,-45.81816 10.24025,-45.10389 12.5162,-51.77712 19.94921,-58.4924 7.0792,-6.39563 6.85246,-6.37127 59.30443,-6.37127 44.22552,0 47.73552,0.12844 51.24932,1.87531 5.48275,2.72572 7.84461,7.14095 7.84461,14.66459 0,4.94428 -6.04843,36.14597 -8.68966,44.82687 -0.50268,1.65215 -3.76812,1.76776 -49.92833,1.76776 l -49.39047,0 -1.00507,3.78807 c -2.50244,9.4315 -5.13371,22.77096 -5.13371,26.02574 0,2.90401 0.48411,3.75529 2.59114,4.55638 3.13001,1.19003 76.56511,1.24667 86.80736,0.0669 3.88909,-0.44794 7.18665,-0.72571 7.32792,-0.61725 0.14126,0.10846 -1.03087,3.33936 -2.60474,7.17978 l -2.86157,6.98258 -52.44859,0.15366 c -28.84672,0.0845 -53.81229,-0.18036 -55.47904,-0.58861 z m 98.14438,-74.82142 c 3.9017,-16.20646 4.19011,-20.70639 1.42205,-22.18781 -2.698,-1.44393 -58.76851,-1.41103 -61.94516,0.0363 -1.30615,0.59513 -2.92664,1.96566 -3.6011,3.04563 -0.94067,1.50626 -8.26128,30.58824 -8.26128,32.81892 0,0.25057 15.54803,0.33597 34.55119,0.18978 l 34.55119,-0.2658 3.28311,-13.63706 z"
         style="fill:#4d4847;fill-opacity:1;stroke:none;stroke-width:1.01015258"
         transform="translate(0,924.3622)" />
      <path
         inkscape:connector-curvature="0"
         id="path3378"
         d="m -604.44257,-236.23874 c 3.86629,-10.07538 9.12369,-31.92396 21.39665,-88.91955 8.08429,-37.54343 14.70371,-69.54378 14.70982,-71.11189 0.006,-1.56811 0.29288,-4.55575 0.63725,-6.63919 l 0.62613,-3.78807 16.53535,0 c 10.46561,0 16.53534,0.37473 16.53534,1.02085 0,0.56147 -0.88489,4.99351 -1.96642,9.84899 -10.42927,46.82151 -31.33707,145.47397 -31.84296,150.24949 -1.25076,11.8071 0.93946,10.6066 -19.35095,10.6066 -13.83215,0 -17.65881,-0.28063 -17.28021,-1.26723 z"
         style="fill:#4d4847;fill-opacity:1;stroke:none;stroke-width:1.01015258"
         transform="translate(0,924.3622)" />
      <path
         inkscape:connector-curvature="0"
         id="path3380"
         d="m -546.12386,-235.29965 c 0,-0.18048 1.16206,-3.70338 2.58235,-7.82869 4.93605,-14.33699 21.18342,-84.83784 22.28641,-96.70554 l 0.67517,-7.26456 15.51231,0 c 11.44622,0 15.5123,0.31976 15.5123,1.2199 0,0.67095 -4.51974,21.24018 -10.04388,45.70941 -8.94991,39.64377 -11.09411,50.00855 -12.80845,61.91463 l -0.47272,3.28299 -16.62174,0 c -9.14196,0 -16.62175,-0.14766 -16.62175,-0.32814 z"
         style="fill:#4d4847;fill-opacity:1;stroke:none;stroke-width:1.01015258"
         transform="translate(0,924.3622)" />
      <path
         inkscape:connector-curvature="0"
         id="path3382"
         d="m -502.56325,-372.43828 c -13.87505,-2.93452 -16.44246,-22.2923 -3.83248,-28.89618 10.38911,-5.44081 22.90703,2.0635 22.89755,13.72677 -0.008,10.09388 -9.04943,17.28767 -19.06507,15.16941 z"
         style="fill:#4d4847;fill-opacity:1;stroke:none;stroke-width:1.01015258"
         transform="translate(0,924.3622)" />
      <path
         inkscape:connector-curvature="0"
         id="path3384"
         d="m -350.99563,-243.30526 c 3.70171,-10.08765 20.60206,-82.6314 21.51038,-92.33203 1.19079,-12.71736 -0.69995,-11.46115 17.2502,-11.46115 l 15.65736,0 -0.52046,2.27285 c -11.28074,49.26306 -21.80435,97.80716 -22.33652,103.03556 l -0.69401,6.81852 -16.96254,0 -16.96253,0 3.05812,-8.33375 z"
         style="fill:#4d4847;fill-opacity:1;stroke:none;stroke-width:1.01015258"
         transform="translate(0,924.3622)" />
      <path
         inkscape:connector-curvature="0"
         id="path3386"
         d="m -288.53496,-235.29965 c 0,-0.18048 1.13412,-3.66259 2.52026,-7.73802 3.15967,-9.28982 21.50276,-89.53158 22.3755,-97.88155 l 0.64586,-6.17922 14.13894,0 14.13894,0 -0.59819,5.05077 c -0.32901,2.77791 -0.25052,5.05076 0.1744,5.05076 0.42493,0 1.7781,-1.36002 3.00705,-3.02227 1.22895,-1.66224 4.04428,-3.94557 6.25629,-5.07405 3.66658,-1.87055 5.60513,-2.02742 21.94663,-1.77596 l 17.9248,0.27583 3.03036,5.79164 3.03036,5.79164 -3.53544,3.47389 -3.53543,3.47388 -8.08122,-0.8773 c -12.37792,-1.34376 -33.91935,-1.17196 -36.81527,0.29361 -1.35855,0.68754 -3.24533,2.61275 -4.19285,4.27826 -2.02557,3.56045 -17.60909,72.63141 -18.63086,82.57771 l -0.70045,6.81852 -16.54984,0 c -9.10241,0 -16.54984,-0.14766 -16.54984,-0.32814 z"
         style="fill:#4d4847;fill-opacity:1;stroke:none;stroke-width:1.01015258"
         transform="translate(0,924.3622)" />
    </g>
  </g>
</svg>
