<?xml version="1.0" encoding="UTF-8" standalone="no"?>
<svg
   xmlns:dc="http://purl.org/dc/elements/1.1/"
   xmlns:cc="http://creativecommons.org/ns#"
   xmlns:rdf="http://www.w3.org/1999/02/22-rdf-syntax-ns#"
   xmlns:svg="http://www.w3.org/2000/svg"
   xmlns="http://www.w3.org/2000/svg"
   viewBox="0 0 282.70551 314.52151"
   height="314.52151"
   width="282.70551"
   xml:space="preserve"
   version="1.1"
   id="svg2"><metadata
     id="metadata8"><rdf:RDF><cc:Work
         rdf:about=""><dc:format>image/svg+xml</dc:format><dc:type
           rdf:resource="http://purl.org/dc/dcmitype/StillImage" /><dc:title></dc:title></cc:Work></rdf:RDF></metadata><defs
     id="defs6"><clipPath
       id="clipPath18"
       clipPathUnits="userSpaceOnUse"><path
         id="path20"
         d="m 0.1017094,294.8125 593.2048006,0 0,251.5155 -593.2048006,0 0,-251.5155 z" /></clipPath></defs><g
     transform="matrix(1.25,0,0,-1.25,-458.92763,682.91)"
     id="g10"><g
       id="g12" /><g
       id="g14"><path
         d="m 367.1421,391.7433 c 0,-5.9144 4.8024,-10.7168 10.7219,-10.7168 5.9178,0 10.7202,4.8024 10.7202,10.7168 0,5.9195 -4.8024,10.7236 -10.7202,10.7236 -5.9195,0 -10.7219,-4.8007 -10.7219,-10.7236 m 0,28.777 c 0,-5.9195 4.8024,-10.7219 10.7219,-10.7219 5.9178,0 10.7202,4.8024 10.7202,10.7219 0,5.9144 -4.8024,10.7168 -10.7202,10.7168 -5.9195,0 -10.7219,-4.8024 -10.7219,-10.7168 m 0,28.7702 c 0,-5.9195 4.8024,-10.7168 10.7219,-10.7168 5.9178,0 10.7202,4.7973 10.7202,10.7168 0,5.9195 -4.8024,10.7168 -10.7202,10.7168 -5.9195,0 -10.7219,-4.7973 -10.7219,-10.7168 m 0,28.7736 c 0,-5.9178 4.8024,-10.7219 10.7219,-10.7219 5.9178,0 10.7202,4.8041 10.7202,10.7219 0,5.9144 -4.8024,10.7167 -10.7202,10.7167 -5.9195,0 -10.7219,-4.8006 -10.7219,-10.7167 m 25.1002,-129.4778 c 0,-5.9195 4.799,-10.7168 10.7168,-10.7168 5.9246,0 10.7168,4.7973 10.7168,10.7168 0,5.9195 -4.7922,10.7236 -10.7168,10.7236 -5.9178,0 -10.7168,-4.8007 -10.7168,-10.7236 m 0,28.7753 c 0,-5.9195 4.799,-10.7219 10.7168,-10.7219 5.9246,0 10.7168,4.8024 10.7168,10.7219 0,5.9161 -4.7922,10.7151 -10.7168,10.7151 -5.9178,0 -10.7168,-4.799 -10.7168,-10.7151 m 0,28.7702 c 0,-5.9161 4.799,-10.7168 10.7168,-10.7168 5.9246,0 10.7168,4.8007 10.7168,10.7168 0,5.9195 -4.7922,10.7168 -10.7168,10.7168 -5.9178,0 -10.7168,-4.7973 -10.7168,-10.7168 m 0,28.7702 c 0,-5.9144 4.799,-10.7168 10.7168,-10.7168 5.9246,0 10.7168,4.8024 10.7168,10.7168 0,5.9195 -4.7922,10.7218 -10.7168,10.7218 -5.9178,0.002 -10.7168,-4.8006 -10.7168,-10.7218 m 0,28.7753 c 0,-5.9195 4.799,-10.7219 10.7168,-10.7219 5.9246,0 10.7168,4.8024 10.7168,10.7219 0,5.9195 -4.7922,10.7167 -10.7168,10.7167 -5.9178,0 -10.7168,-4.7972 -10.7168,-10.7167 m 0,28.7719 c 0,-5.9195 4.799,-10.7168 10.7168,-10.7168 5.9246,0 10.7168,4.7973 10.7168,10.7168 0,5.9194 -4.7922,10.7218 -10.7168,10.7218 -5.9178,0 -10.7168,-4.8024 -10.7168,-10.7218 m 25.9359,-158.2463 c 0,-5.9178 4.8024,-10.7219 10.7236,-10.7219 5.9245,0 10.7218,4.8041 10.7218,10.7219 0,5.9144 -4.7973,10.7185 -10.7218,10.7185 -5.9212,0 -10.7236,-4.8041 -10.7236,-10.7185 m 0,28.7719 c 0,-5.9195 4.8024,-10.7168 10.7236,-10.7168 5.9245,0 10.7218,4.7973 10.7218,10.7168 0,5.9195 -4.7973,10.7168 -10.7218,10.7168 -5.9212,0 -10.7236,-4.7973 -10.7236,-10.7168 m 0,57.5455 c 0,-5.9195 4.8024,-10.7219 10.7236,-10.7219 5.9245,0 10.7218,4.8024 10.7218,10.7219 0,5.9144 -4.7973,10.7168 -10.7218,10.7168 -5.9212,0 -10.7236,-4.8024 -10.7236,-10.7168 m 0,28.7702 c 0,-5.9195 4.8024,-10.7168 10.7236,-10.7168 5.9245,0 10.7218,4.7973 10.7218,10.7168 0,5.9195 -4.7973,10.7168 -10.7218,10.7168 -5.9212,0 -10.7236,-4.7973 -10.7236,-10.7168 m 0,28.7736 c 0,-5.9178 4.8024,-10.7219 10.7236,-10.7219 5.9245,0 10.7218,4.8041 10.7218,10.7219 0,5.9144 -4.7973,10.7167 -10.7218,10.7167 -5.9212,0.002 -10.7236,-4.8006 -10.7236,-10.7167 m 0,28.7719 c 0,-5.9195 4.8024,-10.7168 10.7236,-10.7168 5.9245,0 10.7218,4.7973 10.7218,10.7168 0,5.9194 -4.7973,10.7167 -10.7218,10.7167 -5.9212,0 -10.7236,-4.7973 -10.7236,-10.7167 m 25.407,-187.0199 c 0,-5.9178 4.7973,-10.7151 10.7168,-10.7151 5.9246,0 10.7269,4.7973 10.7269,10.7151 0,5.9195 -4.8023,10.7168 -10.7269,10.7168 -5.9195,0 -10.7168,-4.7973 -10.7168,-10.7168 m 0,28.7702 c 0,-5.9195 4.7973,-10.7168 10.7168,-10.7168 5.9246,0 10.7269,4.7973 10.7269,10.7168 0,5.9195 -4.8023,10.7236 -10.7269,10.7236 -5.9195,0 -10.7168,-4.8007 -10.7168,-10.7236 m 0,28.7753 c 0,-5.9195 4.7973,-10.7219 10.7168,-10.7219 5.9246,0 10.7269,4.8024 10.7269,10.7219 0,5.9161 -4.8023,10.7151 -10.7269,10.7151 -5.9195,0 -10.7168,-4.799 -10.7168,-10.7151 m 0,28.7702 c 0,-5.9161 4.7973,-10.7168 10.7168,-10.7168 5.9246,0 10.7269,4.8007 10.7269,10.7168 0,5.9195 -4.8023,10.7168 -10.7269,10.7168 -5.9195,0 -10.7168,-4.7973 -10.7168,-10.7168 m 0,28.7702 c 0,-5.9144 4.7973,-10.7168 10.7168,-10.7168 5.9246,0 10.7269,4.8024 10.7269,10.7168 0,5.9195 -4.8023,10.7218 -10.7269,10.7218 -5.9195,0.002 -10.7168,-4.8006 -10.7168,-10.7218 m 0,28.7753 c 0,-5.9195 4.7973,-10.7219 10.7168,-10.7219 5.9246,0 10.7269,4.8024 10.7269,10.7219 0,5.9195 -4.8023,10.7167 -10.7269,10.7167 -5.9195,0 -10.7168,-4.7972 -10.7168,-10.7167 m 0,28.7719 c 0,-5.9195 4.7973,-10.7168 10.7168,-10.7168 5.9246,0 10.7269,4.7973 10.7269,10.7168 0,5.9194 -4.8023,10.7218 -10.7269,10.7218 -5.9195,0 -10.7168,-4.8024 -10.7168,-10.7218 m 0,28.7735 c 0,-5.9194 4.7973,-10.7218 10.7168,-10.7218 5.9246,0 10.7269,4.8024 10.7269,10.7218 0,5.9145 -4.8023,10.7168 -10.7269,10.7168 -5.9195,0.002 -10.7168,-4.8007 -10.7168,-10.7168 M 571.8628,362.9748 c 0,-5.9195 4.8024,-10.7168 10.7168,-10.7168 5.9212,0 10.7269,4.7973 10.7269,10.7168 0,5.9195 -4.8057,10.7168 -10.7269,10.7168 -5.9144,0 -10.7168,-4.7973 -10.7168,-10.7168 m 0,28.7685 c 0,-5.9144 4.8024,-10.7168 10.7168,-10.7168 5.9212,0 10.7269,4.8024 10.7269,10.7168 0,5.9195 -4.8057,10.7236 -10.7269,10.7236 -5.9144,0 -10.7168,-4.8007 -10.7168,-10.7236 m 0,28.777 c 0,-5.9195 4.8024,-10.7219 10.7168,-10.7219 5.9212,0 10.7269,4.8024 10.7269,10.7219 0,5.9144 -4.8057,10.7168 -10.7269,10.7168 -5.9144,0 -10.7168,-4.8024 -10.7168,-10.7168 m 0,28.7702 c 0,-5.9195 4.8024,-10.7168 10.7168,-10.7168 5.9212,0 10.7269,4.7973 10.7269,10.7168 0,5.9195 -4.8057,10.7168 -10.7269,10.7168 -5.9144,0 -10.7168,-4.7973 -10.7168,-10.7168 m 0,28.7736 c 0,-5.9178 4.8024,-10.7219 10.7168,-10.7219 5.9212,0 10.7269,4.8041 10.7269,10.7219 0,5.9144 -4.8057,10.7167 -10.7269,10.7167 -5.9144,0.002 -10.7168,-4.8006 -10.7168,-10.7167 m -25.702,-129.4778 c 0,-5.9195 4.799,-10.7168 10.7185,-10.7168 5.9246,0 10.727,4.7973 10.727,10.7168 0,5.9195 -4.8024,10.7236 -10.727,10.7236 -5.9178,0 -10.7185,-4.8007 -10.7185,-10.7236 m 0,28.7753 c 0,-5.9195 4.799,-10.7219 10.7185,-10.7219 5.9246,0 10.727,4.8024 10.727,10.7219 0,5.9161 -4.8024,10.7151 -10.727,10.7151 -5.9178,0 -10.7185,-4.799 -10.7185,-10.7151 m 0,28.7702 c 0,-5.9161 4.799,-10.7168 10.7185,-10.7168 5.9246,0 10.727,4.8007 10.727,10.7168 0,5.9195 -4.8024,10.7168 -10.727,10.7168 -5.9178,0 -10.7185,-4.7973 -10.7185,-10.7168 m 0,28.7702 c 0,-5.9144 4.799,-10.7168 10.7185,-10.7168 5.9246,0 10.727,4.8024 10.727,10.7168 0,5.9195 -4.8024,10.7218 -10.727,10.7218 -5.9178,0.002 -10.7185,-4.8006 -10.7185,-10.7218 m 0,28.7753 c 0,-5.9195 4.799,-10.7219 10.7185,-10.7219 5.9246,0 10.727,4.8024 10.727,10.7219 0,5.9195 -4.8024,10.7167 -10.727,10.7167 -5.9178,0 -10.7185,-4.7972 -10.7185,-10.7167 m 0,28.7719 c 0,-5.9195 4.799,-10.7168 10.7185,-10.7168 5.9246,0 10.727,4.7973 10.727,10.7168 0,5.9194 -4.8024,10.7218 -10.727,10.7218 -5.9178,0 -10.7185,-4.8024 -10.7185,-10.7218 M 520.5419,334.2029 c 0,-5.9178 4.8024,-10.7219 10.7219,-10.7219 5.9212,0 10.7236,4.8041 10.7236,10.7219 0,5.9144 -4.8024,10.7185 -10.7236,10.7185 -5.9195,0 -10.7219,-4.8041 -10.7219,-10.7185 m 0,28.7719 c 0,-5.9195 4.8024,-10.7168 10.7219,-10.7168 5.9212,0 10.7236,4.7973 10.7236,10.7168 0,5.9195 -4.8024,10.7168 -10.7236,10.7168 -5.9195,0 -10.7219,-4.7973 -10.7219,-10.7168 m 0,28.7685 c 0,-5.9144 4.8024,-10.7168 10.7219,-10.7168 5.9212,0 10.7236,4.8024 10.7236,10.7168 0,5.9195 -4.8024,10.7236 -10.7236,10.7236 -5.9195,0 -10.7219,-4.8007 -10.7219,-10.7236 m 0,28.777 c 0,-5.9195 4.8024,-10.7219 10.7219,-10.7219 5.9212,0 10.7236,4.8024 10.7236,10.7219 0,5.9144 -4.8024,10.7168 -10.7236,10.7168 -5.9195,0 -10.7219,-4.8024 -10.7219,-10.7168 m 0,28.7702 c 0,-5.9195 4.8024,-10.7168 10.7219,-10.7168 5.9212,0 10.7236,4.7973 10.7236,10.7168 0,5.9195 -4.8024,10.7168 -10.7236,10.7168 -5.9195,0 -10.7219,-4.7973 -10.7219,-10.7168 m 0,28.7736 c 0,-5.9178 4.8024,-10.7219 10.7219,-10.7219 5.9212,0 10.7236,4.8041 10.7236,10.7219 0,5.9144 -4.8024,10.7167 -10.7236,10.7167 -5.9195,0 -10.7219,-4.8006 -10.7219,-10.7167 m 0,28.7719 c 0,-5.9195 4.8024,-10.7168 10.7219,-10.7168 5.9212,0 10.7236,4.7973 10.7236,10.7168 0,5.9194 -4.8024,10.7167 -10.7236,10.7167 -5.9195,0 -10.7219,-4.7973 -10.7219,-10.7167 M 495.2553,319.8161 c 0,-5.9178 4.7956,-10.7151 10.7151,-10.7151 5.9262,0 10.7235,4.7973 10.7235,10.7151 0,5.9195 -4.7973,10.7168 -10.7235,10.7168 -5.9195,0 -10.7151,-4.7973 -10.7151,-10.7168 m 0,28.7702 c 0,-5.9195 4.7956,-10.7168 10.7151,-10.7168 5.9262,0 10.7235,4.7973 10.7235,10.7168 0,5.9195 -4.7973,10.7236 -10.7235,10.7236 -5.9195,0 -10.7151,-4.8007 -10.7151,-10.7236 m 0,28.7753 c 0,-5.9195 4.7956,-10.7219 10.7151,-10.7219 5.9262,0 10.7235,4.8024 10.7235,10.7219 0,5.9161 -4.7973,10.7151 -10.7235,10.7151 -5.9195,0 -10.7151,-4.799 -10.7151,-10.7151 m 0,28.7702 c 0,-5.9161 4.7956,-10.7168 10.7151,-10.7168 5.9262,0 10.7235,4.8007 10.7235,10.7168 0,5.9195 -4.7973,10.7168 -10.7235,10.7168 -5.9195,0 -10.7151,-4.7973 -10.7151,-10.7168 m 0,28.7702 c 0,-5.9144 4.7956,-10.7168 10.7151,-10.7168 5.9262,0 10.7235,4.8024 10.7235,10.7168 0,5.9195 -4.7973,10.7218 -10.7235,10.7218 -5.9195,0.002 -10.7151,-4.8006 -10.7151,-10.7218 m 0,28.7753 c 0,-5.9195 4.7956,-10.7219 10.7151,-10.7219 5.9262,0 10.7235,4.8024 10.7235,10.7219 0,5.9195 -4.7973,10.7167 -10.7235,10.7167 -5.9195,0 -10.7151,-4.7972 -10.7151,-10.7167 m 0,28.7719 c 0,-5.9195 4.7956,-10.7168 10.7151,-10.7168 5.9262,0 10.7235,4.7973 10.7235,10.7168 0,5.9194 -4.7973,10.7218 -10.7235,10.7218 -5.9195,0 -10.7151,-4.8024 -10.7151,-10.7218 m 0,28.7735 c 0,-5.9194 4.7956,-10.7218 10.7151,-10.7218 5.9262,0 10.7235,4.8024 10.7235,10.7218 0,5.9145 -4.7973,10.7168 -10.7235,10.7168 -5.9195,0.002 -10.7151,-4.8007 -10.7151,-10.7168 M 468.5481,305.4293 c 0,-5.9212 4.8024,-10.7185 10.7219,-10.7185 5.9194,0 10.7235,4.7973 10.7235,10.7185 0,5.9195 -4.8041,10.7202 -10.7235,10.7202 -5.9195,0.003 -10.7219,-4.8007 -10.7219,-10.7202 m 0,28.7736 c 0,-5.9178 4.8024,-10.7219 10.7219,-10.7219 5.9194,0 10.7235,4.8041 10.7235,10.7219 0,5.9144 -4.8041,10.7185 -10.7235,10.7185 -5.9195,0 -10.7219,-4.8041 -10.7219,-10.7185 m 0,28.7719 c 0,-5.9195 4.8024,-10.7168 10.7219,-10.7168 5.9194,0 10.7235,4.7973 10.7235,10.7168 0,5.9195 -4.8041,10.7168 -10.7235,10.7168 -5.9195,0 -10.7219,-4.7973 -10.7219,-10.7168 m 0,28.7685 c 0,-5.9144 4.8024,-10.7168 10.7219,-10.7168 5.9194,0 10.7235,4.8024 10.7235,10.7168 0,5.9195 -4.8041,10.7236 -10.7235,10.7236 -5.9195,0 -10.7219,-4.8007 -10.7219,-10.7236 m 0,28.777 c 0,-5.9195 4.8024,-10.7219 10.7219,-10.7219 5.9194,0 10.7235,4.8024 10.7235,10.7219 0,5.9144 -4.8041,10.7168 -10.7235,10.7168 -5.9195,0 -10.7219,-4.8024 -10.7219,-10.7168 m 0,28.7702 c 0,-5.9195 4.8024,-10.7168 10.7219,-10.7168 5.9194,0 10.7235,4.7973 10.7235,10.7168 0,5.9195 -4.8041,10.7168 -10.7235,10.7168 -5.9195,0 -10.7219,-4.7973 -10.7219,-10.7168 m 0,28.7736 c 0,-5.9178 4.8024,-10.7219 10.7219,-10.7219 5.9194,0 10.7235,4.8041 10.7235,10.7219 0,5.9144 -4.8041,10.7167 -10.7235,10.7167 -5.9195,0.002 -10.7219,-4.8006 -10.7219,-10.7167 m 0,28.7719 c 0,-5.9195 4.8024,-10.7168 10.7219,-10.7168 5.9194,0 10.7235,4.7973 10.7235,10.7168 0,5.9194 -4.8041,10.7167 -10.7235,10.7167 -5.9195,0 -10.7219,-4.7973 -10.7219,-10.7167 m 0,28.7702 c 0,-5.9195 4.8024,-10.7168 10.7219,-10.7168 5.9194,0 10.7235,4.7973 10.7235,10.7168 0,5.9194 -4.8041,10.7218 -10.7235,10.7218 -5.9195,0 -10.7219,-4.8024 -10.7219,-10.7218 M 367.1421,362.9748 c 0,5.9195 4.8024,10.7168 10.7219,10.7168 5.9178,0 10.7202,-4.7973 10.7202,-10.7168 0,-5.9195 -4.8024,-10.7168 -10.7202,-10.7168 -5.9195,0 -10.7219,4.7973 -10.7219,10.7168"
         style="fill:#62af34;fill-opacity:1;fill-rule:nonzero;stroke:none"
         id="path22" /><path
         d="m 418.1782,391.7433 c 0,5.9195 4.8024,10.7236 10.7236,10.7236 5.9245,0 10.7218,-4.8041 10.7218,-10.7236 0,-5.9144 -4.7973,-10.7168 -10.7218,-10.7168 -5.9212,0 -10.7236,4.8024 -10.7236,10.7168"
         style="fill:#e31d25;fill-opacity:1;fill-rule:nonzero;stroke:none"
         id="path24" /></g></g></svg>