<?xml version="1.0" encoding="UTF-8" standalone="no"?>
<svg
   xmlns:dc="http://purl.org/dc/elements/1.1/"
   xmlns:cc="http://creativecommons.org/ns#"
   xmlns:rdf="http://www.w3.org/1999/02/22-rdf-syntax-ns#"
   xmlns:svg="http://www.w3.org/2000/svg"
   xmlns="http://www.w3.org/2000/svg"
   viewBox="0 0 372.45691 376.48251"
   height="376.48251"
   width="372.45691"
   xml:space="preserve"
   version="1.1"
   id="svg2"><metadata
     id="metadata8"><rdf:RDF><cc:Work
         rdf:about=""><dc:format>image/svg+xml</dc:format><dc:type
           rdf:resource="http://purl.org/dc/dcmitype/StillImage" /><dc:title></dc:title></cc:Work></rdf:RDF></metadata><defs
     id="defs6"><clipPath
       id="clipPath18"
       clipPathUnits="userSpaceOnUse"><path
         id="path20"
         d="M 0,0 392,0 392,442 0,442 0,0 Z" /></clipPath><clipPath
       id="clipPath182"
       clipPathUnits="userSpaceOnUse"><path
         id="path184"
         d="m 0.06,0 391.134,0 0,441.183 -391.134,0 L 0.06,0 Z" /></clipPath><clipPath
       id="clipPath192"
       clipPathUnits="userSpaceOnUse"><path
         id="path194"
         d="M 0,0 392,0 392,442 0,442 0,0 Z" /></clipPath></defs><g
     transform="matrix(1.25,0,0,-1.25,-58.583891,551.47875)"
     id="g10"><g
       id="g12" /><g
       id="g3788"><path
         d="m 243.854,244.153 c -4.336,6.741 -13.328,8.688 -20.069,4.371 -6.743,-4.335 -8.69,-13.318 -4.354,-20.064 4.325,-6.741 13.309,-8.688 20.05,-4.363 6.733,4.336 8.698,13.314 4.373,20.056"
         style="fill:#2f62b1;fill-opacity:1;fill-rule:nonzero;stroke:none"
         id="path22" /><path
         d="m 261.792,276.85 c -7.293,3.325 -15.918,0.11 -19.234,-7.164 -3.334,-7.293 -0.128,-15.908 7.165,-19.232 7.292,-3.326 15.907,-0.129 19.241,7.164 3.326,7.292 0.101,15.907 -7.172,19.232"
         style="fill:#2f62b1;fill-opacity:1;fill-rule:nonzero;stroke:none"
         id="path24" /><path
         d="m 258.522,315.003 c -7.937,-1.138 -13.447,-8.506 -12.308,-16.423 1.138,-7.934 8.505,-13.445 16.431,-12.307 7.927,1.139 13.438,8.506 12.299,16.423 -1.13,7.935 -8.487,13.446 -16.422,12.307"
         style="fill:#2f62b1;fill-opacity:1;fill-rule:nonzero;stroke:none"
         id="path26" /><path
         d="m 234.981,343.77 c -6.044,-5.235 -6.695,-14.42 -1.442,-20.464 5.235,-6.062 14.411,-6.724 20.463,-1.469 6.062,5.253 6.714,14.42 1.47,20.482 -5.254,6.044 -14.421,6.705 -20.491,1.451"
         style="fill:#2f62b1;fill-opacity:1;fill-rule:nonzero;stroke:none"
         id="path28" /><path
         d="m 200.014,357.804 c -2.259,-7.697 2.159,-15.761 9.837,-18.02 7.689,-2.26 15.771,2.149 18.012,9.827 2.268,7.697 -2.141,15.761 -9.837,18.021 -7.679,2.259 -15.751,-2.15 -18.012,-9.828"
         style="fill:#2f62b1;fill-opacity:1;fill-rule:nonzero;stroke:none"
         id="path30" /><path
         d="m 163.028,349.611 c 2.259,-7.678 10.323,-12.087 18.012,-9.827 7.686,2.259 12.095,10.323 9.836,18.02 -2.26,7.678 -10.324,12.087 -18.012,9.828 -7.687,-2.26 -12.096,-10.324 -9.836,-18.021"
         style="fill:#2f62b1;fill-opacity:1;fill-rule:nonzero;stroke:none"
         id="path32" /><path
         d="m 136.888,321.837 c 6.062,-5.255 15.229,-4.593 20.473,1.469 5.254,6.044 4.592,15.229 -1.46,20.464 -6.053,5.254 -15.229,4.593 -20.483,-1.451 -5.244,-6.062 -4.583,-15.229 1.47,-20.482"
         style="fill:#2f62b1;fill-opacity:1;fill-rule:nonzero;stroke:none"
         id="path34" /><path
         d="m 128.246,286.273 c 7.925,-1.138 15.292,4.373 16.43,12.307 1.14,7.917 -4.371,15.285 -12.299,16.423 -7.934,1.139 -15.292,-4.372 -16.43,-12.307 -1.14,-7.917 4.371,-15.284 12.299,-16.423"
         style="fill:#2f62b1;fill-opacity:1;fill-rule:nonzero;stroke:none"
         id="path36" /><path
         d="m 142.776,250.454 c 7.292,3.324 10.498,11.939 7.163,19.232 -3.315,7.274 -11.931,10.489 -19.232,7.164 -7.275,-3.325 -10.489,-11.94 -7.165,-19.232 3.334,-7.293 11.95,-10.49 19.234,-7.164"
         style="fill:#2f62b1;fill-opacity:1;fill-rule:nonzero;stroke:none"
         id="path38" /><path
         d="m 173.085,228.46 c 4.326,6.746 2.378,15.729 -4.372,20.064 -6.742,4.317 -15.724,2.37 -20.059,-4.371 -4.326,-6.742 -2.37,-15.72 4.362,-20.056 6.751,-4.325 15.725,-2.378 20.069,4.363"
         style="fill:#2f62b1;fill-opacity:1;fill-rule:nonzero;stroke:none"
         id="path40" /><path
         d="m 210.77,225.057 c 0,8.005 -6.512,14.503 -14.512,14.503 -8.018,0 -14.521,-6.498 -14.521,-14.503 0,-8.014 6.503,-14.521 14.521,-14.521 8,0 14.512,6.507 14.512,14.521"
         style="fill:#2f62b1;fill-opacity:1;fill-rule:nonzero;stroke:none"
         id="path42" /><path
         d="m 231.5,199.464 c -1.415,4.809 -6.458,7.564 -11.26,6.145 -4.814,-1.41 -7.56,-6.452 -6.154,-11.261 1.414,-4.804 6.456,-7.559 11.26,-6.14 4.804,1.401 7.559,6.453 6.154,11.256"
         style="fill:#2f62b1;fill-opacity:1;fill-rule:nonzero;stroke:none"
         id="path44" /><path
         d="m 256.152,213.077 c -2.71,4.201 -8.321,5.426 -12.546,2.718 -4.207,-2.701 -5.419,-8.317 -2.71,-12.538 2.7,-4.215 8.321,-5.437 12.537,-2.727 4.207,2.71 5.428,8.321 2.719,12.547"
         style="fill:#2f62b1;fill-opacity:1;fill-rule:nonzero;stroke:none"
         id="path46" /><path
         d="m 275.366,233.517 c -3.784,3.27 -9.515,2.865 -12.784,-0.914 -3.28,-3.784 -2.875,-9.521 0.9,-12.795 3.792,-3.279 9.533,-2.875 12.803,0.914 3.278,3.779 2.865,9.521 -0.919,12.795"
         style="fill:#2f62b1;fill-opacity:1;fill-rule:nonzero;stroke:none"
         id="path48" /><path
         d="m 288.482,258.223 c -4.556,2.076 -9.947,0.074 -12.032,-4.464 -2.075,-4.574 -0.064,-9.956 4.492,-12.032 4.555,-2.076 9.936,-0.073 12.013,4.483 2.085,4.555 0.083,9.937 -4.473,12.013"
         style="fill:#2f62b1;fill-opacity:1;fill-rule:nonzero;stroke:none"
         id="path50" /><path
         d="m 294.04,285.501 c -4.952,0.7 -9.562,-2.737 -10.27,-7.696 -0.707,-4.96 2.737,-9.552 7.688,-10.268 4.951,-0.716 9.561,2.737 10.268,7.678 0.726,4.96 -2.737,9.571 -7.686,10.286"
         style="fill:#2f62b1;fill-opacity:1;fill-rule:nonzero;stroke:none"
         id="path52" /><path
         d="m 291.458,313.644 c -4.951,-0.716 -8.395,-5.31 -7.688,-10.269 0.708,-4.977 5.318,-8.414 10.27,-7.697 4.949,0.717 8.412,5.309 7.686,10.269 -0.707,4.96 -5.317,8.394 -10.268,7.697"
         style="fill:#2f62b1;fill-opacity:1;fill-rule:nonzero;stroke:none"
         id="path54" /><path
         d="m 280.942,339.454 c -4.556,-2.077 -6.567,-7.477 -4.492,-12.015 2.085,-4.574 7.476,-6.576 12.032,-4.5 4.556,2.076 6.558,7.476 4.473,12.032 -2.077,4.537 -7.458,6.558 -12.013,4.483"
         style="fill:#2f62b1;fill-opacity:1;fill-rule:nonzero;stroke:none"
         id="path56" /><path
         d="m 263.482,361.368 c -3.775,-3.27 -4.18,-9.001 -0.9,-12.804 3.269,-3.765 9,-4.189 12.784,-0.9 3.784,3.289 4.197,9 0.919,12.786 -3.27,3.784 -9.011,4.206 -12.803,0.918"
         style="fill:#2f62b1;fill-opacity:1;fill-rule:nonzero;stroke:none"
         id="path58" /><path
         d="m 240.896,377.918 c -2.709,-4.207 -1.497,-9.828 2.71,-12.546 4.225,-2.7 9.836,-1.469 12.546,2.737 2.709,4.207 1.488,9.828 -2.719,12.528 -4.216,2.719 -9.837,1.487 -12.537,-2.719"
         style="fill:#2f62b1;fill-opacity:1;fill-rule:nonzero;stroke:none"
         id="path60" /><path
         d="m 214.086,387.635 c -1.406,-4.811 1.34,-9.846 6.154,-11.259 4.802,-1.415 9.845,1.341 11.26,6.134 1.405,4.814 -1.35,9.847 -6.154,11.261 -4.804,1.415 -9.846,-1.341 -11.26,-6.136"
         style="fill:#2f62b1;fill-opacity:1;fill-rule:nonzero;stroke:none"
         id="path62" /><path
         d="m 186.375,388.297 c 0,-5.014 4.069,-9.074 9.075,-9.074 5.006,0 9.065,4.06 9.065,9.074 0,4.997 -4.059,9.057 -9.065,9.057 -5.006,0 -9.075,-4.06 -9.075,-9.057"
         style="fill:#2f62b1;fill-opacity:1;fill-rule:nonzero;stroke:none"
         id="path64" /><path
         d="m 159.41,382.51 c 1.404,-4.793 6.447,-7.549 11.25,-6.134 4.813,1.413 7.568,6.448 6.154,11.259 -1.414,4.795 -6.457,7.551 -11.261,6.136 -4.812,-1.414 -7.558,-6.447 -6.143,-11.261"
         style="fill:#2f62b1;fill-opacity:1;fill-rule:nonzero;stroke:none"
         id="path66" /><path
         d="m 134.748,368.109 c 2.7,-4.206 8.321,-5.437 12.537,-2.737 4.207,2.718 5.427,8.339 2.728,12.546 -2.71,4.206 -8.331,5.438 -12.538,2.719 -4.215,-2.7 -5.436,-8.321 -2.727,-12.528"
         style="fill:#2f62b1;fill-opacity:1;fill-rule:nonzero;stroke:none"
         id="path68" /><path
         d="m 115.534,347.664 c 3.775,-3.289 9.514,-2.865 12.784,0.9 3.289,3.803 2.875,9.534 -0.909,12.804 -3.784,3.288 -9.515,2.866 -12.803,-0.918 -3.27,-3.786 -2.866,-9.497 0.928,-12.786"
         style="fill:#2f62b1;fill-opacity:1;fill-rule:nonzero;stroke:none"
         id="path70" /><path
         d="m 103.216,322.939 c 4.566,-2.076 9.948,-0.074 12.033,4.5 2.076,4.538 0.064,9.938 -4.492,12.015 -4.555,2.075 -9.937,0.054 -12.013,-4.483 -2.076,-4.556 -0.074,-9.956 4.472,-12.032"
         style="fill:#2f62b1;fill-opacity:1;fill-rule:nonzero;stroke:none"
         id="path72" /><path
         d="m 97.66,295.678 c 4.96,-0.717 9.551,2.72 10.268,7.697 0.717,4.959 -2.727,9.553 -7.687,10.269 -4.96,0.697 -9.562,-2.737 -10.278,-7.697 -0.698,-4.96 2.738,-9.552 7.697,-10.269"
         style="fill:#2f62b1;fill-opacity:1;fill-rule:nonzero;stroke:none"
         id="path74" /><path
         d="m 100.241,267.537 c 4.96,0.716 8.404,5.308 7.687,10.268 -0.717,4.959 -5.308,8.396 -10.268,7.696 -4.959,-0.715 -8.395,-5.326 -7.697,-10.286 0.716,-4.941 5.318,-8.394 10.278,-7.678"
         style="fill:#2f62b1;fill-opacity:1;fill-rule:nonzero;stroke:none"
         id="path76" /><path
         d="m 110.757,241.727 c 4.556,2.076 6.568,7.458 4.492,12.032 -2.085,4.538 -7.467,6.54 -12.033,4.464 -4.546,-2.076 -6.548,-7.458 -4.472,-12.013 2.076,-4.556 7.458,-6.559 12.013,-4.483"
         style="fill:#2f62b1;fill-opacity:1;fill-rule:nonzero;stroke:none"
         id="path78" /><path
         d="m 127.409,219.808 c 3.784,3.274 4.198,9.011 0.909,12.795 -3.27,3.779 -9.009,4.184 -12.784,0.914 -3.794,-3.274 -4.198,-9.016 -0.928,-12.795 3.288,-3.789 9.019,-4.193 12.803,-0.914"
         style="fill:#2f62b1;fill-opacity:1;fill-rule:nonzero;stroke:none"
         id="path80" /><path
         d="m 150.013,203.257 c 2.699,4.221 1.479,9.837 -2.728,12.538 -4.216,2.708 -9.837,1.483 -12.537,-2.718 -2.709,-4.226 -1.488,-9.837 2.727,-12.547 4.207,-2.71 9.828,-1.488 12.538,2.727"
         style="fill:#2f62b1;fill-opacity:1;fill-rule:nonzero;stroke:none"
         id="path82" /><path
         d="m 176.814,194.348 c 1.414,4.809 -1.341,9.851 -6.154,11.261 -4.803,1.419 -9.846,-1.336 -11.25,-6.145 -1.415,-4.803 1.331,-9.855 6.143,-11.256 4.804,-1.419 9.847,1.336 11.261,6.14"
         style="fill:#2f62b1;fill-opacity:1;fill-rule:nonzero;stroke:none"
         id="path84" /><path
         d="m 204.515,192.893 c 0,5.001 -4.059,9.064 -9.065,9.064 -5.006,0 -9.075,-4.063 -9.075,-9.064 0,-5.015 4.069,-9.074 9.075,-9.074 5.006,0 9.065,4.059 9.065,9.074"
         style="fill:#2f62b1;fill-opacity:1;fill-rule:nonzero;stroke:none"
         id="path86" /><path
         d="m 237.792,174.827 c -1.13,3.842 -5.163,6.047 -9.001,4.927 -3.848,-1.139 -6.053,-5.175 -4.924,-9.019 1.121,-3.84 5.163,-6.048 9.002,-4.919 3.847,1.138 6.061,5.172 4.923,9.011"
         style="fill:#2f62b1;fill-opacity:1;fill-rule:nonzero;stroke:none"
         id="path88" /><path
         d="m 269.102,191.18 c -2.167,3.365 -6.649,4.344 -10.029,2.181 -3.371,-2.172 -4.345,-6.658 -2.196,-10.025 2.187,-3.376 6.668,-4.353 10.048,-2.191 3.371,2.173 4.345,6.668 2.177,10.035"
         style="fill:#2f62b1;fill-opacity:1;fill-rule:nonzero;stroke:none"
         id="path90" /><path
         d="m 293.478,215.256 c -3.021,2.623 -7.614,2.297 -10.231,-0.733 -2.636,-3.018 -2.305,-7.61 0.725,-10.232 3.031,-2.623 7.623,-2.296 10.241,0.734 2.618,3.017 2.287,7.61 -0.735,10.231"
         style="fill:#2f62b1;fill-opacity:1;fill-rule:nonzero;stroke:none"
         id="path92" /><path
         d="m 311.048,245.329 c -3.655,1.652 -7.962,0.054 -9.625,-3.602 -1.663,-3.637 -0.046,-7.935 3.582,-9.603 3.656,-1.671 7.963,-0.054 9.626,3.578 1.661,3.656 0.055,7.955 -3.583,9.627"
         style="fill:#2f62b1;fill-opacity:1;fill-rule:nonzero;stroke:none"
         id="path94" /><path
         d="m 318.709,279.679 c -3.959,0.569 -7.652,-2.186 -8.211,-6.154 -0.579,-3.968 2.186,-7.642 6.154,-8.211 3.958,-0.569 7.632,2.185 8.211,6.153 0.56,3.969 -2.187,7.643 -6.154,8.212"
         style="fill:#2f62b1;fill-opacity:1;fill-rule:nonzero;stroke:none"
         id="path96" /><path
         d="m 316.652,315.059 c -3.968,-0.57 -6.733,-4.244 -6.154,-8.212 0.559,-3.968 4.252,-6.723 8.211,-6.154 3.967,0.569 6.714,4.244 6.154,8.212 -0.579,3.967 -4.253,6.722 -8.211,6.154"
         style="fill:#2f62b1;fill-opacity:1;fill-rule:nonzero;stroke:none"
         id="path98" /><path
         d="m 305.005,348.252 c -3.628,-1.671 -5.245,-5.97 -3.582,-9.626 1.663,-3.636 5.97,-5.235 9.625,-3.582 3.638,1.672 5.244,5.97 3.583,9.626 -1.663,3.637 -5.97,5.254 -9.626,3.582"
         style="fill:#2f62b1;fill-opacity:1;fill-rule:nonzero;stroke:none"
         id="path100" /><path
         d="m 283.972,377.699 c -3.03,-2.627 -3.361,-7.22 -0.725,-10.232 2.617,-3.032 7.21,-3.362 10.231,-0.735 3.022,2.627 3.353,7.2 0.735,10.231 -2.618,3.032 -7.21,3.344 -10.241,0.736"
         style="fill:#2f62b1;fill-opacity:1;fill-rule:nonzero;stroke:none"
         id="path102" /><path
         d="m 256.877,398.639 c -2.149,-3.361 -1.175,-7.862 2.196,-10.011 3.38,-2.186 7.862,-1.194 10.029,2.168 2.168,3.379 1.194,7.863 -2.177,10.03 -3.38,2.167 -7.861,1.194 -10.048,-2.187"
         style="fill:#2f62b1;fill-opacity:1;fill-rule:nonzero;stroke:none"
         id="path104" /><path
         d="m 223.867,411.242 c -1.129,-3.84 1.076,-7.881 4.924,-9.021 3.838,-1.103 7.871,1.083 9.001,4.942 1.138,3.839 -1.076,7.862 -4.923,9.001 -3.839,1.121 -7.881,-1.085 -9.002,-4.922"
         style="fill:#2f62b1;fill-opacity:1;fill-rule:nonzero;stroke:none"
         id="path106" /><path
         d="m 188.184,414.032 c 0,-4.022 3.252,-7.273 7.266,-7.273 4.005,0 7.256,3.251 7.256,7.273 0,4.006 -3.251,7.238 -7.256,7.238 -4.014,0 -7.266,-3.232 -7.266,-7.238"
         style="fill:#2f62b1;fill-opacity:1;fill-rule:nonzero;stroke:none"
         id="path108" /><path
         d="m 153.109,407.163 c 1.12,-3.859 5.161,-6.045 9.009,-4.942 3.83,1.14 6.035,5.181 4.905,9.021 -1.13,3.837 -5.162,6.043 -9.001,4.922 -3.848,-1.139 -6.044,-5.162 -4.913,-9.001"
         style="fill:#2f62b1;fill-opacity:1;fill-rule:nonzero;stroke:none"
         id="path110" /><path
         d="m 123.405,390.796 c 2.158,-3.362 6.659,-4.354 10.02,-2.168 3.38,2.149 4.354,6.65 2.186,10.011 -2.167,3.381 -6.659,4.354 -10.029,2.187 -3.362,-2.167 -4.345,-6.651 -2.177,-10.03"
         style="fill:#2f62b1;fill-opacity:1;fill-rule:nonzero;stroke:none"
         id="path112" /><path
         d="m 97.413,366.732 c 3.03,-2.627 7.613,-2.297 10.24,0.735 2.618,3.012 2.287,7.605 -0.726,10.232 -3.04,2.608 -7.623,2.296 -10.241,-0.736 -2.627,-3.031 -2.296,-7.604 0.727,-10.231"
         style="fill:#2f62b1;fill-opacity:1;fill-rule:nonzero;stroke:none"
         id="path114" /><path
         d="m 79.86,335.044 c 3.637,-1.653 7.944,-0.054 9.607,3.582 1.662,3.656 0.055,7.955 -3.582,9.626 -3.646,1.672 -7.954,0.055 -9.626,-3.582 -1.662,-3.656 -0.054,-7.954 3.601,-9.626"
         style="fill:#2f62b1;fill-opacity:1;fill-rule:nonzero;stroke:none"
         id="path116" /><path
         d="m 72.181,300.693 c 3.968,-0.569 7.65,2.186 8.221,6.154 0.569,3.968 -2.196,7.642 -6.154,8.212 -3.967,0.568 -7.641,-2.187 -8.211,-6.154 -0.57,-3.968 2.186,-7.643 6.144,-8.212"
         style="fill:#2f62b1;fill-opacity:1;fill-rule:nonzero;stroke:none"
         id="path118" /><path
         d="m 74.248,265.314 c 3.958,0.569 6.723,4.243 6.154,8.211 -0.571,3.968 -4.253,6.723 -8.221,6.154 -3.958,-0.569 -6.714,-4.243 -6.144,-8.212 0.57,-3.968 4.244,-6.722 8.211,-6.153"
         style="fill:#2f62b1;fill-opacity:1;fill-rule:nonzero;stroke:none"
         id="path120" /><path
         d="m 85.885,232.124 c 3.637,1.668 5.244,5.966 3.582,9.603 -1.663,3.656 -5.97,5.254 -9.607,3.602 -3.655,-1.672 -5.263,-5.971 -3.601,-9.627 1.672,-3.632 5.98,-5.249 9.626,-3.578"
         style="fill:#2f62b1;fill-opacity:1;fill-rule:nonzero;stroke:none"
         id="path122" /><path
         d="m 106.927,204.291 c 3.013,2.622 3.344,7.214 0.726,10.232 -2.627,3.03 -7.21,3.356 -10.24,0.733 -3.023,-2.621 -3.354,-7.214 -0.727,-10.231 2.618,-3.03 7.201,-3.357 10.241,-0.734"
         style="fill:#2f62b1;fill-opacity:1;fill-rule:nonzero;stroke:none"
         id="path124" /><path
         d="m 135.611,183.336 c 2.168,3.367 1.194,7.853 -2.186,10.025 -3.361,2.163 -7.862,1.184 -10.02,-2.181 -2.168,-3.367 -1.185,-7.862 2.177,-10.035 3.37,-2.162 7.862,-1.185 10.029,2.191"
         style="fill:#2f62b1;fill-opacity:1;fill-rule:nonzero;stroke:none"
         id="path126" /><path
         d="m 167.023,170.735 c 1.13,3.844 -1.075,7.88 -4.905,9.019 -3.848,1.12 -7.889,-1.085 -9.009,-4.927 -1.131,-3.839 1.065,-7.873 4.913,-9.011 3.839,-1.129 7.871,1.079 9.001,4.919"
         style="fill:#2f62b1;fill-opacity:1;fill-rule:nonzero;stroke:none"
         id="path128" /><path
         d="m 202.706,167.961 c 0,3.994 -3.251,7.251 -7.256,7.251 -4.014,0 -7.266,-3.257 -7.266,-7.251 0,-4.009 3.252,-7.261 7.266,-7.261 4.005,0 7.256,3.252 7.256,7.261"
         style="fill:#2f62b1;fill-opacity:1;fill-rule:nonzero;stroke:none"
         id="path130" /><path
         d="m 241.676,153.408 c -0.844,2.888 -3.866,4.537 -6.759,3.687 -2.875,-0.846 -4.519,-3.876 -3.683,-6.751 0.845,-2.889 3.876,-4.541 6.75,-3.687 2.902,0.845 4.547,3.876 3.692,6.751"
         style="fill:#2f62b1;fill-opacity:1;fill-rule:nonzero;stroke:none"
         id="path132" /><path
         d="m 278.83,170.905 c -1.618,2.52 -4.988,3.251 -7.524,1.634 -2.525,-1.626 -3.251,-4.992 -1.634,-7.522 1.625,-2.53 5.005,-3.266 7.522,-1.64 2.535,1.63 3.269,4.997 1.636,7.528"
         style="fill:#2f62b1;fill-opacity:1;fill-rule:nonzero;stroke:none"
         id="path134" /><path
         d="m 308.376,199.409 c -2.268,1.966 -5.713,1.722 -7.688,-0.546 -1.966,-2.274 -1.708,-5.708 0.562,-7.674 2.267,-1.975 5.711,-1.722 7.677,0.547 1.956,2.277 1.727,5.708 -0.551,7.673"
         style="fill:#2f62b1;fill-opacity:1;fill-rule:nonzero;stroke:none"
         id="path136" /><path
         d="m 329.593,235.629 c -2.737,1.248 -5.97,0.036 -7.219,-2.696 -1.249,-2.718 -0.056,-5.956 2.681,-7.196 2.737,-1.253 5.98,-0.051 7.22,2.686 1.258,2.729 0.056,5.956 -2.682,7.206"
         style="fill:#2f62b1;fill-opacity:1;fill-rule:nonzero;stroke:none"
         id="path138" /><path
         d="m 340.164,275.472 c -2.975,0.423 -5.731,-1.635 -6.163,-4.61 -0.431,-2.977 1.635,-5.732 4.612,-6.172 2.984,-0.424 5.749,1.652 6.163,4.61 0.431,2.976 -1.645,5.75 -4.612,6.172"
         style="fill:#2f62b1;fill-opacity:1;fill-rule:nonzero;stroke:none"
         id="path140" /><path
         d="m 338.613,316.492 c -2.977,-0.442 -5.043,-3.198 -4.612,-6.172 0.432,-2.977 3.188,-5.034 6.163,-4.613 2.967,0.424 5.043,3.179 4.612,6.155 -0.414,2.976 -3.179,5.051 -6.163,4.63"
         style="fill:#2f62b1;fill-opacity:1;fill-rule:nonzero;stroke:none"
         id="path142" /><path
         d="m 325.055,356.243 c -2.737,-1.231 -3.93,-4.464 -2.681,-7.202 1.249,-2.736 4.482,-3.93 7.219,-2.681 2.738,1.23 3.94,4.464 2.682,7.201 -1.24,2.736 -4.483,3.932 -7.22,2.682"
         style="fill:#2f62b1;fill-opacity:1;fill-rule:nonzero;stroke:none"
         id="path144" /><path
         d="m 301.25,389.179 c -2.27,-1.966 -2.528,-5.4 -0.562,-7.66 1.975,-2.278 5.42,-2.535 7.688,-0.551 2.278,1.966 2.507,5.4 0.551,7.678 -1.966,2.26 -5.41,2.498 -7.677,0.533"
         style="fill:#2f62b1;fill-opacity:1;fill-rule:nonzero;stroke:none"
         id="path146" /><path
         d="m 269.672,415.355 c -1.617,-2.534 -0.891,-5.896 1.634,-7.512 2.536,-1.635 5.906,-0.901 7.524,1.634 1.633,2.518 0.899,5.897 -1.636,7.514 -2.517,1.634 -5.897,0.881 -7.522,-1.636"
         style="fill:#2f62b1;fill-opacity:1;fill-rule:nonzero;stroke:none"
         id="path148" /><path
         d="m 231.234,431.631 c -0.836,-2.884 0.808,-5.897 3.683,-6.742 2.893,-0.844 5.915,0.79 6.759,3.692 0.855,2.867 -0.79,5.896 -3.692,6.743 -2.874,0.844 -5.905,-0.808 -6.75,-3.693"
         style="fill:#2f62b1;fill-opacity:1;fill-rule:nonzero;stroke:none"
         id="path150" /><path
         d="m 190.003,435.745 c 0,-3.011 2.444,-5.456 5.447,-5.456 3.003,0 5.437,2.445 5.437,5.456 0,2.996 -2.434,5.438 -5.437,5.438 -3.003,0 -5.447,-2.442 -5.447,-5.438"
         style="fill:#2f62b1;fill-opacity:1;fill-rule:nonzero;stroke:none"
         id="path152" /><path
         d="m 150.022,428.581 c 0.845,-2.902 3.876,-4.536 6.75,-3.692 2.885,0.845 4.529,3.858 3.693,6.742 -0.845,2.885 -3.876,4.537 -6.76,3.693 -2.874,-0.847 -4.538,-3.876 -3.683,-6.743"
         style="fill:#2f62b1;fill-opacity:1;fill-rule:nonzero;stroke:none"
         id="path154" /><path
         d="m 112.061,409.477 c 1.626,-2.535 4.997,-3.269 7.523,-1.634 2.526,1.616 3.261,4.978 1.634,7.512 -1.625,2.517 -4.996,3.27 -7.521,1.636 -2.526,-1.617 -3.252,-4.996 -1.636,-7.514"
         style="fill:#2f62b1;fill-opacity:1;fill-rule:nonzero;stroke:none"
         id="path156" /><path
         d="m 82.514,380.968 c 2.277,-1.984 5.714,-1.727 7.679,0.551 1.975,2.26 1.718,5.694 -0.542,7.66 -2.269,1.965 -5.713,1.727 -7.679,-0.533 -1.965,-2.278 -1.717,-5.712 0.542,-7.678"
         style="fill:#2f62b1;fill-opacity:1;fill-rule:nonzero;stroke:none"
         id="path158" /><path
         d="m 61.306,346.36 c 2.729,-1.249 5.971,-0.055 7.22,2.681 1.24,2.738 0.037,5.971 -2.691,7.202 -2.737,1.25 -5.97,0.054 -7.219,-2.682 -1.249,-2.737 -0.046,-5.971 2.69,-7.201"
         style="fill:#2f62b1;fill-opacity:1;fill-rule:nonzero;stroke:none"
         id="path160" /><path
         d="m 51.535,305.707 c 2.974,-0.421 5.73,1.636 6.163,4.613 0.422,2.974 -1.636,5.73 -4.612,6.172 -2.975,0.421 -5.731,-1.654 -6.162,-4.63 -0.432,-2.976 1.644,-5.731 4.611,-6.155"
         style="fill:#2f62b1;fill-opacity:1;fill-rule:nonzero;stroke:none"
         id="path162" /><path
         d="m 53.086,264.69 c 2.976,0.44 5.034,3.195 4.612,6.172 -0.433,2.975 -3.189,5.033 -6.163,4.61 -2.967,-0.422 -5.043,-3.196 -4.611,-6.172 0.431,-2.958 3.187,-5.034 6.162,-4.61"
         style="fill:#2f62b1;fill-opacity:1;fill-rule:nonzero;stroke:none"
         id="path164" /><path
         d="m 65.835,225.737 c 2.728,1.24 3.931,4.478 2.691,7.196 -1.249,2.732 -4.491,3.944 -7.22,2.696 -2.736,-1.25 -3.939,-4.477 -2.69,-7.206 1.249,-2.737 4.482,-3.939 7.219,-2.686"
         style="fill:#2f62b1;fill-opacity:1;fill-rule:nonzero;stroke:none"
         id="path166" /><path
         d="m 89.651,191.189 c 2.26,1.966 2.517,5.4 0.542,7.674 -1.965,2.268 -5.402,2.512 -7.679,0.546 -2.259,-1.965 -2.507,-5.396 -0.542,-7.673 1.966,-2.269 5.41,-2.522 7.679,-0.547"
         style="fill:#2f62b1;fill-opacity:1;fill-rule:nonzero;stroke:none"
         id="path168" /><path
         d="m 121.218,165.017 c 1.627,2.53 0.892,5.896 -1.634,7.522 -2.526,1.617 -5.897,0.886 -7.523,-1.634 -1.616,-2.531 -0.89,-5.898 1.636,-7.528 2.525,-1.626 5.896,-0.89 7.521,1.64"
         style="fill:#2f62b1;fill-opacity:1;fill-rule:nonzero;stroke:none"
         id="path170" /><path
         d="m 160.465,150.344 c 0.836,2.875 -0.808,5.905 -3.693,6.751 -2.874,0.85 -5.905,-0.799 -6.75,-3.687 -0.855,-2.875 0.809,-5.906 3.683,-6.751 2.884,-0.854 5.915,0.798 6.76,3.687"
         style="fill:#2f62b1;fill-opacity:1;fill-rule:nonzero;stroke:none"
         id="path172" /><path
         d="m 200.887,145.445 c 0,3.008 -2.434,5.436 -5.437,5.436 -3.003,0 -5.447,-2.428 -5.447,-5.436 0,-3.004 2.444,-5.448 5.447,-5.448 3.003,0 5.437,2.444 5.437,5.448"
         style="fill:#2f62b1;fill-opacity:1;fill-rule:nonzero;stroke:none"
         id="path174" /></g></g></svg>