<?xml version="1.0" encoding="UTF-8" standalone="no"?>
<!-- Generator: Adobe Illustrator 19.2.1, SVG Export Plug-In . SVG Version: 6.00 Build 0)  -->

<svg
   xmlns:dc="http://purl.org/dc/elements/1.1/"
   xmlns:cc="http://creativecommons.org/ns#"
   xmlns:rdf="http://www.w3.org/1999/02/22-rdf-syntax-ns#"
   xmlns:svg="http://www.w3.org/2000/svg"
   xmlns="http://www.w3.org/2000/svg"
   xmlns:sodipodi="http://sodipodi.sourceforge.net/DTD/sodipodi-0.dtd"
   xmlns:inkscape="http://www.inkscape.org/namespaces/inkscape"
   version="1.1"
   id="Layer_1"
   inkscape:version="0.91 r13725"
   sodipodi:docname="github.svg"
   x="0px"
   y="0px"
   width="128px"
   height="128px"
   viewBox="0 0 128 128"
   enable-background="new 0 0 128 128"
   xml:space="preserve"><metadata
     id="metadata249"><rdf:RDF><cc:Work
         rdf:about=""><dc:format>image/svg+xml</dc:format><dc:type
           rdf:resource="http://purl.org/dc/dcmitype/StillImage" /></cc:Work></rdf:RDF></metadata><defs
     id="defs247" /><sodipodi:namedview
     pagecolor="#ffffff"
     bordercolor="#666666"
     borderopacity="1"
     objecttolerance="10"
     gridtolerance="10"
     guidetolerance="10"
     inkscape:pageopacity="0"
     inkscape:pageshadow="2"
     inkscape:window-width="966"
     inkscape:window-height="509"
     id="namedview245"
     showgrid="false"
     inkscape:zoom="1.84375"
     inkscape:cx="76.879291"
     inkscape:cy="45.209855"
     inkscape:window-x="0"
     inkscape:window-y="0"
     inkscape:window-maximized="0"
     inkscape:current-layer="Layer_1"
     showguides="false" /><g
     id="g2990"
     transform="matrix(2.9266757,0,0,2.9266757,-6640.1412,-477.24768)"
     display="none"><path
       id="path3"
       inkscape:connector-curvature="0"
       display="inline"
       d="M2301,195.6l-5.7-4.1h7l2.1-6.6l2.2,6.6h3.9   c0.5-1,0.7-2.1,0.7-3.2c0.1-4.1-3.3-7.4-7.4-7.4c0-0.1,0-0.2,0-0.3c0-5.9-4.7-10.6-10.6-10.6c-4.2,0-7.9,2.5-9.6,6   c-0.8-0.3-1.6-0.6-2.5-0.6c-2.7,0-4.9,2-5.4,4.6c-3.2,1.1-5.5,4.2-5.5,7.7c0,4.5,3.7,8.2,8.2,8.2h22.5L2301,195.6L2301,195.6z" /><g
       id="g5"
       transform="translate(0.09999974,-0.1)"
       display="inline"><polygon
         id="polygon7"
         points="2304.5,188.2 2305.9,192.7 2310.6,192.7 2306.8,195.4 2308.3,199.9 2304.5,197.1 2300.7,199.9     2302.2,195.4 2298.3,192.7 2303.1,192.7   " /></g></g><path
     display="none"
     d="M102.2,52.3c0-0.4,0-0.6,0-1c0-17.2-13.8-30.9-30.9-30.9c-12.4,0-22.9,7.2-27.9,17.6c-2.2-1-4.6-1.8-7.2-1.8  c-8,0-14.4,5.8-15.8,13.4C11,52.7,4.3,61.7,4.3,72.1C4.3,85.2,15,96,28.2,96h74l0,0c12,0,21.7-9.8,21.7-21.9  C124.1,62.1,114.4,52.3,102.2,52.3z"
     id="path7" /><path
     display="none"
     d="M101.9,52.4c0-0.4,0-0.6,0-1c0-17-13.7-30.7-30.7-30.7c-12.3,0-22.8,7.1-27.7,17.4c-2.2-1-4.6-1.8-7.1-1.8  c-7.9,0-14.3,5.7-15.6,13.3c-9.3,3.2-16,12.1-16,22.4c0,13.1,10.7,23.8,23.8,23.8h73.4l0,0c11.9,0,21.6-9.7,21.6-21.8  C123.7,62.1,114,52.4,101.9,52.4z M64.3,82c-9.9,0-17.8-7.9-17.8-17.8s7.9-17.8,17.8-17.8v-5.9L79.1,49l-14.8,8.5v-7.3  c-7.7,0-13.9,6.1-13.9,13.9s6.1,13.9,13.9,13.9S78.2,71.8,78.2,64h4C82.1,73.9,74,82,64.3,82z"
     id="path9" /><path
     display="none"
     d="M102.3,52.4c0-0.4,0-0.6,0-1c0-17.1-13.7-30.7-30.7-30.7c-12.3,0-22.8,7.1-27.8,17.4c-2.2-1-4.6-1.8-7.1-1.8  c-7.9,0-14.3,5.7-15.7,13.3C11.6,52.8,4.9,61.7,4.9,72c0,13.1,10.7,23.8,23.8,23.8h16.1h7.7h11.9V61.5L50.1,75.8L47.3,73l19-19  l19,19l-2.8,2.8L68.4,61.5V96h11.9h5.2h16.7l0,0c11.9,0,21.6-9.7,21.6-21.8C124.1,62.1,114.4,52.4,102.3,52.4z"
     id="path11" /><path
     display="none"
     d="M102.4,53.3c0-0.4,0-0.6,0-1c0-17.1-13.7-30.7-30.7-30.7c-12.3,0-22.8,7.1-27.8,17.5c-2.2-1-4.6-1.8-7.1-1.8  c-7.9,0-14.3,5.8-15.7,13.3C11.7,53.7,5,62.6,5,72.9C5,86,15.7,96.7,28.8,96.7h73.6c11.9,0,21.6-9.7,21.6-21.8  C124.2,63,114.5,53.3,102.4,53.3z M83.4,67.3H68.7v14.8h-4.1V67.3H49.9v-4.1h14.7V48.5h4.1v14.8h14.8V67.3z"
     id="path13" /><path
     display="none"
     fill="#050505"
     d="M71.7,25.6c14.7,0,26.7,12.1,26.7,26.7v0.2c0,0.2,0,0.4,0,0.6l-0.2,4h4  c9.7,0,17.8,8.1,17.8,17.8s-7.9,17.8-17.8,17.8h-0.8H28.9C18,92.7,9.1,83.8,9.1,72.9c0-8.5,5.3-16,13.5-18.8l2.2-0.8l0.4-2.4  c1-5.7,5.9-9.9,11.7-9.9c1.8,0,3.6,0.4,5.3,1.2l3.6,1.8l1.8-3.6C51.9,31.5,61.4,25.6,71.7,25.6 M71.7,21.6  C59.4,21.6,48.9,28.7,44,39c-2.2-1-4.6-1.8-7.1-1.8c-7.9,0-14.3,5.7-15.7,13.3c-9.3,3.2-16,12.1-16,22.4c0,13.1,10.7,23.8,23.8,23.8  h73.5l0,0c11.9,0,21.6-9.7,21.6-21.8s-9.7-21.8-21.8-21.8c0-0.4,0-0.6,0-1C102.4,35.3,88.6,21.6,71.7,21.6L71.7,21.6z"
     id="path15" /><g
     display="none"
     id="g17"><path
       display="inline"
       d="M64,54.3c20.1,0,33.9-7.7,33.9-14.6S84.1,25.1,64,25.1s-33.9,7.7-33.9,14.6S43.9,54.3,64,54.3z"
       id="path19" /><path
       display="inline"
       d="M30.1,79.4v5.7v3.2c0,6.9,13.9,14.6,33.9,14.6s33.9-7.7,33.9-14.6v-3.4v-5.8C92.1,85.3,79.2,89.6,64,89.6   S35.8,85.6,30.1,79.4z"
       id="path21" /><path
       display="inline"
       d="M30.1,63.2v3.5v5.5c0,6.9,13.9,14.6,33.9,14.6s33.9-7.7,33.9-14.6v-8.9C92.1,69.5,79.2,73.8,64,73.8   S35.8,69.4,30.1,63.2z"
       id="path23" /><path
       display="inline"
       d="M30.1,47.1V56c0,6.9,13.9,14.6,33.9,14.6S97.9,62.9,97.9,56v-8.9C92.1,53.3,79.2,57.6,64,57.6   S35.8,53.3,30.1,47.1z"
       id="path25" /></g><g
     id="g3"
     transform="matrix(1.0191083,0,0,1.0191083,-0.6114656,0.50955353)"
     display="none"><g
       id="g5_1_"
       display="inline"><polygon
         id="polygon7_1_"
         points="100.2,105 87.4,114.3 92.3,99.4 79.6,90.1 95.4,90.1 100.2,75.1 105.1,90.1 120.9,90.1     108.2,99.4 113.1,114.3   " /></g><g
       id="g9"
       transform="translate(6.0837499e-7,-0.49999939)"
       display="inline"><path
         id="path31"
         inkscape:connector-curvature="0"
         d="M63.2,53.1c19.7,0,33.4-7.6,33.4-14.4S82.9,24.4,63.2,24.4    S29.8,32,29.8,38.8S43.4,53.1,63.2,53.1z" /><path
         id="path33"
         inkscape:connector-curvature="0"
         d="M90.6,86.7l1.9-5.7c-3.9,2.5-9.1,4.5-15.4,5.7    C77.1,86.7,90.6,86.7,90.6,86.7z" /><path
         id="path35"
         inkscape:connector-curvature="0"
         d="M63.2,85.1c14.7,0,26-4.2,30.9-9.1l2.5-7.8v-6.1    c-5.7,6.1-18.4,10.3-33.4,10.3s-27.8-4.5-33.4-10.6v3.5v5.4C29.8,77.5,43.4,85.1,63.2,85.1z" /><path
         id="path17"
         inkscape:connector-curvature="0"
         d="M63.2,69.1c19.7,0,33.4-7.6,33.4-14.4V46c-5.7,6.1-18.4,10.3-33.4,10.3    S35.5,52.1,29.8,46v8.7C29.8,61.5,43.4,69.1,63.2,69.1z" /><path
         id="path38"
         inkscape:connector-curvature="0"
         d="M71.9,87.5c-2.8,0.3-5.7,0.4-8.7,0.4c-15,0-27.7-4.1-33.4-10.2v5.7v3.2    c0,6.8,13.6,14.4,33.4,14.4c8.9,0,16.6-1.6,22.4-3.9C85.5,97.1,71.9,87.5,71.9,87.5z" /></g></g><g
     display="none"
     id="g40"><g
       display="inline"
       id="g42"><path
         d="M97,38.1l-4.4-4.4c-2.7-2.7-6.9-2.7-9.6,0l-1.7,1.7l13.9,13.9l1.7-1.7C99.7,45,99.7,40.7,97,38.1L97,38.1z M97,38.1"
         id="path44" /></g><path
       display="inline"
       d="M78,38.8L39.3,77.5l13.9,13.9L92,52.7l0.2-0.2L78.3,38.5L78,38.8z M78,38.8"
       id="path46" /><path
       display="inline"
       d="M29,101.7l21.2-6.9L35.9,80.5L29,101.7z M45.2,93.6l-6.9,2.3l-3.4-3.4l2.2-6.9L45.2,93.6z M45.2,93.6"
       id="path48" /></g><path
     display="none"
     fill="#050505"
     d="M101.5,98.9L79.1,76.4c4.5-5.5,7.3-12.4,7.3-20C86.3,39,72.3,25,54.9,25S23.5,39,23.5,56.4  s14,31.4,31.4,31.4c7.6,0,14.5-2.6,20-7.3L97.4,103L101.5,98.9z M26.9,56.2c0-15.5,12.6-28.1,28.1-28.1S83,40.7,83,56.2  S70.5,84.3,54.9,84.3S26.9,71.8,26.9,56.2z"
     id="path50" /><g
     display="none"
     id="g52"><polygon
       display="inline"
       fill="#050505"
       points="34.6,62.9 30.7,58.7 64.4,25 98.3,58.7 94.4,62.9 67.1,35.6 67.1,103.2    61.6,103.2 61.6,35.6  "
       id="polygon54" /></g><g
     display="none"
     id="g56"><polygon
       display="inline"
       fill="#050505"
       points="33.5,29.1 29.1,33.5 59.6,64 29.4,94.3 33.7,98.6 64,68.4 94.5,98.9 98.9,94.5    68.4,64 98.9,33.5 94.5,29.1 64,59.6  "
       id="polygon58" /></g><g
     display="none"
     id="g60"><path
       display="inline"
       fill="#050505"
       d="M64,27.9c-20.2,0-36.6,16.4-36.6,36.6s16.4,36.6,36.6,36.6s36.6-16.4,36.6-36.6   S84.2,27.9,64,27.9z M64,98.2c-18.6,0-33.7-15.1-33.7-33.7S45.4,30.8,64,30.8s33.7,15.1,33.7,33.7S82.6,98.2,64,98.2z"
       id="path62" /><polygon
       display="inline"
       fill="#050505"
       points="65.5,42.5 62.5,42.5 62.5,63 42.2,63 42.2,66 62.5,66 62.5,86.5 65.5,86.5    65.5,66 86,66 86,63 65.5,63  "
       id="polygon64" /></g><g
     display="none"
     id="g66"><polygon
       display="inline"
       points="82,56.4 87,61.4 82,67.1 73.4,75.7 47,102.8 42,97.8 77,61.4 42.7,25.6 47.7,20.6 67,41.4  "
       id="polygon68" /></g><g
     display="none"
     id="g70"><path
       display="inline"
       fill="#050505"
       d="M64.1,28.1c-19.7,0-36.4,16.7-36.4,36.4s16.7,36.4,36.4,36.4s36.4-16.7,36.4-36.4   S83.7,28.1,64.1,28.1z M64.1,97.9c-18.7,0-33.4-14.7-33.4-33.4s14.7-33.4,33.4-33.4s33.4,14.7,33.4,33.4S82.8,97.9,64.1,97.9z"
       id="path72" /><path
       display="inline"
       fill="#050505"
       d="M81.8,51.7L59.2,74.3l-8.8-7.9c-1-1-2-1-2.9,0s-1,2,0,2.9l9.8,9.8c0,0,1,1,2,1s1,0,1-1   l24.6-24.6c1-1,1-2,0-2.9C84.7,50.7,82.8,50.7,81.8,51.7z"
       id="path74" /></g><g
     display="none"
     id="g76"><path
       display="inline"
       d="M32.6,39.2h-7.1v56.7c0,4,3.2,7.1,7.1,7.1H89v-7.1H32.6V39.2z M96.1,25H46.6c-3.7,0-6.9,3.2-6.9,7.1v49.5   c0,4,3.2,7.1,7.1,7.1h49.5c4,0,7.1-3.2,7.1-7.1V32.1C103.2,28.2,100.1,25,96.1,25L96.1,25z M89,60.3H74.8v14.2h-7.1V60.3H53.4v-7.1   h14.2v-14h7.1v14.2H89V60.3z"
       id="path78" /></g><g
     display="none"
     id="g80"><polygon
       display="inline"
       points="64.1,52.2 79.1,52.2 64.1,36.8  "
       id="polygon82" /><polygon
       display="inline"
       points="61.1,52.2 61.1,36.8 52.3,36.8 49.2,36.8 44.6,36.8 31.2,36.8 31.2,103.1 79.1,103.1 79.1,99    79.1,90.8 79.1,88.2 79.1,54.8 61.1,54.8  "
       id="polygon84" /><polygon
       display="inline"
       points="82.1,25 82.1,39.9 97,39.9  "
       id="polygon86" /><polygon
       display="inline"
       points="79.1,39.9 79.1,25 70.3,25 67.2,25 62.6,25 49.2,25 49.2,34.3 52.3,34.3 64.1,34.3 65.7,34.3    66.2,34.8 81.1,49.7 82.1,50.7 82.1,52.2 82.1,88.2 82.1,90.8 97,90.8 97,87.2 97,79 97,75.9 97,43 79.1,43  "
       id="polygon88" /></g><g
     display="none"
     id="g90"><path
       display="inline"
       d="M61.5,70.1l43.6,0.5l-2.3-2.3c0,0-18.4-18.4-43.1-0.9l-7.8-11.9c0.9-0.9,1.8-1.8,2.3-3.2   c2.8-5,0.9-11-4.1-13.8s-11-0.9-13.8,4.1s-0.9,11,4.1,13.8c2.8,1.4,6,1.4,8.7,0.5L56,67.4H44c0-3.2-2.3-6.4-5-7.8   c-5-2.8-11-0.9-13.8,4.1s-0.9,11,4.1,13.8s11,0.9,13.8-4.1c0.5-0.9,0.9-1.8,0.9-3.2h13.8C57.3,77.9,58.7,83.5,61,88h-5v2.8h6.9h1.8   h2.8h2.8h6V88h-2.8L61.5,70.1z M41.7,54.5c-3.2-2.3-5-6.4-3.2-10.1c1.8-3.7,6.4-5,10.1-3.2c3.7,1.8,5,6.4,3.2,10.1   S45.4,55.9,41.7,54.5z M40.8,72c-2.3,3.2-6.4,5-10.1,2.8c-3.7-1.8-5-6-3.2-9.6c1.8-3.7,6.4-5,10.1-3.2S42.7,68.3,40.8,72z"
       id="path92" /><rect
       x="44.5"
       y="88"
       display="inline"
       width="8.7"
       height="2.8"
       id="rect94" /><rect
       x="79.4"
       y="88"
       display="inline"
       width="8.7"
       height="2.8"
       id="rect96" /><rect
       x="32.6"
       y="88"
       display="inline"
       width="8.7"
       height="2.8"
       id="rect98" /><rect
       x="91.3"
       y="88"
       display="inline"
       width="8.7"
       height="2.8"
       id="rect100" /></g><g
     display="none"
     id="g102"><path
       display="inline"
       d="M78.4,85.2h9.5L77.2,96.5V86.4C77.2,85.8,77.8,85.2,78.4,85.2L78.4,85.2z M73.7,103H36.2   c-1.2,0-1.8-0.6-1.8-1.8V27c0-1.2,0.6-1.8,1.8-1.8h55.2c1.2,0,2.4,0.6,2.4,1.8v54.7H78.4c-2.4,0-4.8,1.8-4.8,4.8V103z M43.4,36.5   c0,1.2,0.6,1.8,1.8,1.8h33.3c1.2,0,1.8-0.6,1.8-1.8s-0.6-1.8-1.8-1.8H45.1C44.5,34.1,43.4,35.3,43.4,36.5L43.4,36.5z M43.4,47.8   c0,1.2,0.6,1.8,1.8,1.8h33.3c1.2,0,1.8-0.6,1.8-1.8c0-1.2-0.6-1.8-1.8-1.8H45.1C44.5,46,43.4,46.6,43.4,47.8L43.4,47.8z M43.4,59.6   c0,1.2,0.6,1.8,1.8,1.8h27.3c1.2,0,1.8-0.6,1.8-1.8c0-1.2,0-1.8-1.2-1.8H45.1C44.5,57.9,43.4,58.4,43.4,59.6L43.4,59.6z M45.1,73.3   h38c1.2,0,1.8-0.6,1.8-1.8c0-1.2-0.6-1.8-1.8-1.8h-38c-1.2,0-1.8,0.6-1.8,1.8C43.4,72.1,44.5,73.3,45.1,73.3L45.1,73.3z"
       id="path104" /></g><g
     display="none"
     id="g106"><path
       display="inline"
       d="M25.5,57.2v4.9v34.2c0,3.6,2.9,6.5,6.5,6.5H97c3.6,0,6.5-2.9,6.5-6.5v-39H25.5z"
       id="path108" /><path
       display="inline"
       d="M103.5,54v-3.3c0-3.6-2.9-6.5-6.5-6.5H54.7v-1.6c0-3.6-2.9-6.5-6.5-6.5H32c-3.6,0-6.5,2.9-6.5,6.5v8.1V54   H103.5z"
       id="path110" /></g><path
     display="none"
     d="M97.3,53.9H25.5v-3.3v-8.1c0-3.6,2.9-6.5,6.5-6.5h16.3c3.6,0,6.5,2.9,6.5,6.5v1.6h30v3.3  c0,1.4,1.1,2.5,2.5,2.5h10.1V53.9z M99.8,62.5c-1.4,0-2.5-1.1-2.5-2.5v-2.9H25.5V62v34.2c0,3.6,2.9,6.5,6.5,6.5H97  c3.6,0,6.5-2.9,6.5-6.5V62.5H99.8z M119.5,37.6c1.4,0,2.5,1.1,2.5,2.5v5c0,1.4-1.1,2.5-2.5,2.5h-10v10c0,1.4-1.1,2.5-2.5,2.5h-5  c-1.4,0-2.5-1.1-2.5-2.5v-10H89.4c-1.4,0-2.5-1.1-2.5-2.5v-5c0-1.4,1.1-2.5,2.5-2.5h10.1V27.5c0-1.4,1.1-2.5,2.5-2.5h5  c1.4,0,2.5,1.1,2.5,2.5v10.1H119.5L119.5,37.6z M119.5,37.6"
     id="path112" /><path
     display="none"
     d="M48.7,79.6c2.8-1.1,8.4-3.2,13.4-4.7c0.6-0.2,1.3-0.2,1.7-0.6H64c0.4-0.2,1.1-0.2,1.5-0.4s0.4-0.2,0.4-1.9  c0-0.2,0-0.9-0.2-1.1c0-0.2-0.2-0.4-0.2-0.6c0-0.2,0-0.2-0.2-0.2c0-0.2-0.2-0.2-0.2-0.6c-0.2-0.4-0.4-0.9-0.6-1.5  c-0.2-0.2-0.2-0.9-0.4-1.3c0-0.2-0.2-0.2-0.2-0.4c-0.2-0.2-0.2-0.6-0.2-0.9s-0.2-0.2-0.2-0.4c-0.2-0.2-0.2-0.6-0.2-0.9  c-0.2-0.2-0.2-0.6-0.2-1.1c0-0.2,0-0.2-0.2-0.4l0,0l0,0c-0.2-0.2-0.6-0.9-0.9-1.5l-0.2-0.2c0-0.2-0.2-0.2-0.2-0.4  c-0.2-0.2-0.2-0.4-0.2-0.9l0,0C61,59.1,61,58.9,61,58.4l0,0c-0.2-0.2-0.2-0.6-0.2-0.9l0,0c-0.2-0.2-0.2-0.9-0.2-1.3  c0-0.2-0.2-0.6-0.2-0.9v-0.2c0-0.2,0-0.4-0.2-0.6v-0.2c0-0.2,0-0.2,0-0.4c0-0.2,0-0.2,0-0.2c0-0.2,0-0.2,0-0.2c0-0.2,0-0.2,0-0.2V53  c0-0.2,0-0.2,0-0.4l0,0c0-0.2,0-0.2,0.2-0.4l0,0c0-0.2,0-0.2,0.2-0.2v-0.2l0,0l0,0c0,0,0-0.2,0.2-0.2l0,0v-0.2v-0.2  c0-0.9,0-2.8-0.2-4.5l0,0c0-0.2,0-0.6-0.2-0.9c0-0.2,0-0.2,0-0.2c0-0.2-0.2-0.6-0.2-0.9v-0.2c0-0.2,0-0.4-0.2-0.9  c0-1.3,0.2-3.2,0.9-5c0.4-1.3,1.1-2.4,1.9-3.7l0,0c0.2-0.2,0.4-0.6,0.9-0.9c0.2-0.2,0.2-0.2,0.4-0.4s0.2-0.2,0.2-0.2  c0.2-0.2,0.4-0.4,0.9-0.6l0.2-0.2c0.2-0.2,0.6-0.4,1.1-0.6h0.2c0.2-0.2,0.9-0.4,1.3-0.6h0.2c0.4-0.2,0.9-0.2,1.3-0.4  c0.2,0,0.2,0,0.2-0.2c0.4-0.2,0.9-0.2,1.5-0.2c0.2,0,0.2,0,0.2,0c0.6-0.2,1.3-0.2,1.9-0.2h1.5h1.5h0.2c0.2,0,0.9,0.2,1.1,0.2  s0.6,0,0.9,0.2c0.2,0,0.6,0.2,0.9,0.2S80,31,80.2,31c0.2,0.2,0.6,0.2,0.9,0.2c0.2,0.2,0.4,0.2,0.9,0.2c0.2,0.2,0.4,0.2,0.9,0.2  c0.2,0.2,0.4,0.2,0.6,0.2c0.2,0.2,0.4,0.2,0.6,0.4c0.2,0.2,0.2,0.2,0.4,0.2c0.2,0.2,0.4,0.2,0.6,0.4c0.2,0.2,0.2,0.2,0.2,0.2  c0.2,0.2,0.4,0.4,0.6,0.6l0.2,0.2c0.2,0.2,0.4,0.4,0.6,0.9c2.8,3.5,3,7.6,2.8,9.5v0.2c0,0.2-0.2,0.4-0.2,0.9c-0.2,0.9-0.2,2.2-0.2,3  v0.2c0,0.2,0,0.4,0,0.6c0,0.2,0,0.2,0,0.2s0,0.2,0,0.4c0,0.2,0,0.2,0,0.2c0,0.2,0,0.4,0,0.6l0,0c0,0.2,0,0.2,0,0.4l0,0l0,0  c0,0.2,0,0.2,0.2,0.2c0.2,0.6,0.2,1.3,0.4,1.9l0,0c0,0.2,0,0.2,0,0.4c0,0.2,0,0.2,0,0.2c0,0.2,0,0.2,0,0.2c0,0.2,0,0.2,0,0.4  c0,0.2,0,0.2,0,0.2c0,0.2-0.2,0.6-0.2,0.9c-0.6,3-1.5,4.7-2.2,5.8c-0.2,0.2-0.2,0.2-0.2,0.2c-0.2,0.9-0.2,1.7-0.6,2.8  c0,0.2,0,0.2-0.2,0.4s-0.2,0.4-0.2,0.9c0,0.2-0.2,0.4-0.2,0.6c-0.2,0.4-0.2,0.9-0.4,1.1c-0.2,0.2-0.2,0.4-0.2,0.9v0.2  c0,0.2-0.2,0.4-0.2,0.9c0,0.2,0,0.2,0,0.4s0,0.4-0.2,0.9c0,0.4,0,0.9,0,1.5c0,1.3,0,1.5,0.2,1.7l0,0c0,0,0,0,0.2,0h0.2  c0.2,0.2,0.6,0.2,0.9,0.2c2.2,0.6,4.5,1.5,6.7,2.2c0,0,0.2,0,0.2,0.2c0.2,0.2,0.4,0.2,0.9,0.2c0.2,0,0.2,0.2,0.4,0.2  s0.2,0.2,0.4,0.2c0.2,0.2,0.4,0.2,0.6,0.2h0.2c0.2,0.2,0.6,0.2,0.9,0.2H97c1.5,0.4,2.8,0.9,3.9,1.5c0.4,0.2,0.9,0.4,1.5,0.6  c0.2,0.2,0.4,0.2,0.9,0.4c0.2,0,0.2,0.2,0.2,0.2c0.2,0.2,0.2,0.2,0.2,0.2c0.2,0.2,0.2,0.2,0.2,0.2c0.2,0.2,0.2,0.2,0.2,0.2  c0.2,0.2,0.2,0.2,0.2,0.2c0,0.2,0.2,0.2,0.2,0.2c0,0.2,0.2,0.2,0.2,0.2s0,0.2,0.2,0.2c0,0.2,0.2,0.2,0.2,0.4v0.2  c0,0.2,0,0.2,0.2,0.4v0.2c0,0.2,0,0.4,0,0.9c0,1.5,0,6.5,0,7.8v0.2c0,1.1-0.6,3-3,3c0,0,0,0-0.2,0c-2.2,0-16.8,0-23.5,0  c-2.2,0-3.5,0-3.5,0h-0.6c0,0-1.3,0-3.5,0c-6.7,0-21.4,0-23.5,0h-0.2c-2.2,0-3-1.5-3-2.8v-0.2v-7.8C45,82.8,46.1,80.4,48.7,79.6z   M22.6,76.1c2.8-1.1,9.7-3.5,13.6-4.7c0.2-0.2,0.4-0.2,0.4-1.5c0-1.3-0.4-2.4-0.9-3.5s-1.1-3-1.5-4.7c-0.6-0.9-1.5-2.2-2.2-5  c-0.4-2.4-0.2-3.5,0-4.1c0-0.2,0-0.2,0.2-0.2c0.2-0.6,0-3.5-0.4-5.8c-0.2-1.5,0-5,2.2-7.8c1.5-1.7,4.1-3.9,8.8-4.1h2.6  c4.7,0.2,7.3,2.4,8.6,4.1c2.2,2.8,2.6,6,2.2,7.8c-0.4,2.2-0.6,5.2-0.4,5.8c0,0.2,0,0.2,0.2,0.2c0.2,0.9,0.4,1.7,0,4.1  c-0.4,2.8-1.5,4.1-2.2,5c-0.2,1.7-0.9,3.5-1.5,4.7c-0.2,0.9-0.6,1.9-0.6,3.5c0,1.5,0,1.5,0.2,1.5c1.5,0.4,3,0.9,4.7,1.5  c-3.9,1.3-7.8,2.8-9.7,3.5c-3.9,1.5-5.6,5.2-5.6,7.8v4.7c-0.2,0-0.4,0-0.9,0c-5.4,0-17.7,0-19,0c-1.9,0-2.6-1.5-2.6-2.6s0-5.2,0-6.5  C19.3,78.7,20.4,77,22.6,76.1z"
     id="path114" /><path
     id="path3_1_"
     display="none"
     d="M86.5,37.2H42.4l-17.3,19v34.6h77.8V56.2L86.5,37.2z M44.1,40.7h41.5l13.8,15.6H75.2  c0,6-5.2,10.4-11.2,10.4s-10.4-4.3-10.4-10.4H29.4L44.1,40.7z" /><path
     display="none"
     d="M48.8,79.4c2.8-1,8.4-3.2,13.4-4.7c0.7-0.2,1.3-0.2,1.7-0.7h0.2c0.5-0.2,1-0.2,1.5-0.5  c0.5-0.2,0.5-0.2,0.5-1.9c0-0.2,0-0.9-0.2-1c0-0.2-0.2-0.5-0.2-0.7c0-0.2,0-0.2-0.2-0.2c0-0.2-0.2-0.2-0.2-0.7  c-0.2-0.5-0.5-0.9-0.7-1.5c-0.2-0.2-0.2-0.9-0.5-1.3c0-0.2-0.2-0.2-0.2-0.5c-0.3-0.1-0.3-0.6-0.3-0.8c0-0.2-0.2-0.2-0.2-0.5  c-0.2-0.2-0.2-0.7-0.2-0.9c-0.2-0.2-0.2-0.7-0.2-1c0-0.2,0-0.2-0.2-0.5l0,0l0,0c-0.2-0.2-0.7-0.9-0.9-1.5l-0.3-0.2  c0-0.2-0.2-0.2-0.2-0.5c-0.2-0.2-0.2-0.5-0.2-0.9l0,0c-0.2-0.2-0.2-0.5-0.2-0.9l0,0C61,58.1,61,57.6,61,57.4l0,0  c-0.2-0.2-0.2-0.9-0.2-1.3c0-0.2-0.2-0.7-0.2-0.9V55c0-0.2,0-0.5-0.2-0.7v-0.2c0-0.2,0-0.2,0-0.5c0-0.2,0-0.2,0-0.2  c0-0.2,0-0.2,0-0.2c0-0.2,0-0.2,0-0.2v-0.2c0-0.2,0-0.2,0-0.5l0,0c0-0.2,0-0.2,0.2-0.5l0,0c0-0.2,0-0.2,0.2-0.2v-0.2l0,0l0,0  c0,0,0-0.2,0.2-0.2l0,0v-0.2V51c0-0.9,0-2.8-0.2-4.6l0,0c0-0.2,0-0.7-0.2-0.9c0-0.2,0-0.2,0-0.2c0-0.2-0.2-0.7-0.2-0.9v-0.2  c0-0.2,0-0.5-0.2-0.9c0-1.3,0.2-3.2,0.9-4.9c0.5-1.3,1-2.4,1.9-3.7l0,0c0.2-0.2,0.5-0.7,0.9-0.9c0.2-0.2,0.2-0.2,0.5-0.5  c0.2-0.2,0.2-0.2,0.2-0.2c0.2-0.2,0.5-0.5,0.9-0.7l0.2-0.2c0.2-0.2,0.7-0.5,1-0.7h0.2c0.2-0.2,0.9-0.5,1.3-0.7h0.2  c0.5-0.2,0.9-0.2,1.3-0.5c0.2,0,0.2,0,0.2-0.2c0.5-0.2,0.9-0.2,1.5-0.2c0.2,0,0.2,0,0.2,0c0.7-0.2,1.3-0.2,1.9-0.2H75h1.5h0.2  c0.2,0,0.9,0.2,1,0.2c0.2,0,0.7,0,0.9,0.2c0.2,0,0.7,0.2,0.9,0.2s0.7,0.2,0.9,0.2c0.2,0.2,0.7,0.2,0.9,0.2c0.2,0.2,0.5,0.2,0.9,0.2  c0.2,0.2,0.5,0.2,0.9,0.2c0.2,0.2,0.5,0.2,0.7,0.2c0.2,0.2,0.5,0.2,0.7,0.5c0.2,0.2,0.2,0.2,0.5,0.2c0.2,0.2,0.5,0.2,0.7,0.5  c0.2,0.2,0.2,0.2,0.2,0.2c0.2,0.2,0.5,0.5,0.7,0.7l0.2,0.2c0.2,0.2,0.5,0.5,0.7,0.9c2.8,3.4,3,7.6,2.8,9.5v0.2  c0,0.2-0.2,0.5-0.2,0.9c-0.2,0.9-0.2,2.2-0.2,3v0.2c0,0.2,0,0.5,0,0.7c0,0.2,0,0.2,0,0.2s0,0.2,0,0.5c0,0.2,0,0.2,0,0.2  c0,0.2,0,0.5,0,0.7l0,0c0,0.2,0,0.2,0,0.5l0,0l0,0c0,0.2,0,0.2,0.2,0.2c0.2,0.7,0.2,1.3,0.5,1.9l0,0c0,0.2,0,0.2,0,0.5  c0,0.2,0,0.2,0,0.2c0,0.2,0,0.2,0,0.2c0,0.2,0,0.2,0,0.5s0,0.2,0,0.2c0,0.2-0.2,0.7-0.2,0.9c-0.7,3-1.5,4.7-2.2,5.8  c-0.4,0.4-0.4,0.4-0.4,0.4c-0.2,0.9-0.2,1.7-0.7,2.8c0,0.2,0,0.2-0.2,0.5c-0.2,0.2-0.2,0.5-0.2,0.9c0,0.2-0.2,0.5-0.2,0.7  c-0.2,0.5-0.2,0.9-0.5,1c-0.2,0.2-0.2,0.4-0.2,0.8v0.2c0,0.2-0.2,0.5-0.2,0.9c0,0.2,0,0.2,0,0.5c0,0.2,0,0.5-0.2,0.9  c0,0.5,0,0.9,0,1.5c0,1.3,0,1.5,0.2,1.7l0,0c0,0,0,0,0.2,0h0.2c0.2,0.2,0.7,0.2,0.9,0.2c2.2,0.7,4.6,1.5,6.6,2.2c0,0,0.2,0,0.2,0.2  c0.2,0.2,0.5,0.2,0.9,0.2c0.2,0,0.2,0.2,0.5,0.2s0.3,0.4,0.5,0.4c0.2,0.2,0.5,0.2,0.7,0.2h0.2c0.2,0.2,0.7,0.2,0.9,0.2h0.2  c1.5,0.5,2.8,0.9,3.9,1.5c0.5,0.2,0.9,0.5,1.5,0.7c0.2,0.2,0.5,0.2,0.9,0.5c0.2,0,0.2,0.2,0.2,0.2c0.2,0.2,0.2,0.2,0.2,0.2  c0.2,0.2,0.2,0.2,0.2,0.2c0.2,0.2,0.2,0.2,0.2,0.2c0.2,0.2,0.2,0.2,0.2,0.2c0,0.2,0.2,0.2,0.2,0.2c0,0.2,0.2,0.2,0.2,0.2  s0,0.2,0.2,0.2c0,0.2,0.2,0.2,0.2,0.5v0.2c0,0.2,0,0.2,0.2,0.5v0.2c0,0.2,0,0.5,0,0.9c0,1.5,0,6.5,0,7.8V92c0,1-0.7,3-3,3  c0,0,0,0-0.2,0c-2.2,0-16.8,0-23.5,0c-2.2,0-3.4,0-3.4,0h-0.7c0,0-1.3,0-3.4,0c-6.6,0-21.3,0-23.5,0h0.1c-2.2,0-3-1.5-3-2.8V92v-7.8  C45.2,82.7,46.2,80.4,48.8,79.4z M22.7,76c2.8-1,9.7-3.4,13.6-4.7c0.2-0.2,0.5-0.2,0.5-1.5s-0.5-2.4-0.9-3.4c-0.4-1-1-3-1.5-4.7  c-0.7-0.9-1.5-2.2-2.2-4.9c-0.5-2.4-0.2-3.4,0-4.1c0-0.2,0-0.2,0.2-0.2c0.2-0.7,0-3.4-0.5-5.8c-0.2-1.5,0-4.9,2.2-7.8  c1.5-1.7,4.1-3.9,8.8-4.1h2.6c4.7,0.2,7.3,2.4,8.6,4.1c2.2,2.8,2.6,6.1,2.2,7.8c-0.5,2.2-0.7,5.2-0.5,5.8c0,0.2,0,0.2,0.2,0.2  c0.2,0.9,0.5,1.7,0,4.1c-0.5,2.8-1.5,4.1-2.2,4.9c-0.2,1.7-0.9,3.4-1.5,4.7c-0.2,0.9-0.7,1.9-0.7,3.4s0,1.5,0.2,1.5  c1.5,0.5,3,0.9,4.7,1.5c-3.9,1.3-7.8,2.8-9.7,3.4c-3.9,1.5-5.6,5.2-5.6,7.8v4.7c-0.2,0-0.5,0-0.9,0c-5.4,0-17.6,0-19,0  c-1.9,0-2.6-1.5-2.6-2.6s0-5.2,0-6.5C19.5,78.6,20.5,76.9,22.7,76z M123.6,53.2c1,0,1.9,0.9,1.9,1.9v3.8c0,1-0.9,1.9-1.9,1.9h-7.5  v7.5c0,1-0.9,1.9-1.9,1.9h-3.8c-1,0-1.9-0.9-1.9-1.9v-7.5H101c-1,0-1.9-0.9-1.9-1.9v-3.8c0-1,0.9-1.9,1.9-1.9h7.5v-7.5  c0-1,0.9-1.9,1.9-1.9h3.8c1,0,1.9,0.9,1.9,1.9v7.5H123.6L123.6,53.2z"
     id="path117" /><g
     id="g5_2_"
     transform="translate(-0.20000019,0)"
     display="none"><path
       id="path120"
       inkscape:connector-curvature="0"
       display="inline"
       d="M58.4,59.1c-2.5,0-3.8,2.5-3.8,5.5c0,3,1.7,5.5,3.8,5.5   c2.5,0,3.8-2.5,3.8-5.5C62.2,61.7,60.9,59.1,58.4,59.1z" /><path
       id="path122"
       inkscape:connector-curvature="0"
       display="inline"
       d="M64.3,28.1c-20,0-36.1,16.1-36.1,36.5s16.1,36.5,36.5,36.5   s36.5-16.1,36.5-36.5C101.3,44.3,84.7,28.1,64.3,28.1z M48.2,66.8c0,4.7-2.1,6.4-5.9,6.4c-0.8,0-2.1,0-2.5-0.4l0.4-3.4   c0.4,0,1.3,0.4,1.7,0.4c1.7,0,2.5-0.8,2.5-3.4V56.2h3.8V66.8z M58.4,72.7c-4.7,0-7.6-3.8-7.6-8.1c0-4.7,3-8.5,8.1-8.5   s7.6,3.8,7.6,8.1C66.4,69.7,63,72.7,58.4,72.7z M72.4,72.7h-3.8V56.2h3.8C72.4,56.2,72.4,72.7,72.4,72.7z M88.9,72.7h-3.8l-3.4-6.4   c-0.8-1.7-2.1-3.8-3-5.9l0,0c0,2.1,0,4.2,0,7.2v5.1h-3.4V56.2h4.2l3.4,5.9c0.8,1.7,2.1,3.8,2.5,5.5l0,0c-0.4-2.1-0.4-4.2-0.4-6.8   v-4.7h3.4v16.6H88.9z" /></g><path
     display="none"
     d="M82.3,63.3V46.4c0-10.1-8.2-18.3-18.3-18.3s-18.3,8.2-18.3,18.3v16.9h-9.8v38h56.2v-38H82.3z M48.5,46.4  c0-8.6,6.9-15.5,15.5-15.5s15.5,6.9,15.5,15.5v16.9H48.5V46.4z"
     id="path124" /><g
     display="none"
     id="g126"><path
       display="inline"
       d="M100.3,49.1V37H29.6v54.2h10.5v12h70.7V49.1H100.3z M32.6,88.2V40h64.7v9H40.1v39.1H32.6z M107.8,100.2   H43.1V52.1h64.7V100.2z"
       id="path128" /><g
       display="inline"
       id="g130"><polygon
         points="29.8,79.2 18.2,79.2 18.2,25 88.9,25 88.9,37 85.9,37 85.9,28 21.2,28 21.2,76.2 29.8,76.2   "
         id="polygon132" /></g></g><g
     display="none"
     id="g134"><g
       display="inline"
       id="g136"><path
         d="M52.9,102.1c-1.4,0-2.5-1.1-2.4-2.5l0.1-29.3c0-2.4-2.3-4.4-4.9-4.4c-2.6,0-4.9,2-4.9,4.4l-0.1,29.3    c0,1.4-1.1,2.5-2.5,2.4c-1.4,0-2.5-1.1-2.4-2.5l0.1-29.3c0-5.1,4.5-9.3,9.9-9.3c5.3,0,9.8,4.3,9.8,9.4l-0.1,29.3    C55.4,101,54.3,102.1,52.9,102.1z"
         id="path138" /></g><g
       display="inline"
       id="g140"><path
         d="M75.1,102.2c-1.4,0-2.5-1.1-2.4-2.5l0.2-42.8c0-2.4-2.3-4.4-4.9-4.4c-2.6,0-4.9,2-4.9,4.4l-0.2,42.8    c0,1.4-1.1,2.5-2.5,2.4c-1.4,0-2.5-1.1-2.4-2.5L58,56.9c0-5.1,4.5-9.3,9.9-9.3c5.3,0,9.8,4.3,9.8,9.4l-0.2,42.8    C77.5,101.1,76.4,102.2,75.1,102.2z"
         id="path142" /></g><g
       display="inline"
       id="g144"><path
         d="M97.2,102.3c-1.4,0-2.5-1.1-2.4-2.5L95,43.5c0-2.4-2.3-4.4-4.9-4.4c-2.6,0-4.9,2-4.9,4.4l-0.2,56.3c0,1.4-1.1,2.5-2.5,2.4    c-1.4,0-2.5-1.1-2.4-2.5l0.2-56.3c0-5.1,4.5-9.3,9.9-9.3c5.3,0,9.8,4.3,9.8,9.4l-0.2,56.3C99.6,101.2,98.5,102.3,97.2,102.3z"
         id="path146" /></g><g
       display="inline"
       id="g148"><path
         d="M100.8,103.6l-73.7-0.3c-1.4,0-2.5-1.1-2.4-2.5L25,27.1c0-1.4,1.1-2.5,2.5-2.4c1.4,0,2.5,1.1,2.4,2.5l-0.3,71.3l71.3,0.3    c1.4,0,2.5,1.1,2.4,2.5C103.3,102.5,102.2,103.6,100.8,103.6z"
         id="path150" /></g><g
       display="inline"
       id="g152"><path
         d="M32.2,61.5l-4.9,0c-0.7,0-1.2-0.6-1.2-1.2s0.6-1.2,1.2-1.2l4.9,0c0.7,0,1.2,0.6,1.2,1.2C33.5,60.9,32.9,61.5,32.2,61.5z"
         id="path154" /></g><g
       display="inline"
       id="g156"><path
         d="M32.3,49.2l-4.9,0c-0.7,0-1.2-0.6-1.2-1.2s0.6-1.2,1.2-1.2l4.9,0c0.7,0,1.2,0.6,1.2,1.2C33.5,48.7,33,49.2,32.3,49.2z"
         id="path158" /></g><g
       display="inline"
       id="g160"><path
         d="M32.3,36.9l-4.9,0c-0.7,0-1.2-0.6-1.2-1.2c0-0.7,0.6-1.2,1.2-1.2l4.9,0c0.7,0,1.2,0.6,1.2,1.2    C33.6,36.4,33,36.9,32.3,36.9z"
         id="path162" /></g><g
       display="inline"
       id="g164"><path
         d="M32.1,93.4l-4.9,0c-0.7,0-1.2-0.6-1.2-1.2c0-0.7,0.6-1.2,1.2-1.2l4.9,0c0.7,0,1.2,0.6,1.2,1.2    C33.3,92.9,32.8,93.4,32.1,93.4z"
         id="path166" /></g><g
       display="inline"
       id="g168"><path
         d="M32.1,81.1l-4.9,0c-0.7,0-1.2-0.6-1.2-1.2c0-0.7,0.6-1.2,1.2-1.2l4.9,0c0.7,0,1.2,0.6,1.2,1.2    C33.4,80.6,32.8,81.2,32.1,81.1z"
         id="path170" /></g><g
       display="inline"
       id="g172"><path
         d="M32.2,71.3l-4.9,0c-0.7,0-1.2-0.6-1.2-1.2c0-0.7,0.6-1.2,1.2-1.2l4.9,0c0.7,0,1.2,0.6,1.2,1.2    C33.4,70.8,32.9,71.3,32.2,71.3z"
         id="path174" /></g><g
       display="inline"
       id="g176"><path
         d="M91.2,66.7c-0.7,0-1.2-0.6-1.2-1.2L90,48.2c0-0.7,0.6-1.2,1.2-1.2c0.7,0,1.2,0.6,1.2,1.2l-0.1,17.2    C92.4,66.1,91.9,66.7,91.2,66.7z"
         id="path178" /></g><g
       display="inline"
       id="g180"><path
         d="M69,76.4c-0.7,0-1.2-0.6-1.2-1.2l0.1-12.3c0-0.7,0.6-1.2,1.2-1.2c0.7,0,1.2,0.6,1.2,1.2l-0.1,12.3    C70.2,75.8,69.7,76.4,69,76.4z"
         id="path182" /></g><g
       display="inline"
       id="g184"><path
         d="M46.9,83.7c-0.7,0-1.2-0.6-1.2-1.2l0-8.6c0-0.7,0.6-1.2,1.2-1.2c0.7,0,1.2,0.6,1.2,1.2l0,8.6    C48.1,83.1,47.6,83.7,46.9,83.7z"
         id="path186" /></g></g><path
     display="none"
     fill="#050505"
     d="M88.4,70.6v-8.1H65.6v-4.9h14.7V25H47.7v32.6h14.7v4.9H39.6v8.1H24.9v32.6h32.6V70.6H42.8  v-4.9h42.4v4.9H70.5v32.6h32.6V70.6H88.4z M51,28.3H77v26.1H51V28.3z M54.2,100H28.2V73.9h26.1V100z M99.8,100H73.8V73.9h26.1V100z"
     id="path188" /><g
     display="none"
     id="g190"><polygon
       display="inline"
       fill="#12100B"
       points="69.7,75.6 69.7,75.6 69.7,75.6  "
       id="polygon192" /><path
       display="inline"
       fill="#12100B"
       d="M98.4,30c-6.6-6.6-17.4-6.6-24,0L60.3,44.1c-0.9,0.9-0.9,2.4,0,3.3s2.4,0.9,3.3,0   l14.1-14.1c4.8-4.8,12.6-4.8,17.5,0c4.8,4.8,4.8,12.6,0,17.5L78.4,67.4c-4.8,4.8-12.6,4.8-17.5,0c-0.9-0.9-2.4-0.9-3.3,0   c-0.9,0.9-0.9,2.4,0,3.3c3.3,3.3,7.6,5,12,5c4.3,0,8.7-1.7,12-5l16.7-16.7C105,47.3,105,36.6,98.4,30z"
       id="path194" /><polygon
       display="inline"
       fill="#12100B"
       points="42.1,103.2 42,103.2 42,103.2  "
       id="polygon196" /><path
       display="inline"
       fill="#12100B"
       d="M64.9,80.9L50.8,95c-4.8,4.8-12.6,4.8-17.5,0c-4.8-4.8-4.8-12.6,0-17.5l16.7-16.7   c4.8-4.8,12.6-4.8,17.5,0c0.9,0.9,2.4,0.9,3.3,0c0.9-0.9,0.9-2.4,0-3.3c-6.6-6.6-17.4-6.6-24,0L30.1,74.3c-6.6,6.6-6.6,17.4,0,24   c3.3,3.3,7.6,5,12,5c4.3,0,8.7-1.7,12-5l14.1-14.1c0.9-0.9,0.9-2.4,0-3.3C67.2,80,65.8,80,64.9,80.9z"
       id="path198" /></g><g
     display="none"
     id="g200"><path
       display="inline"
       fill="#050505"
       d="M64,25c-21.6,0-39,17.4-39,39s17.4,39,39,39s39-17.4,39-39C103,42.4,85.6,25,64,25z    M64,99.8c-19.7,0-35.8-16.1-35.8-35.8S44.3,28.2,64,28.2S99.8,44.3,99.8,64C99.8,83.7,83.7,99.8,64,99.8z"
       id="path202" /><polygon
       display="inline"
       fill="#050505"
       points="64,67.2 44.5,67.2 44.5,70.5 67.2,70.5 67.2,38 64,38  "
       id="polygon204" /></g><g
     display="none"
     id="g206"><g
       display="inline"
       id="g208"><g
         id="g210"><path
           d="M103.5,48.7v33.4h-78V48.7H103.5 M103.5,43.1h-78c-3.1,0-5.5,2.3-5.5,5.3v33.4c0,3.1,2.5,5.8,5.5,5.8h78     c3.1,0,5.6-2.7,5.6-5.8V48.4C109.1,45.4,106.5,43.1,103.5,43.1L103.5,43.1z"
           id="path212" /></g><g
         id="g214"><path
           d="M96.5,38.9c-1.5,0-2.8-1.2-2.8-2.8v-5.6H35.3v5.6c0,1.5-1.2,2.8-2.8,2.8c-1.5,0-2.8-1.2-2.8-2.8v-8.4     c0-1.5,1.2-2.8,2.8-2.8h64c1.5,0,2.8,1.2,2.8,2.8v8.4C99.3,37.7,98.1,38.9,96.5,38.9z"
           id="path216" /></g><g
         id="g218"><path
           d="M96.5,103h-64c-1.5,0-2.8-1.2-2.8-2.8v-8.4c0-1.5,1.2-2.8,2.8-2.8c1.5,0,2.8,1.2,2.8,2.8v5.6h58.5v-5.6     c0-1.5,1.2-2.8,2.8-2.8c1.5,0,2.8,1.2,2.8,2.8v8.4C99.3,101.7,98.1,103,96.5,103z"
           id="path220" /></g></g><g
       display="inline"
       id="g222"><path
         d="M39.5,71.2l-0.2-1.4h-0.1c-0.6,0.8-1.8,1.6-3.3,1.6c-2.2,0-3.3-1.5-3.3-3.1c0-2.6,2.3-4,6.5-4v-0.2c0-0.9-0.2-2.5-2.5-2.5    c-1,0-2.1,0.3-2.8,0.8l-0.4-1.3c0.9-0.6,2.2-1,3.5-1c3.3,0,4.1,2.3,4.1,4.4v4c0,0.9,0,1.8,0.2,2.6H39.5z M39.3,65.7    c-2.1,0-4.6,0.3-4.6,2.4c0,1.3,0.8,1.9,1.8,1.9c1.4,0,2.3-0.9,2.6-1.8c0.1-0.2,0.1-0.4,0.1-0.6V65.7z"
         id="path224" /><path
         d="M43.7,71.2V70l1.5-1.5c3.7-3.5,5.4-5.4,5.4-7.6c0-1.5-0.7-2.8-2.9-2.8c-1.3,0-2.4,0.7-3.1,1.2L44,58    c1-0.8,2.4-1.5,4.1-1.5c3.1,0,4.4,2.1,4.4,4.2c0,2.7-1.9,4.8-5,7.8l-1.2,1.1v0h6.5v1.6H43.7z"
         id="path226" /><path
         d="M55.6,69c0.6,0.4,1.8,0.9,3.2,0.9c2.5,0,3.3-1.6,3.3-2.8c0-2-1.8-2.9-3.7-2.9h-1.1v-1.5h1.1c1.4,0,3.2-0.7,3.2-2.5    c0-1.2-0.7-2.2-2.5-2.2c-1.2,0-2.3,0.5-2.9,1l-0.5-1.4c0.8-0.6,2.2-1.1,3.8-1.1c2.9,0,4.1,1.7,4.1,3.5c0,1.5-0.9,2.8-2.7,3.4v0    c1.8,0.4,3.2,1.7,3.2,3.7c0,2.3-1.8,4.3-5.3,4.3c-1.6,0-3.1-0.5-3.8-1L55.6,69z"
         id="path228" /><path
         d="M68.3,66.2c0,2.7,1.7,3.7,3.7,3.7c1.4,0,2.3-0.2,3-0.6l0.3,1.4c-0.7,0.3-1.9,0.7-3.6,0.7c-3.3,0-5.3-2.2-5.3-5.4    s1.9-5.8,5.1-5.8c3.5,0,4.5,3.1,4.5,5.1c0,0.4,0,0.7-0.1,0.9H68.3z M74,64.8c0-1.2-0.5-3.2-2.7-3.2c-2,0-2.9,1.8-3,3.2H74z"
         id="path230" /></g></g><path
     display="none"
     fill="#050505"
     d="M78,34.1v-3c0-3.3-2.7-6.1-6.1-6.1H56.4c-3.3,0-6.1,2.7-6.1,6.1v3H34.5v3h3.3l3,59.2  c0,3.3,2.7,6.1,6.1,6.1h34.3c3.3,0,6.1-2.7,6.1-6.1l3-59.2h3v-3H78z M53.1,31.1c0-1.8,1.5-3,3-3h15.5c1.8,0,3,1.5,3,3v3H53.1V31.1z   M53.4,93l-3-49.5l3-0.3l3,49.5L53.4,93z M65.5,93h-3V43.2h3V93z M74.9,93l-3-0.3l3-49.8l3,0.3L74.9,93z"
     id="path232" /><path
     display="none"
     d="M92.9,25c-6.6,0-12,5.4-12,12c0,1.2,0.1,2.3,0.5,3.3L46.2,55c-2.1-3.6-6-6-10.4-6c-6.6,0-12,5.4-12,12  s5.4,12,12,12c3.5,0,6.6-1.5,8.9-3.9l22.7,16.2C66.5,87,66,88.9,66,90.9c0,6.6,5.4,12,12,12s12-5.4,12-12s-5.4-12-12-12  c-3.5,0-6.8,1.5-8.9,3.9L46.6,66.6c0.9-1.7,1.5-3.6,1.5-5.7c0-1.1-0.1-2.3-0.5-3.2L82.8,43c2.1,3.6,6,6,10.4,6c6.6,0,12-5.4,12-12  C104.9,30.4,99.5,25,92.9,25z"
     id="path234" /><g
     id="g7"
     transform="matrix(1.9819277,0,0,1.9819277,-16.449999,-16.449999)"
     display="none"><polygon
       id="polygon9"
       display="inline"
       points="28.1,36 19.4,42.9 31.9,51.1 40.6,43.7  " /><polygon
       id="polygon11"
       display="inline"
       points="40.6,28.1 31.9,20.9 19.4,29.1 28.1,36  " /><polygon
       id="polygon13"
       display="inline"
       points="53.4,36 61.8,29.1 49.5,20.9 40.6,28.1  " /><polygon
       id="polygon15"
       display="inline"
       points="53.4,36 40.6,43.7 49.5,51.1 61.8,42.9  " /><polygon
       id="polygon17"
       display="inline"
       points="28.3,52.9 40.8,60.3 53.1,52.9 53.1,50 49.5,52.6 40.8,45.2 31.9,52.6 28.3,50     " /></g><path
     id="path7_1_"
     inkscape:connector-curvature="0"
     display="none"
     d="M46.2,50.8h8v-8c0-3.3,0-8.9,2.3-12.2  c2.8-3.3,6.1-5.6,12.2-5.6c9.9,0,14.6,1.4,14.6,1.4l-1.9,12.2c0,0-3.3-0.9-6.6-0.9s-6.1,0.9-6.1,4.2v8.9h12.7l-0.9,11.7H68.7V103  h-15V62.6h-8V50.8L46.2,50.8z" /><g
     id="g7_1_"
     transform="matrix(1.5291108,0,0,1.5291108,0.86023729,0.92952578)"
     style="fill:#ffffff"><path
       id="path9_1_"
       inkscape:connector-curvature="0"
       d="m 49.7,45 c -1.9,0 -3.3,2.2 -3.3,4.7 0,2.5 1.4,4.7 3.3,4.7 1.9,0 3.3,-2.2 3.3,-4.7 C 53.3,47 51.6,45 49.7,45 l 0,0 z M 61.6,32.8 c 0.3,-0.8 0.3,-6.4 -1.7,-11.7 0,0 -4.7,0.6 -11.9,5.3 -1.4,-0.3 -4.2,-0.6 -6.7,-0.6 -2.5,0 -5,0.3 -6.7,0.6 -7.2,-5 -11.9,-5.3 -11.9,-5.3 -1.7,5.3 -1.7,10.8 -1.4,11.7 -2.5,2.5 -3.9,5.8 -3.9,10 0,18.6 15.5,18.9 19.4,18.9 0.8,0 2.8,0 4.4,0 1.9,0 3.6,0 4.4,0 3.9,0 19.4,-0.3 19.4,-18.9 0.5,-4.2 -0.9,-7.5 -3.4,-10 l 0,0 z m -20,26.7 0,0 c -10,0 -17.5,-1.1 -17.5,-10.8 0,-2.2 0.8,-4.4 2.8,-6.1 3.3,-3.1 8.6,-1.4 14.7,-1.4 l 0,0 0,0 c 6.1,0 11.7,-1.7 14.7,1.4 1.9,1.7 2.8,3.9 2.8,6.1 0,9.7 -7.8,10.8 -17.5,10.8 l 0,0 z M 33.3,45 c -1.9,0 -3.3,2.2 -3.3,4.7 0,2.5 1.4,4.7 3.3,4.7 1.9,0 3.3,-2.2 3.3,-4.7 C 36.6,47 35.2,45 33.3,45 l 0,0 z"
       style="fill:#ffffff" /></g></svg>