<?xml version="1.0" encoding="UTF-8" standalone="no"?>
<!-- Created with Inkscape (http://www.inkscape.org/) -->

<svg
   xmlns:dc="http://purl.org/dc/elements/1.1/"
   xmlns:cc="http://creativecommons.org/ns#"
   xmlns:rdf="http://www.w3.org/1999/02/22-rdf-syntax-ns#"
   xmlns:svg="http://www.w3.org/2000/svg"
   xmlns="http://www.w3.org/2000/svg"
   xmlns:sodipodi="http://sodipodi.sourceforge.net/DTD/sodipodi-0.dtd"
   xmlns:inkscape="http://www.inkscape.org/namespaces/inkscape"
   id="svg2"
   version="1.1"
   inkscape:version="0.91 r13725"
   width="234"
   height="234"
   viewBox="0 0 234 234"
   sodipodi:docname="infn.svg">
  <metadata
     id="metadata8">
    <rdf:RDF>
      <cc:Work
         rdf:about="">
        <dc:format>image/svg+xml</dc:format>
        <dc:type
           rdf:resource="http://purl.org/dc/dcmitype/StillImage" />
        <dc:title />
      </cc:Work>
    </rdf:RDF>
  </metadata>
  <defs
     id="defs6" />
  <sodipodi:namedview
     pagecolor="#ffffff"
     bordercolor="#666666"
     borderopacity="1"
     objecttolerance="10"
     gridtolerance="10"
     guidetolerance="10"
     inkscape:pageopacity="0"
     inkscape:pageshadow="2"
     inkscape:window-width="1591"
     inkscape:window-height="932"
     id="namedview4"
     showgrid="false"
     showguides="false"
     inkscape:zoom="1.4385966"
     inkscape:cx="-201.13579"
     inkscape:cy="88.641384"
     inkscape:window-x="0"
     inkscape:window-y="0"
     inkscape:window-maximized="0"
     inkscape:current-layer="svg2" />
  <g
     id="g3334"
     transform="matrix(0.8,0,0,0.8,23.610622,23.399998)">
    <path
       sodipodi:nodetypes="sssscsscssssssss"
       style="fill:#00bee5;fill-opacity:1"
       d="m 117.00718,143.15257 c 0,-0.74108 2.475,-12.93944 5.5,-27.10746 3.025,-14.16802 5.5,-25.93668 5.5,-26.15257 0,-0.2159 6.96375,-0.39254 15.475,-0.39254 l 15.475,0 -0.62372,3.25 c -1.49821,7.80664 -1.41987,7.75 -10.71867,7.75 l -8.44188,0 -1.08287,5.04922 c -1.77999,8.29984 -2.10563,7.95078 7.41714,7.95078 7.71253,0 8.5,0.17771 8.5,1.91821 0,4.70229 -0.75477,5.08179 -10.10699,5.08179 -4.89115,0 -8.89301,0.22976 -8.89301,0.51059 0,0.44394 -3.06154,14.81236 -4.52557,21.23941 -0.46679,2.04916 -1.09103,2.25 -6.99348,2.25 -4.76802,0 -6.48095,-0.35613 -6.48095,-1.34743 z"
       id="path3344"
       inkscape:connector-curvature="0" />
    <path
       sodipodi:nodetypes="sssssssssscssscssssssscccsssssscccsssscsscscssssscscssssssssssssssss"
       inkscape:connector-curvature="0"
       id="path3342"
       d="M 21.629928,231.30697 C -0.13322756,224.62341 -5.8733436,200.68109 6.2399604,167.11462 9.5959259,157.8151 11.936789,155.6808 16.5,157.75994 c 3.116718,1.42007 3.21885,4.30622 0.463464,13.09698 -2.632869,8.39989 -3.805206,19.82173 -2.793675,27.2182 5.35048,39.12356 63.901662,30.37171 125.165211,-18.70887 11.80849,-9.46023 15.49858,-10.93617 5.45872,-2.18334 -46.405641,40.45679 -96.288327,62.37763 -123.163792,54.12406 z m -6.420172,-88.56652 c 0.253812,-1.26421 2.888098,-13.66106 5.85397,-27.54856 l 5.392495,-25.250005 6.77189,0 c 3.724539,0 6.753599,0.3375 6.731246,0.75 -0.02235,0.4125 -2.616145,12.675005 -5.763979,27.250005 l -5.723336,26.5 -6.861881,0.29856 c -6.691277,0.29113 -6.850407,0.24141 -6.400405,-2 z m 36.380138,0.49526 c 0.234064,-0.9866 2.669811,-12.36882 5.412772,-25.29382 2.74296,-12.925 5.22992,-24.539865 5.526579,-25.810804 0.446821,-1.914266 1.091191,-2.257467 3.755067,-2 2.984615,0.288466 3.860611,1.379636 12.190658,15.185114 l 8.97497,14.8743 3.08911,-14.8743 3.089111,-14.874315 6.768409,-0.29757 c 6.12749,-0.269393 6.71491,-0.127357 6.20353,1.5 -0.31067,0.988663 -2.81299,12.372575 -5.56069,25.297575 -2.747711,12.925 -5.239213,24.5125 -5.536675,25.75 -0.423015,1.75983 -1.247599,2.25 -3.78503,2.25 -3.115886,0 -3.599022,-0.59313 -12.216024,-14.99719 l -8.971833,-14.99719 -3.06269,14.74719 -3.06269,14.74719 -6.620073,0.29382 c -5.936694,0.26348 -6.576142,0.10864 -6.194501,-1.5 z m 113.924396,-0.54382 c 0.30381,-1.2375 2.94467,-13.5 5.86856,-27.25 l 5.31617,-25.000005 3.32469,0 c 3.20879,0 3.62366,0.496137 11.90049,14.231605 4.71669,7.82738 8.80547,14.23988 9.08618,14.25 0.28071,0.0101 1.85571,-6.3941 3.5,-14.2316 L 207.5,90.441885 l 6.25,-0.297717 c 4.98986,-0.237691 6.25,0.0012 6.25,1.184715 0,1.303844 -9.07028,45.060537 -10.62273,51.245977 -0.4731,1.88498 -1.25926,2.36703 -3.86028,2.36703 -3.14438,0 -3.59887,-0.5571 -12.18687,-14.93844 l -8.92068,-14.93844 -2.8589,13.68844 c -1.57239,7.52864 -3.06266,14.25094 -3.31171,14.93844 -0.29811,0.82296 -2.64339,1.25 -6.86487,1.25 -6.14655,0 -6.38919,-0.0932 -5.85967,-2.25 z m 49.942,-68.176375 c -1.48396,-2.264811 -1.4112,-2.980598 1.09273,-10.75 3.50063,-10.862007 4.40157,-25.041889 2.09516,-32.975654 -2.23241,-7.679243 -8.05665,-14.083111 -15.4266,-16.961864 -7.86421,-3.071814 -22.32439,-3.067779 -34.04474,0.0095 -23.16232,6.081473 -50.20532,20.819115 -74.902837,40.819851 -5.626499,4.556496 -10.54244,8.284537 -10.924314,8.284537 -2.977215,0 22.980561,-21.053761 39.822741,-32.299317 42.4042,-28.3133698 79.8506,-37.0872728 98.99152,-23.1942698 3.43732,2.4948999 5.53628,5.1633058 8,10.1703878 3.20946,6.52266 3.33879,7.238395 3.30773,18.305634 -0.0245,8.742062 -0.55468,13.343879 -2.19994,19.096263 -3.04149,10.634013 -6.15155,18.662257 -7.91127,20.421974 -2.28796,2.287966 -6.08562,1.842333 -7.90018,-0.927042 z"
       style="fill:#272c6b;fill-opacity:1" />
  </g>
</svg>
