<?xml version="1.0" encoding="UTF-8" standalone="no"?>
<!-- Created with Inkscape (http://www.inkscape.org/) -->

<svg
   xmlns:dc="http://purl.org/dc/elements/1.1/"
   xmlns:cc="http://creativecommons.org/ns#"
   xmlns:rdf="http://www.w3.org/1999/02/22-rdf-syntax-ns#"
   xmlns:svg="http://www.w3.org/2000/svg"
   xmlns="http://www.w3.org/2000/svg"
   xmlns:sodipodi="http://sodipodi.sourceforge.net/DTD/sodipodi-0.dtd"
   xmlns:inkscape="http://www.inkscape.org/namespaces/inkscape"
   id="svg3522"
   version="1.1"
   inkscape:version="0.91 r13725"
   width="128"
   height="128"
   viewBox="0 0 128 128"
   sodipodi:docname="rhea.svg">
  <metadata
     id="metadata3528">
    <rdf:RDF>
      <cc:Work
         rdf:about="">
        <dc:format>image/svg+xml</dc:format>
        <dc:type
           rdf:resource="http://purl.org/dc/dcmitype/StillImage" />
        <dc:title />
      </cc:Work>
    </rdf:RDF>
  </metadata>
  <defs
     id="defs3526" />
  <sodipodi:namedview
     pagecolor="#ffffff"
     bordercolor="#666666"
     borderopacity="1"
     objecttolerance="10"
     gridtolerance="10"
     guidetolerance="10"
     inkscape:pageopacity="1"
     inkscape:pageshadow="2"
     inkscape:window-width="1911"
     inkscape:window-height="1024"
     id="namedview3524"
     showgrid="false"
     inkscape:zoom="1.3600424"
     inkscape:cx="-91.039212"
     inkscape:cy="50.654948"
     inkscape:window-x="48"
     inkscape:window-y="3"
     inkscape:window-maximized="0"
     inkscape:current-layer="svg3522" />
  <path
     style="fill:#ffffff;fill-opacity:1"
     d="m 25.036635,71.595663 c -2.451092,0 -4.516782,1.550785 -5.323952,3.99653 -0.770956,2.336028 0.609624,5.371303 2.919718,6.420119 1.737334,0.788774 3.22362,0.75995 4.917474,-0.09576 5.12793,-2.590551 3.245431,-10.320889 -2.51324,-10.320889 z M 10.4248,86.730111 C 8.8422176,86.728546 7.354099,86.852634 6.2673087,87.1315 4.0191439,87.70837 2.1463223,88.697474 0.8537069,89.990089 L 0,90.84278 l 0,10.82619 0.86083806,0.59494 c 1.19773174,0.82857 2.95916444,1.4665 5.74163714,2.07722 3.5277868,0.77429 4.6801228,2.2064 2.9003622,3.60635 -1.1113554,0.8742 -3.163588,0.83689 -5.7477496,-0.10595 -3.89148072,-1.41982 -3.7502702,-1.27415 -3.75305031,-3.88243 L 0,101.66897 0,121.39388 c 0,-6.16506 0.03691927,-6.59102 0.54808386,-6.38854 1.83180544,0.7256 5.14431904,1.1515 7.74550544,0.99531 4.7927737,-0.2878 8.1850747,-1.87065 10.3239437,-4.81662 0.518055,-0.71354 1.042292,-1.3057 1.164424,-1.31622 0.122137,-0.0105 0.262765,1.14209 0.312755,2.56214 l 0.09067,2.58252 10.652998,0.0815 10.652999,0.0825 3.39649,-3.91605 c 1.867777,-2.1538 3.490509,-3.91605 3.606351,-3.91605 0.115846,0 1.72372,1.75566 3.572733,3.90077 l 3.360831,3.89975 6.633039,0.10697 c 3.648167,0.0589 7.937203,0.30438 9.530347,0.54503 5.524046,0.83442 10.441758,-0.55901 13.336368,-3.77852 0.774404,-0.86133 1.574414,-2.08867 1.778723,-2.7282 0.204299,-0.63951 0.4729,-1.27366 0.595966,-1.40892 0.12307,-0.13525 0.736473,0.58424 1.363078,1.59943 2.773704,4.49375 7.478036,6.92325 12.651777,6.5332 2.27301,-0.17137 5.21473,-1.23518 6.41197,-2.31866 0.30694,-0.27778 0.62006,-0.44249 0.6958,-0.36675 0.0757,0.0757 0.181,3.40719 0.23329,7.40423 l 0.0947,7.26771 19.24712,0 0,-0.001 -4.69437,0 -4.69437,0 0,-7.19742 c 0,-5.5786 0.0888,-7.19844 0.39426,-7.19844 0.21678,0 0.55912,0.26456 0.76099,0.58781 1.01786,1.62985 5.30804,2.47398 7.31051,1.43847 L 128,115.15303 l 0,-10.65708 -1.08496,-0.45334 c -2.34667,-0.9805 -5.18533,-0.41251 -6.86531,1.37429 -0.49969,0.53146 -1.02781,0.89287 -1.1736,0.80277 -0.14579,-0.0901 -0.26487,-4.30996 -0.26487,-9.377539 l 0,-9.213513 -4.81764,0 c -5.12991,0 -5.19762,0.0205 -5.19762,1.59026 0,0.781033 -0.38354,0.76007 -1.1247,-0.06011 -0.3279,-0.362854 -1.30012,-1.031598 -2.16075,-1.486347 -1.41773,-0.749101 -1.88929,-0.826198 -5.01425,-0.826198 -3.280471,0 -3.552755,0.05148 -5.579664,1.049306 -4.098914,2.01789 -7.305752,6.40579 -8.010377,10.962697 -0.169874,1.098587 -0.385293,2.074363 -0.479827,2.168903 -0.09453,0.0945 -0.627966,-0.26043 -1.184796,-0.78953 -1.377819,-1.309166 -3.080414,-2.105894 -5.825175,-2.725134 -3.07295,-0.693259 -4.106556,-1.248399 -4.106556,-2.206572 0,-0.427083 0.303178,-0.968887 0.695799,-1.243888 0.904136,-0.633281 3.552652,-0.631674 5.424813,0.0042 0.796614,0.270458 1.629223,0.422952 1.850036,0.338219 0.220817,-0.08474 1.063754,-1.370088 1.87347,-2.855538 1.713387,-3.14324 1.669401,-3.31834 -1.044215,-4.15749 -1.323333,-0.409224 -2.842926,-0.541313 -6.139964,-0.53484 -5.182651,0.01017 -6.955511,0.53797 -9.504877,2.830068 -2.204595,1.98212 -2.999754,3.764535 -2.988993,6.704352 0.01695,4.62323 1.730522,6.31546 7.924804,7.82598 2.953306,0.7202 4.104298,1.40123 4.095352,2.4236 -0.02196,2.50936 -4.982572,2.54199 -9.189066,0.0601 -0.612484,-0.36137 -1.261914,-0.5656 -1.44356,-0.45334 -0.181641,0.11226 -0.751287,1.03865 -1.266295,2.05888 -0.515004,1.02021 -1.04733,1.85513 -1.182762,1.85513 -0.356173,0 -9.134053,-9.59143 -9.134053,-9.98063 0,-0.17971 2.385188,-2.963907 5.300521,-6.187843 2.915334,-3.223937 5.231066,-5.975301 5.14567,-6.113477 -0.0854,-0.138275 -2.882947,-0.250706 -6.217389,-0.250706 l -6.06356,0 -2.108798,2.425628 c -1.160307,1.333983 -2.332297,2.464121 -2.603908,2.512223 -0.293012,0.0519 -1.367749,-0.934633 -2.64262,-2.425628 l -2.14853,-2.512223 -6.066616,0 c -4.118516,0 -6.066616,0.107741 -6.066616,0.336185 0,0.185068 2.323916,2.948033 5.16401,6.139969 2.840093,3.191931 5.16401,5.932252 5.16401,6.089022 0,0.39195 -11.227961,12.47146 -11.592281,12.47146 -0.17536,0 -0.325872,-4.98707 -0.374897,-12.43988 l 0,-0.001 -0.0815,-12.439873 -4.851255,0 -4.851255,0 -0.08354,7.119997 c -0.04627,3.915886 -0.152046,7.119996 -0.235329,7.119996 -0.08328,0 -0.669687,-0.57347 -1.302973,-1.27445 -1.4845,-1.643163 -2.95541,-2.373904 -6.583119,-3.272203 -3.2681414,-0.809257 -3.8437186,-1.139344 -3.8437186,-2.20252 0,-1.627475 3.0910796,-2.238144 6.1216286,-1.209248 0.796613,0.270458 1.641899,0.41783 1.878563,0.327015 0.236669,-0.09082 1.062974,-1.425811 1.836794,-2.966581 1.136585,-2.263066 1.32766,-2.867346 0.993274,-3.144862 -1.12255,-0.931634 -5.060481,-1.54754 -8.542162,-1.551546 z m 92.42956,8.726556 c 1.12754,-0.03406 2.23079,0.106932 2.86267,0.43704 1.13469,0.592795 2.45183,2.020759 2.85961,3.100036 0.46526,1.231407 0.41513,3.798137 -0.0978,4.996937 -1.26856,2.96481 -5.39913,4.26295 -8.569668,2.69356 -1.603471,-0.79371 -2.417099,-1.86165 -2.910551,-3.82131 -0.683208,-2.71328 0.532128,-5.609765 2.849425,-6.791958 0.727584,-0.371184 1.878774,-0.58024 3.006314,-0.614305 z M 0,127.99941 l 0,0.001 54.376442,0 L 0,127.99941 Z"
     id="rect3333"
     inkscape:connector-curvature="0" />
</svg>
