<?xml version="1.0" encoding="UTF-8" standalone="no"?>
<!-- Created with Inkscape (http://www.inkscape.org/) -->

<svg
   xmlns:dc="http://purl.org/dc/elements/1.1/"
   xmlns:cc="http://creativecommons.org/ns#"
   xmlns:rdf="http://www.w3.org/1999/02/22-rdf-syntax-ns#"
   xmlns:svg="http://www.w3.org/2000/svg"
   xmlns="http://www.w3.org/2000/svg"
   xmlns:sodipodi="http://sodipodi.sourceforge.net/DTD/sodipodi-0.dtd"
   xmlns:inkscape="http://www.inkscape.org/namespaces/inkscape"
   width="100"
   height="100"
   viewBox="0 0 100 99.999995"
   id="svg2"
   version="1.1"
   inkscape:version="0.91 r13725"
   sodipodi:docname="stfc.svg">
  <defs
     id="defs4" />
  <sodipodi:namedview
     id="base"
     pagecolor="#ffffff"
     bordercolor="#666666"
     borderopacity="1.0"
     inkscape:pageopacity="0.0"
     inkscape:pageshadow="2"
     inkscape:zoom="2.8"
     inkscape:cx="-100.16566"
     inkscape:cy="21.200218"
     inkscape:document-units="px"
     inkscape:current-layer="layer1"
     showgrid="false"
     fit-margin-top="0"
     fit-margin-left="0"
     fit-margin-right="0"
     fit-margin-bottom="0"
     inkscape:window-width="1920"
     inkscape:window-height="1036"
     inkscape:window-x="0"
     inkscape:window-y="0"
     inkscape:window-maximized="1"
     units="px" />
  <metadata
     id="metadata7">
    <rdf:RDF>
      <cc:Work
         rdf:about="">
        <dc:format>image/svg+xml</dc:format>
        <dc:type
           rdf:resource="http://purl.org/dc/dcmitype/StillImage" />
        <dc:title></dc:title>
      </cc:Work>
    </rdf:RDF>
  </metadata>
  <g
     inkscape:label="Layer 1"
     inkscape:groupmode="layer"
     id="layer1"
     transform="translate(-119.10665,-465.06446)">
    <path
       style="fill:#ffffff"
       d="m 163.66678,554.8389 c -5.97633,-0.94548 -13.65627,-4.20538 -18.22877,-7.73756 -2.18348,-1.6867 -8.23956,-7.90272 -8.23956,-8.45716 0,-0.34475 5.84977,-1.90761 10.55273,-2.81931 16.85903,-3.26826 34.64369,-2.53494 51.8122,2.13637 0.71361,0.19416 1.29747,0.49736 1.29747,0.67377 0,0.6526 -6.14088,6.88659 -8.67843,8.81003 -4.28756,3.24991 -9.63359,5.66799 -15.29002,6.91588 -3.01789,0.66578 -10.36101,0.93117 -13.22562,0.47798 z m -29.53473,-21.39836 c -3.04332,-6.18482 -4.30219,-11.43346 -4.3327,-18.06441 -0.0111,-2.42328 0.18901,-5.59556 0.44479,-7.04953 2.95099,-16.77486 15.74545,-29.80912 32.21167,-32.81543 3.65929,-0.66809 10.58353,-0.57334 14.18565,0.19412 8.18029,1.74286 15.09097,5.64146 20.81016,11.73988 3.19044,3.40199 5.05145,6.14806 7.05194,10.40576 5.21887,11.10749 5.21426,23.53037 -0.0128,34.6203 -1.93384,4.10288 -1.39204,3.93111 -6.57082,2.08309 -8.00752,-2.85745 -14.46526,-4.15171 -23.45086,-4.70002 -12.12303,-0.73975 -25.28002,1.16467 -35.31046,5.11103 -1.68716,0.6638 -3.20589,1.2069 -3.37497,1.2069 -0.16907,0 -0.91227,-1.22926 -1.65157,-2.73169 z m 20.19296,-6.08618 c 12.13849,-2.18579 23.63874,-1.74536 35.86908,1.37371 2.03054,0.51785 3.61438,0.81377 3.51964,0.65761 -0.28117,-0.46347 -6.97741,-3.78996 -10.15146,-5.04293 -1.61805,-0.63874 -2.70837,-1.23743 -2.42293,-1.33043 0.28544,-0.093 4.33354,-0.51978 8.99578,-0.94841 12.33631,-1.13414 12.51272,-1.31308 1.38396,-1.40373 -5.42341,-0.0442 -10.2962,-0.18051 -10.82842,-0.30296 -0.867,-0.1995 -0.22597,-0.65754 6.1614,-4.40257 3.92099,-2.29896 7.07857,-4.23137 7.01684,-4.29425 -0.0617,-0.0629 -3.60765,0.97741 -7.87981,2.3118 -4.27217,1.33437 -7.80974,2.38319 -7.86125,2.33071 -0.0515,-0.0525 1.7924,-2.1462 4.0976,-4.6527 2.3052,-2.50651 6.23456,-6.77744 8.73191,-9.49097 2.49735,-2.71353 4.22924,-4.69812 3.84865,-4.41018 -0.38059,0.28794 -4.58438,3.86492 -9.34177,7.94886 -4.75738,4.08393 -8.83886,7.54157 -9.06997,7.68364 -0.50576,0.31091 -0.44041,0.14679 3.33439,-8.37267 1.53862,-3.47256 2.74544,-6.36679 2.68181,-6.4316 -0.0636,-0.0648 -2.0394,2.81298 -4.39062,6.3951 -2.35122,3.58212 -4.33732,6.4494 -4.41354,6.37174 -0.0762,-0.0777 0.81959,-6.10935 1.99071,-13.40377 1.17112,-7.29442 2.07527,-13.42778 2.00921,-13.62967 -0.0661,-0.2019 -1.51064,5.51397 -3.21017,12.70195 -1.69952,7.18796 -3.19123,12.9517 -3.31489,12.80833 -0.12366,-0.14339 -0.5918,-5.01603 -1.0403,-10.82809 -0.55021,-7.13002 -0.89707,-10.16835 -1.06636,-9.34063 -0.138,0.67472 -0.58558,5.58866 -0.99463,10.91987 -0.40904,5.33121 -0.7897,9.74129 -0.8459,9.80019 -0.0562,0.0589 -1.38026,-5.25468 -2.94235,-11.80796 -3.32993,-13.96976 -3.73832,-15.58958 -3.78032,-14.99375 -0.0316,0.44725 3.95612,25.92023 4.31683,27.57581 0.10559,0.48465 -1.91944,-2.28047 -4.50008,-6.14471 -2.58064,-3.86425 -4.69207,-6.94759 -4.69207,-6.85187 0,0.0957 1.55518,3.71951 3.45594,8.05286 2.45772,5.60307 3.23224,7.67579 2.68143,7.17593 -0.42597,-0.3866 -2.33146,-2.04355 -4.23441,-3.68212 -11.40211,-9.81799 -14.43868,-12.33718 -13.66666,-11.33801 0.47573,0.61572 4.41929,4.93449 8.76346,9.59727 4.34417,4.66279 7.82101,8.47779 7.72631,8.47779 -0.0947,0 -3.71855,-1.10555 -8.053,-2.45679 -4.33445,-1.35124 -7.93278,-2.40385 -7.9963,-2.33915 -0.0635,0.0647 3.16551,2.0208 7.17559,4.34686 8.71452,5.05489 9.12949,4.65152 -4.84813,4.71267 -10.8895,0.0476 -10.65767,0.27714 1.38397,1.37007 10.73658,0.97448 10.48237,0.8971 7.09282,2.15905 -2.93727,1.09356 -9.22125,4.13246 -10.37974,5.0196 -0.50556,0.38714 0.19352,0.29604 2.59493,-0.33813 1.8078,-0.47743 4.99958,-1.17644 7.09282,-1.55337 z m 23.59077,-44.47215 c -0.11045,-0.28118 -0.19243,-0.19766 -0.20903,0.21295 -0.015,0.37158 0.0667,0.57976 0.18172,0.46263 0.11497,-0.11713 0.12726,-0.42114 0.0273,-0.67558 z"
       id="path3360"
       inkscape:connector-curvature="0" />
  </g>
</svg>
