<?xml version="1.0" encoding="UTF-8" standalone="no"?>
<!-- Created with Inkscape (http://www.inkscape.org/) -->

<svg
   xmlns:dc="http://purl.org/dc/elements/1.1/"
   xmlns:cc="http://creativecommons.org/ns#"
   xmlns:rdf="http://www.w3.org/1999/02/22-rdf-syntax-ns#"
   xmlns:svg="http://www.w3.org/2000/svg"
   xmlns="http://www.w3.org/2000/svg"
   xmlns:sodipodi="http://sodipodi.sourceforge.net/DTD/sodipodi-0.dtd"
   xmlns:inkscape="http://www.inkscape.org/namespaces/inkscape"
   width="100"
   height="100"
   viewBox="0 0 100 100"
   id="svg2"
   version="1.1"
   inkscape:version="0.91 r13725"
   sodipodi:docname="surfsara.svg">
  <defs
     id="defs4" />
  <sodipodi:namedview
     id="base"
     pagecolor="#ffffff"
     bordercolor="#666666"
     borderopacity="1.0"
     inkscape:pageopacity="0.0"
     inkscape:pageshadow="2"
     inkscape:zoom="2.8"
     inkscape:cx="172.00279"
     inkscape:cy="-28.423295"
     inkscape:document-units="px"
     inkscape:current-layer="layer1"
     showgrid="false"
     units="px"
     inkscape:window-width="1920"
     inkscape:window-height="1036"
     inkscape:window-x="0"
     inkscape:window-y="0"
     inkscape:window-maximized="1" />
  <metadata
     id="metadata7">
    <rdf:RDF>
      <cc:Work
         rdf:about="">
        <dc:format>image/svg+xml</dc:format>
        <dc:type
           rdf:resource="http://purl.org/dc/dcmitype/StillImage" />
        <dc:title></dc:title>
      </cc:Work>
    </rdf:RDF>
  </metadata>
  <g
     inkscape:label="Layer 1"
     inkscape:groupmode="layer"
     id="layer1"
     transform="translate(0,-952.36216)">
    <path
       style="fill:#000000"
       d="m 57.133552,1020.1782 c -1.304129,-0.4782 -2.243158,-1.25 -2.914278,-2.3951 -0.536564,-0.9157 -0.634707,-1.4072 -0.775723,-3.8853 -0.09953,-1.7486 -0.30404,-3.1664 -0.53315,-3.6961 -0.56186,-1.2986 -2.135511,-2.8645 -3.497891,-3.4805 l -1.21714,-0.5502 -21.073441,-0.1164 -21.0734416,-0.1165 -0.9585468,-0.5128 c -1.4729414,-0.788 -2.259366,-1.5463 -3.0107165,-2.9026 l -0.6878466,-1.2417 0,-6.17066 c 0,-5.95898 0.018009,-6.20441 0.5254935,-7.15416 0.67012,-1.25412 1.894077,-2.47807 3.1481691,-3.14816 l 0.9834473,-0.5255 21.3062946,0 21.306294,0 0.983165,0.52535 c 1.462871,0.78168 2.453429,1.7422 3.09798,3.00414 0.556418,1.08931 0.580141,1.32918 0.698718,7.06544 0.115285,5.57665 0.155829,6.01175 0.666726,7.15485 0.603488,1.3504 2.157556,2.9211 3.474207,3.5115 0.683217,0.3065 1.912076,0.4101 6.001,0.5062 l 5.141852,0.121 1.139089,0.7046 c 0.705328,0.4364 1.407459,1.1388 1.843822,1.8447 0.700501,1.133 0.704724,1.1603 0.704724,4.5528 0,3.3925 -0.0038,3.4198 -0.704724,4.5527 -0.436334,0.7058 -1.138513,1.4083 -1.843776,1.8447 l -1.139049,0.7047 -5.374752,0.055 c -4.002868,0.041 -5.589606,-0.023 -6.216506,-0.2528 z M 13.549135,999.74354 c 1.158463,-0.56082 1.697157,-1.41997 1.697157,-2.70699 0,-1.56404 -0.772837,-2.23142 -3.592734,-3.10236 -3.0462182,-0.94089 -1.549825,-2.18219 1.611384,-1.33671 0.908649,0.24308 1.104137,0.22987 1.430663,-0.0966 0.59371,-0.59373 0.231788,-1.54434 -0.743043,-1.95166 -3.034033,-1.2677 -6.050182,-0.15991 -6.3302634,2.32503 -0.1092134,0.96881 -0.051391,1.1273 0.6779659,1.85663 0.562595,0.5626 1.2832457,0.94203 2.4475655,1.28881 1.916745,0.57082 2.442738,1.01331 1.876984,1.57913 -0.451175,0.45117 -1.771241,0.47626 -3.3785609,0.064 -0.9746339,-0.24976 -1.2557143,-0.25042 -1.5534942,0 -0.4606325,0.38234 -0.469486,1.26412 -0.016406,1.64004 1.2032607,0.99844 4.2509101,1.22894 5.8728551,0.44372 z m 10.947847,-0.2557 c 1.49228,-0.98757 1.797885,-1.88991 1.885177,-5.56636 0.06401,-2.69616 0.0182,-3.22521 -0.307699,-3.55108 -0.428179,-0.42815 -0.989981,-0.48595 -1.513948,-0.15556 -0.272443,0.17169 -0.374896,0.91817 -0.465704,3.39332 -0.114692,3.12562 -0.126204,3.18155 -0.769775,3.73482 -0.699292,0.60108 -1.742067,0.72913 -2.525229,0.31001 -0.833794,-0.44625 -1.129254,-1.62871 -1.129254,-4.51948 0,-2.63175 -0.01244,-2.69596 -0.572599,-2.9512 -0.458541,-0.20894 -0.69047,-0.18367 -1.164283,0.12681 -0.578134,0.37875 -0.591645,0.45023 -0.590382,3.11838 6.99e-4,1.50181 0.111222,3.12647 0.245564,3.61028 0.294007,1.05865 1.460986,2.44534 2.426651,2.88345 1.132488,0.51377 3.378382,0.29657 4.481481,-0.43339 z m 6.365949,0.50429 c 0.360943,-0.19326 0.450404,-0.49383 0.450404,-1.51365 l 0,-1.27251 1.036946,0 c 1.012037,0 1.048629,0.0264 1.522463,1.09761 0.836914,1.89192 1.505122,2.32732 2.370436,1.54414 0.554185,-0.5015 0.537186,-1.00293 -0.07684,-2.26685 l -0.502703,-1.03472 0.599415,-0.71233 c 1.483662,-1.76328 0.908159,-4.43699 -1.139183,-5.29237 -0.986494,-0.41223 -5.45732,-0.44399 -5.859635,-0.0415 -0.197977,0.19801 -0.279422,1.58611 -0.279422,4.76201 0,4.02343 0.04178,4.50684 0.407492,4.71995 0.525927,0.30619 0.912685,0.30899 1.47066,0.0109 z m 0.450404,-6.39539 0,-1.28071 0.989633,0 c 1.356752,0 2.136387,0.43798 2.228958,1.23856 0.117681,1.01784 -0.305152,1.31947 -1.84997,1.31947 l -1.368621,0 0,-1.28071 z m 10.11258,6.27052 c 0.250363,-0.25045 0.365921,-0.80192 0.365921,-1.74651 l 0,-1.38046 1.412438,0 c 1.747989,0 2.313253,-0.27513 2.313253,-1.12589 0,-0.98134 -0.394273,-1.20264 -2.142271,-1.20264 l -1.58342,0 0,-1.04791 0,-1.04782 2.398413,0 c 1.554954,0 2.496679,-0.0983 2.677843,-0.27946 0.35918,-0.35915 0.35918,-1.17766 0,-1.5368 -0.389379,-0.38941 -6.736009,-0.38941 -7.12539,0 -0.197974,0.19801 -0.279421,1.58602 -0.279421,4.76199 0,4.02345 0.04178,4.50686 0.407493,4.71984 0.590278,0.3437 1.137165,0.3035 1.555141,-0.11434 z m 20.042227,0.19944 c -1.29141,-0.31165 -1.979276,-0.81959 -1.979276,-1.46158 0,-1.13071 0.488184,-1.29656 2.408116,-0.81852 1.48749,0.37046 1.772493,0.3814 2.377065,0.0914 0.419656,-0.20112 0.686932,-0.50925 0.686932,-0.79183 0,-0.37545 -0.372794,-0.58214 -1.979276,-1.09751 -2.459199,-0.78881 -3.259974,-1.54122 -3.259974,-3.06302 0,-1.89962 1.356855,-2.93839 3.838033,-2.93839 2.404937,0 3.815621,0.79231 3.518484,1.97619 -0.170802,0.68056 -0.864203,0.76288 -2.57424,0.30548 -1.262171,-0.33755 -2.337296,-0.0556 -2.337296,0.61344 0,0.34386 0.428613,0.58166 1.979276,1.09807 2.424153,0.80729 3.259976,1.58112 3.259976,3.01844 0,2.02001 -1.576537,3.25613 -4.090282,3.20703 -0.760005,-0.015 -1.591396,-0.077 -1.847538,-0.1395 z m 7.614385,-0.113 c -0.52622,-0.52621 -0.277027,-1.36999 1.641633,-5.5589 1.5832,-3.45658 2.019535,-4.2189 2.481017,-4.33507 0.307991,-0.0773 0.710816,-0.0463 0.895186,0.0707 0.18437,0.11626 1.222797,2.1408 2.307603,4.49893 2.093581,4.55108 2.232307,5.23076 1.124192,5.50894 -0.822707,0.2065 -1.279295,-0.034 -1.582015,-0.83707 l -0.263477,-0.69802 -2.168389,0 c -1.854835,0 -2.189272,0.0584 -2.312893,0.40751 -0.387409,1.09218 -1.485643,1.58018 -2.122857,0.9431 z m 5.181943,-4.77359 c -0.322851,-0.72997 -0.628578,-1.36887 -0.67939,-1.41968 -0.107222,-0.10717 -0.920557,1.45344 -1.158531,2.2231 -0.154575,0.49983 -0.102672,0.52386 1.131462,0.52386 l 1.293455,0 -0.586996,-1.32728 z m 5.948558,4.82499 c -0.291546,-0.1842 -0.349289,-0.99342 -0.349289,-4.89476 0,-3.90143 0.0578,-4.71061 0.349289,-4.89493 0.461057,-0.29145 4.314931,-0.28806 5.368916,0 1.836496,0.51019 2.85796,2.58168 2.208432,4.47857 -0.187141,0.54658 -0.55048,1.13521 -0.807413,1.30805 -0.464065,0.31217 -0.463358,0.32179 0.107135,1.44758 0.722715,1.42621 0.723508,1.97175 0.0038,2.44349 -0.866267,0.5676 -1.352405,0.2496 -2.177771,-1.42405 l -0.75298,-1.52697 -0.985306,0.0717 -0.985315,0.0717 -0.07213,1.27364 c -0.0397,0.70046 -0.183503,1.4078 -0.319588,1.57175 -0.289943,0.34933 -1.089955,0.38463 -1.58753,0.0694 z m 4.989757,-5.49357 c 0.51926,-0.51925 0.470043,-1.65767 -0.08449,-1.9544 -0.247723,-0.13266 -1.033609,-0.2411 -1.746415,-0.2411 l -1.29602,0 0,1.28071 0,1.28071 1.380502,0 c 0.944526,0 1.496062,-0.11559 1.746414,-0.36592 z m 3.980568,5.2618 c -0.493068,-0.54478 -0.597115,-0.23986 1.98812,-5.82734 1.701467,-3.67741 1.808643,-3.84515 2.499901,-3.91417 0.644022,-0.0641 0.777826,0.0368 1.235677,0.93147 1.039417,2.03142 3.701572,7.96127 3.701572,8.24517 0,0.48124 -0.692128,1.02464 -1.305187,1.02464 -0.408444,0 -0.711674,-0.23445 -1.05422,-0.81494 l -0.480857,-0.81502 -2.049709,0 -2.049697,0 -0.480856,0.81502 c -0.556185,0.94254 -1.3464,1.08264 -2.004744,0.35517 z m 5.294746,-4.66299 c -0.331563,-0.76844 -0.664266,-1.39536 -0.739356,-1.39319 -0.142478,0 -1.18821,2.31089 -1.185768,2.61563 6.97e-4,0.0961 0.569871,0.17461 1.264677,0.17461 l 1.263274,0 -0.602827,-1.39705 z"
       id="path4201"
       inkscape:connector-curvature="0" />
  </g>
</svg>
