<?xml version="1.0" encoding="utf-8"?>
<!-- Generator: Adobe Illustrator 21.1.0, SVG Export Plug-In . SVG Version: 6.00 Build 0)  -->
<!DOCTYPE svg PUBLIC "-//W3C//DTD SVG 1.1//EN" "http://www.w3.org/Graphics/SVG/1.1/DTD/svg11.dtd">
<svg version="1.1" id="Warstwa_1" xmlns="http://www.w3.org/2000/svg" xmlns:xlink="http://www.w3.org/1999/xlink" x="0px" y="0px"
	 width="284.9px" height="97.3px" viewBox="0 0 284.9 97.3" enable-background="new 0 0 284.9 97.3" xml:space="preserve">
<g>
	<path fill="#F53B3B" d="M12.5,84.6h-2.1v1.7h2.4v0.9H9.3v-5.7h3.3v0.9h-2.3v1.5h2.1V84.6z"/>
	<path fill="#F53B3B" d="M16.7,87.2L16.1,86c-0.2-0.4-0.4-0.7-0.6-1.1h0c-0.1,0.3-0.3,0.6-0.5,1.1l-0.6,1.1h-1.2l1.7-2.9l-1.6-2.8
		h1.2l0.6,1.2c0.2,0.4,0.3,0.6,0.5,1h0c0.2-0.4,0.3-0.6,0.4-1l0.6-1.2h1.2l-1.7,2.8l1.7,2.9H16.7z"/>
	<path fill="#F53B3B" d="M19.7,81.5v5.7h-1v-5.7H19.7z"/>
	<path fill="#F53B3B" d="M20.9,86c0.3,0.2,0.8,0.4,1.4,0.4c0.7,0,1-0.3,1-0.8c0-0.4-0.3-0.7-1-0.9c-0.9-0.3-1.5-0.8-1.5-1.7
		c0-0.9,0.8-1.6,2-1.6c0.6,0,1.1,0.1,1.4,0.3l-0.3,0.8c-0.2-0.1-0.6-0.3-1.1-0.3c-0.7,0-0.9,0.4-0.9,0.7c0,0.4,0.3,0.6,1.1,0.9
		c1,0.4,1.5,0.9,1.5,1.7c0,0.9-0.7,1.7-2.2,1.7c-0.6,0-1.2-0.2-1.5-0.4L20.9,86z"/>
	<path fill="#F53B3B" d="M26.4,82.3h-1.6v-0.9h4.3v0.9h-1.6v4.8h-1V82.3z"/>
	<path fill="#F53B3B" d="M30.8,81.5v5.7h-1v-5.7H30.8z"/>
	<path fill="#F53B3B" d="M32,87.2v-5.7h1.2l1.5,2.4c0.4,0.6,0.7,1.3,1,1.9h0c-0.1-0.8-0.1-1.5-0.1-2.4v-2h1v5.7h-1.1l-1.5-2.5
		c-0.4-0.6-0.7-1.3-1-2l0,0c0,0.7,0.1,1.5,0.1,2.4v2H32z"/>
	<path fill="#F53B3B" d="M42.3,86.9c-0.4,0.1-1.1,0.3-1.8,0.3c-1,0-1.7-0.2-2.2-0.8c-0.5-0.5-0.8-1.2-0.8-2.1c0-1.8,1.3-3,3.2-3
		c0.7,0,1.3,0.1,1.5,0.3l-0.2,0.8c-0.3-0.1-0.7-0.2-1.3-0.2c-1.2,0-2.1,0.7-2.1,2c0,1.3,0.8,2.1,2,2.1c0.4,0,0.7-0.1,0.8-0.1v-1.4
		h-1V84h2V86.9z"/>
	<path fill="#F53B3B" d="M45.1,81.6c0.5-0.1,1-0.1,1.7-0.1c1.1,0,1.8,0.2,2.3,0.7c0.5,0.4,0.9,1.1,0.9,2.1c0,1-0.3,1.8-0.9,2.3
		c-0.6,0.5-1.5,0.8-2.6,0.8c-0.6,0-1.1,0-1.4-0.1V81.6z M46.1,86.4c0.1,0,0.4,0,0.6,0c1.4,0,2.2-0.7,2.2-2.2c0-1.3-0.7-2-2-2
		c-0.3,0-0.6,0-0.7,0.1V86.4z"/>
	<path fill="#F53B3B" d="M51.9,85.6l-0.5,1.6h-1.1l1.8-5.7h1.3l1.9,5.7h-1.1l-0.5-1.6H51.9z M53.5,84.8l-0.4-1.4
		c-0.1-0.3-0.2-0.7-0.3-1.1h0c-0.1,0.3-0.2,0.7-0.3,1.1L52,84.8H53.5z"/>
	<path fill="#F53B3B" d="M56.5,82.3h-1.6v-0.9h4.3v0.9h-1.6v4.8h-1V82.3z"/>
	<path fill="#F53B3B" d="M60.4,85.6l-0.5,1.6h-1.1l1.8-5.7H62l1.9,5.7h-1.1l-0.5-1.6H60.4z M62,84.8l-0.4-1.4
		c-0.1-0.3-0.2-0.7-0.3-1.1h0c-0.1,0.3-0.2,0.7-0.3,1.1l-0.4,1.4H62z"/>
</g>
<g>
	<path fill="#F53B3B" d="M121.5,81.6c0.4-0.1,0.9-0.1,1.6-0.1c0.8,0,1.3,0.2,1.7,0.5c0.3,0.3,0.6,0.7,0.6,1.3c0,0.5-0.2,1-0.5,1.3
		c-0.4,0.4-1.1,0.6-1.8,0.6c-0.2,0-0.4,0-0.5,0v2.1h-1V81.6z M122.5,84.2c0.1,0,0.3,0,0.5,0c0.8,0,1.3-0.4,1.3-1c0-0.6-0.4-1-1.2-1
		c-0.3,0-0.5,0-0.6,0.1V84.2z"/>
	<path fill="#F53B3B" d="M126.2,81.6c0.4-0.1,1-0.1,1.6-0.1c0.8,0,1.4,0.1,1.8,0.5c0.3,0.3,0.5,0.7,0.5,1.1c0,0.7-0.5,1.2-1,1.4v0
		c0.4,0.2,0.7,0.5,0.8,1.1c0.2,0.7,0.3,1.4,0.4,1.6h-1.1c-0.1-0.2-0.2-0.6-0.4-1.3c-0.2-0.7-0.4-1-1-1h-0.5v2.3h-1V81.6z
		 M127.2,84.1h0.6c0.7,0,1.1-0.4,1.1-0.9c0-0.6-0.4-0.9-1.1-0.9c-0.3,0-0.5,0-0.6,0.1V84.1z"/>
	<path fill="#F53B3B" d="M136.1,84.3c0,1.9-1.2,3-2.7,3c-1.6,0-2.6-1.2-2.6-2.9c0-1.8,1.1-3,2.7-3C135.1,81.4,136.1,82.6,136.1,84.3
		z M131.8,84.3c0,1.2,0.6,2.1,1.6,2.1c1,0,1.6-0.9,1.6-2.1c0-1.1-0.5-2.1-1.6-2.1C132.4,82.2,131.8,83.2,131.8,84.3z"/>
	<path fill="#F53B3B" d="M138.3,87.2l-1.8-5.7h1.1l0.8,2.6c0.2,0.7,0.4,1.4,0.6,2.1h0c0.2-0.7,0.4-1.4,0.6-2.1l0.8-2.6h1.1l-2,5.7
		H138.3z"/>
	<path fill="#F53B3B" d="M143.1,81.5v5.7h-1v-5.7H143.1z"/>
	<path fill="#F53B3B" d="M144.3,81.6c0.5-0.1,1-0.1,1.7-0.1c1.1,0,1.8,0.2,2.3,0.7c0.5,0.4,0.9,1.1,0.9,2.1c0,1-0.3,1.8-0.9,2.3
		c-0.6,0.5-1.5,0.8-2.6,0.8c-0.6,0-1.1,0-1.4-0.1V81.6z M145.3,86.4c0.1,0,0.4,0,0.6,0c1.4,0,2.2-0.7,2.2-2.2c0-1.3-0.7-2-2-2
		c-0.3,0-0.6,0-0.7,0.1V86.4z"/>
	<path fill="#F53B3B" d="M153.2,84.6h-2.1v1.7h2.4v0.9H150v-5.7h3.3v0.9h-2.3v1.5h2.1V84.6z"/>
	<path fill="#F53B3B" d="M154.4,81.6c0.4-0.1,1-0.1,1.6-0.1c0.8,0,1.4,0.1,1.8,0.5c0.3,0.3,0.5,0.7,0.5,1.1c0,0.7-0.5,1.2-1,1.4v0
		c0.4,0.2,0.7,0.5,0.8,1.1c0.2,0.7,0.3,1.4,0.4,1.6h-1.1c-0.1-0.2-0.2-0.6-0.4-1.3c-0.2-0.7-0.4-1-1-1h-0.5v2.3h-1V81.6z
		 M155.4,84.1h0.6c0.7,0,1.1-0.4,1.1-0.9c0-0.6-0.4-0.9-1.1-0.9c-0.3,0-0.5,0-0.6,0.1V84.1z"/>
</g>
<g>
	<path fill="#F53B3B" d="M235.9,86c0.3,0.2,0.8,0.4,1.4,0.4c0.7,0,1-0.3,1-0.8c0-0.4-0.3-0.7-1-0.9c-0.9-0.3-1.5-0.8-1.5-1.7
		c0-0.9,0.8-1.6,2-1.6c0.6,0,1.1,0.1,1.4,0.3l-0.3,0.8c-0.2-0.1-0.6-0.3-1.1-0.3c-0.7,0-0.9,0.4-0.9,0.7c0,0.4,0.3,0.6,1.1,0.9
		c1,0.4,1.5,0.9,1.5,1.7c0,0.9-0.7,1.7-2.2,1.7c-0.6,0-1.2-0.2-1.5-0.4L235.9,86z"/>
	<path fill="#F53B3B" d="M240.3,81.6c0.4-0.1,0.9-0.1,1.6-0.1c0.8,0,1.3,0.2,1.7,0.5c0.3,0.3,0.6,0.7,0.6,1.3c0,0.5-0.2,1-0.5,1.3
		c-0.4,0.4-1.1,0.6-1.8,0.6c-0.2,0-0.4,0-0.5,0v2.1h-1V81.6z M241.3,84.2c0.1,0,0.3,0,0.5,0c0.8,0,1.3-0.4,1.3-1c0-0.6-0.4-1-1.2-1
		c-0.3,0-0.5,0-0.6,0.1V84.2z"/>
	<path fill="#F53B3B" d="M245.5,85.6l-0.5,1.6H244l1.8-5.7h1.3l1.9,5.7h-1.1l-0.5-1.6H245.5z M247.2,84.8l-0.4-1.4
		c-0.1-0.3-0.2-0.7-0.3-1.1h0c-0.1,0.3-0.2,0.7-0.3,1.1l-0.4,1.4H247.2z"/>
	<path fill="#F53B3B" d="M253.7,87c-0.2,0.1-0.8,0.3-1.5,0.3c-1.8,0-2.9-1.1-2.9-2.9c0-1.9,1.3-3,3-3c0.7,0,1.2,0.1,1.4,0.3
		l-0.2,0.8c-0.3-0.1-0.6-0.2-1.1-0.2c-1.2,0-2,0.7-2,2.1c0,1.3,0.7,2.1,2,2.1c0.4,0,0.9-0.1,1.1-0.2L253.7,87z"/>
	<path fill="#F53B3B" d="M257.8,84.6h-2.1v1.7h2.4v0.9h-3.4v-5.7h3.3v0.9h-2.3v1.5h2.1V84.6z"/>
</g>
<path fill="#556080" d="M266.9,33.3c0-0.2,0-0.3,0-0.5c0-9-7.3-16.3-16.3-16.3c-6.5,0-12.1,3.8-14.7,9.3c-1.2-0.5-2.4-0.9-3.8-0.9
	c-4.2,0-7.6,3-8.3,7c-4.9,1.7-8.5,6.4-8.5,11.9c0,6.9,5.7,12.6,12.6,12.6h39l0,0c6.3,0,11.5-5.2,11.5-11.6
	C278.5,38.4,273.3,33.3,266.9,33.3z"/>
<g>
	<path fill="#F53B3B" d="M84,23.7l1.4,1.8l-4.4,0c-1,0-1.7-1-1.4-1.9l1.3-4.1l1.4,1.8c5.6-4.1,13.4-3.3,18.1,1.6
		c0.6,0.6,0.5,1.7-0.2,2.2l0,0c-0.6,0.4-1.4,0.4-1.9-0.1C94.6,21.1,88.4,20.4,84,23.7L84,23.7z M99.8,45.2l-1.4-1.8
		c-5.6,4.1-13.4,3.3-18.1-1.6c-0.6-0.6-0.5-1.7,0.2-2.2v0c0.6-0.4,1.4-0.4,1.9,0.1c3.7,3.9,9.8,4.6,14.2,1.3l-1.4-1.8l4.3,0
		c1,0,1.7,1,1.4,1.9L99.8,45.2z M99.8,45.2"/>
</g>
<g>
	<g>
		<line fill="none" stroke="#F53B3B" stroke-width="3" stroke-miterlimit="10" x1="176" y1="29.2" x2="204.6" y2="29.2"/>
		<g>
			<polygon fill="#F53B3B" points="203.6,32.5 209.3,29.2 203.6,25.9 			"/>
		</g>
	</g>
</g>
<g>
	<g>
		<path fill="#7383BF" d="M39.3,18.5"/>
		<path fill="#7383BF" d="M43.3,24l-4-5.6l-4-5.6h-16v26.5c0.1,0,0.2,0,0.3,0c6.8,0,11.5,2.6,11.5,5c0,2.4,0,5.5,0,5.5
			c0,1.4,0,3.9,0,3.9h34.6V24H43.3z"/>
		<path fill="#F53B3B" d="M43.3,24.1h22.4v-5.6H39.3L43.3,24.1z M43.3,24.1"/>
		<path fill="#556080" d="M65.7,15.3h-24l-4-5.6h-16v3.2h13.6l4,5.6h26.4V15.3z M65.7,15.3"/>
		<path fill="#424A60" d="M65.7,12.1H44.1l-4-5.6h-16v3.2h13.6l4,5.6h24V12.1z M65.7,12.1"/>
		<rect x="40.9" y="35.3" fill="#EDEADA" width="20.8" height="14.4"/>
		<rect x="44.9" y="38.5" fill="#CEC9AE" width="8" height="1.6"/>
		<rect x="44.9" y="41.7" fill="#CEC9AE" width="12.8" height="1.6"/>
		<rect x="44.9" y="44.9" fill="#CEC9AE" width="12.8" height="1.6"/>
	</g>
	<g>
		<path fill="#F53B3B" d="M18.5,50.2c6.8,0,11.5-2.6,11.5-5s-4.7-5-11.5-5S7,42.9,7,45.3S11.7,50.2,18.5,50.2z"/>
		<path fill="#F53B3B" d="M7,58.7v2v1.1c0,2.4,4.7,5,11.5,5s11.5-2.6,11.5-5v-1.2v-2c-1.9,2.1-6.3,3.5-11.5,3.5S9,60.8,7,58.7z"/>
		<path fill="#F53B3B" d="M7,53.2v1.2v1.9c0,2.4,4.7,5,11.5,5s11.5-2.6,11.5-5v-3c-1.9,2.1-6.3,3.5-11.5,3.5S9,55.3,7,53.2z"/>
		<path fill="#F53B3B" d="M7,47.8v3c0,2.4,4.7,5,11.5,5s11.5-2.6,11.5-5v-3c-1.9,2.1-6.3,3.5-11.5,3.5S9,49.9,7,47.8z"/>
	</g>
</g>
<g>
	<path fill="#556080" d="M119.2,27.4v8.3c0,0.7,0,1.8,1.5,1.8h38.8c1.5,0,1.8-1.1,1.8-1.8v-8.3c0-0.7-0.1-1.8-1.9-1.8h-38.8
		C119.1,25.5,119.2,26.7,119.2,27.4L119.2,27.4z M126.6,28.4c1.7,0,3.2,1.4,3.2,3.2c0,1.7-1.4,3.2-3.2,3.2c-1.7,0-3.2-1.4-3.2-3.2
		C123.5,29.8,124.9,28.4,126.6,28.4L126.6,28.4z M126.6,28.4"/>
	<path fill="#7383BF" d="M159.7,24.1c1,0,1.7-1.1,1.7-1.8V14c0-1.8-1.5-3.2-3.2-3.2h-35.7c-1.8,0-3.2,1.5-3.2,3.2v8.3
		c0,0.7,0.5,1.9,2.2,1.8H159.7z M126.6,15c1.7,0,3.2,1.4,3.2,3.2c0,1.7-1.4,3.2-3.2,3.2c-1.7,0-3.2-1.4-3.2-3.2
		C123.5,16.4,124.9,15,126.6,15L126.6,15z M126.6,15"/>
	<path fill="#303E51" d="M120.9,38.9c-1.4,0-1.6,1.2-1.6,1.8V49c0,1.8,1.5,3.2,3.2,3.2h35.7c1.8,0,3.2-1.5,3.2-3.2v-8.3
		c0-0.7,0-1.9-1.7-1.8H120.9z M126.6,48c-1.7,0-3.2-1.4-3.2-3.2c0-1.7,1.4-3.2,3.2-3.2c1.7,0,3.2,1.4,3.2,3.2
		C129.8,46.6,128.4,48,126.6,48L126.6,48z"/>
</g>
</svg>
