<?xml version="1.0" encoding="utf-8"?>
<!-- Generator: Adobe Illustrator 21.1.0, SVG Export Plug-In . SVG Version: 6.00 Build 0)  -->
<!DOCTYPE svg PUBLIC "-//W3C//DTD SVG 1.1//EN" "http://www.w3.org/Graphics/SVG/1.1/DTD/svg11.dtd">
<svg version="1.1" id="Warstwa_1" xmlns="http://www.w3.org/2000/svg" xmlns:xlink="http://www.w3.org/1999/xlink" x="0px" y="0px"
	 width="290.7px" height="109.3px" viewBox="0 0 290.7 109.3" style="enable-background:new 0 0 290.7 109.3;" xml:space="preserve"
	>
<style type="text/css">
	.st0{fill:none;stroke:#F53B3B;stroke-width:5;stroke-miterlimit:10;}
	.st1{fill:#F53B3B;}
	.st2{enable-background:new    ;}
	.st3{fill:#556080;}
	.st4{fill:#303E51;}
	.st5{fill:#7383BF;}
	.st6{fill:#FFE4BA;}
	.st7{fill:#E5E5E5;}
	.st8{fill:#57381B;}
	.st9{fill:#333333;}
	.st10{fill:#F8AD3B;}
	.st11{fill:#D8DCE1;}
	.st12{fill:#FFFFFF;}
	.st13{fill:#CACBCC;}
</style>
<g>
	<g>
		<line class="st0" x1="88.3" y1="48.3" x2="125.1" y2="48.3"/>
		<g>
			<polygon class="st1" points="123.5,53.8 133,48.3 123.5,42.8 			"/>
		</g>
	</g>
</g>
<g class="st2">
	<path class="st1" d="M28.5,91.8v3.3c0,1.1,0.5,1.6,1.2,1.6c0.8,0,1.2-0.5,1.2-1.6v-3.3h1V95c0,1.8-0.9,2.5-2.3,2.5
		c-1.3,0-2.2-0.7-2.2-2.5v-3.3h1.1V91.8z"/>
	<path class="st1" d="M33,96.3c0.3,0.2,0.8,0.4,1.4,0.4c0.7,0,1-0.3,1-0.8c0-0.4-0.3-0.7-1-0.9c-0.9-0.3-1.5-0.8-1.5-1.7
		c0-0.9,0.8-1.6,2-1.6c0.6,0,1.1,0.1,1.4,0.3L36,92.8c-0.2-0.1-0.6-0.3-1.1-0.3c-0.7,0-0.9,0.4-0.9,0.7c0,0.4,0.3,0.6,1.1,0.9
		c1,0.4,1.5,0.9,1.5,1.7c0,0.9-0.7,1.7-2.2,1.7c-0.6,0-1.2-0.2-1.5-0.4L33,96.3z"/>
	<path class="st1" d="M40.6,94.9h-2.1v1.7h2.4v0.9h-3.4v-5.7h3.3v0.9h-2.3v1.5h2.1V94.9z"/>
	<path class="st1" d="M41.8,91.8c0.4-0.1,1-0.1,1.6-0.1c0.8,0,1.4,0.1,1.8,0.5c0.3,0.3,0.5,0.7,0.5,1.1c0,0.7-0.5,1.2-1,1.4l0,0
		c0.4,0.2,0.7,0.6,0.8,1.1c0.2,0.7,0.3,1.4,0.4,1.6h-1.1c-0.1-0.2-0.2-0.6-0.4-1.3c-0.2-0.7-0.4-1-1-1h-0.5v2.3h-1L41.8,91.8
		L41.8,91.8z M42.8,94.3h0.6c0.7,0,1.1-0.4,1.1-0.9c0-0.6-0.4-0.9-1.1-0.9c-0.3,0-0.5,0-0.6,0.1V94.3z"/>
</g>
<g class="st2">
	<path class="st1" d="M172.9,95.5l-0.5,1.6h-1.1l1.8-5.7h1.3l1.9,5.7h-1.1l-0.5-1.6H172.9z M174.5,94.7l-0.4-1.4
		c-0.1-0.3-0.2-0.7-0.3-1.1l0,0c-0.1,0.3-0.2,0.7-0.3,1.1l-0.4,1.4H174.5z"/>
	<path class="st1" d="M177.1,91.5c0.5-0.1,1-0.1,1.7-0.1c1.1,0,1.8,0.2,2.3,0.7c0.5,0.4,0.9,1.1,0.9,2.1s-0.3,1.8-0.9,2.3
		c-0.6,0.5-1.5,0.8-2.6,0.8c-0.6,0-1.1,0-1.4-0.1V91.5z M178.2,96.3c0.1,0,0.4,0,0.6,0c1.4,0,2.2-0.7,2.2-2.2c0-1.3-0.7-2-2-2
		c-0.3,0-0.6,0-0.7,0.1v4.1H178.2z"/>
	<path class="st1" d="M187.7,94.8c0-0.7-0.1-1.6-0.1-2.4l0,0c-0.2,0.7-0.4,1.5-0.7,2.2l-0.8,2.5h-0.8l-0.8-2.4
		c-0.2-0.7-0.4-1.5-0.6-2.2l0,0c0,0.7-0.1,1.6-0.1,2.4l-0.1,2.3h-1l0.4-5.7h1.4l0.7,2.3c0.2,0.7,0.4,1.3,0.5,2l0,0
		c0.2-0.6,0.3-1.3,0.6-2l0.8-2.3h1.4l0.3,5.7h-1L187.7,94.8z"/>
	<path class="st1" d="M190.9,91.4v5.7h-1v-5.7H190.9z"/>
	<path class="st1" d="M192.1,97.1v-5.7h1.2l1.5,2.4c0.4,0.6,0.7,1.3,1,1.9l0,0c-0.1-0.8-0.1-1.5-0.1-2.4v-2h1V97h-1.1l-1.5-2.5
		c-0.4-0.6-0.7-1.3-1-2l0,0c0,0.7,0,1.5,0,2.4v2h-1V97.1z"/>
</g>
<g class="st2">
	<path class="st1" d="M233.4,91.5c0.4-0.1,0.9-0.1,1.6-0.1c0.8,0,1.3,0.2,1.7,0.5c0.3,0.3,0.6,0.7,0.6,1.3c0,0.5-0.2,1-0.5,1.3
		c-0.4,0.4-1.1,0.6-1.8,0.6c-0.2,0-0.4,0-0.5,0v2.1h-1v-5.7H233.4z M234.5,94.2c0.1,0,0.3,0,0.5,0c0.8,0,1.3-0.4,1.3-1s-0.4-1-1.2-1
		c-0.3,0-0.5,0-0.6,0.1V94.2z"/>
	<path class="st1" d="M238.1,91.5c0.4-0.1,1-0.1,1.6-0.1c0.8,0,1.4,0.1,1.8,0.5c0.3,0.3,0.5,0.7,0.5,1.1c0,0.7-0.5,1.2-1,1.4l0,0
		c0.4,0.2,0.7,0.5,0.8,1.1c0.2,0.7,0.3,1.4,0.4,1.6h-1.1c-0.1-0.2-0.2-0.6-0.4-1.3c-0.2-0.7-0.4-1-1-1h-0.5v2.3h-1v-5.6H238.1z
		 M239.2,94h0.6c0.7,0,1.1-0.4,1.1-0.9c0-0.6-0.4-0.9-1.1-0.9c-0.3,0-0.5,0-0.6,0.1V94z"/>
	<path class="st1" d="M248,94.2c0,1.9-1.2,3-2.7,3c-1.6,0-2.6-1.2-2.6-2.9c0-1.8,1.1-3,2.7-3C247,91.3,248,92.6,248,94.2z
		 M243.8,94.3c0,1.2,0.6,2.1,1.6,2.1s1.6-0.9,1.6-2.1c0-1.1-0.5-2.1-1.6-2.1C244.3,92.2,243.8,93.1,243.8,94.3z"/>
	<path class="st1" d="M250.2,97.1l-1.8-5.7h1.1l0.8,2.6c0.2,0.7,0.4,1.4,0.6,2.1l0,0c0.2-0.7,0.4-1.4,0.6-2.1l0.8-2.6h1.1l-2,5.7
		H250.2z"/>
	<path class="st1" d="M255,91.4v5.7h-1v-5.7H255z"/>
	<path class="st1" d="M256.2,91.5c0.5-0.1,1-0.1,1.7-0.1c1.1,0,1.8,0.2,2.3,0.7c0.6,0.4,0.9,1.1,0.9,2.1s-0.3,1.8-0.9,2.3
		s-1.5,0.8-2.6,0.8c-0.6,0-1.1,0-1.4-0.1V91.5z M257.2,96.3c0.1,0,0.4,0,0.6,0c1.4,0,2.2-0.7,2.2-2.2c0-1.3-0.7-2-2-2
		c-0.3,0-0.6,0-0.7,0.1v4.1H257.2z"/>
	<path class="st1" d="M265.2,94.6H263v1.7h2.4v0.9H262v-5.7h3.3v0.9H263v1.5h2.1v0.7H265.2z"/>
	<path class="st1" d="M266.3,91.5c0.4-0.1,1-0.1,1.6-0.1c0.8,0,1.4,0.1,1.8,0.5c0.3,0.3,0.5,0.7,0.5,1.1c0,0.7-0.5,1.2-1,1.4l0,0
		c0.4,0.2,0.7,0.5,0.8,1.1c0.2,0.7,0.3,1.4,0.4,1.6h-1.1c-0.1-0.2-0.2-0.6-0.4-1.3c-0.2-0.7-0.4-1-1-1h-0.5v2.3h-1L266.3,91.5
		L266.3,91.5z M267.4,94h0.6c0.7,0,1.1-0.4,1.1-0.9c0-0.6-0.4-0.9-1.1-0.9c-0.3,0-0.5,0-0.6,0.1V94z"/>
</g>
<g class="st2">
	<path class="st3" d="M85.7,66.7c0.3,0.2,0.8,0.4,1.4,0.4c0.7,0,1-0.3,1-0.8c0-0.4-0.3-0.7-1-0.9c-0.9-0.3-1.5-0.8-1.5-1.7
		c0-0.9,0.8-1.6,2-1.6c0.6,0,1.1,0.1,1.4,0.3l-0.3,0.8c-0.2-0.1-0.6-0.3-1.1-0.3c-0.7,0-0.9,0.4-0.9,0.7c0,0.4,0.3,0.6,1.1,0.9
		c1,0.4,1.5,0.9,1.5,1.7c0,0.9-0.7,1.7-2.2,1.7c-0.6,0-1.2-0.2-1.5-0.4L85.7,66.7z"/>
	<path class="st3" d="M93.3,65.3h-2.1v1.7h2.4v0.9h-3.4v-5.7h3.3v0.9h-2.3v1.5h2.1V65.3z"/>
	<path class="st3" d="M94.5,67.8v-5.7h1.2l1.5,2.4c0.4,0.6,0.7,1.3,1,1.9h0c-0.1-0.8-0.1-1.5-0.1-2.4v-2h1v5.7h-1.1l-1.5-2.5
		c-0.4-0.6-0.7-1.3-1-2l0,0c0,0.7,0.1,1.5,0.1,2.4v2H94.5z"/>
	<path class="st3" d="M100.2,62.2c0.5-0.1,1-0.1,1.7-0.1c1.1,0,1.8,0.2,2.3,0.7c0.5,0.4,0.9,1.1,0.9,2.1c0,1-0.3,1.8-0.9,2.3
		c-0.6,0.5-1.5,0.8-2.6,0.8c-0.6,0-1.1,0-1.4-0.1V62.2z M101.3,67c0.1,0,0.4,0,0.6,0c1.4,0,2.2-0.7,2.2-2.2c0-1.3-0.7-2-2-2
		c-0.3,0-0.6,0-0.7,0.1V67z"/>
	<path class="st3" d="M108.5,63h-1.6v-0.9h4.3V63h-1.6v4.8h-1V63z"/>
	<path class="st3" d="M116.7,64.9c0,1.9-1.2,3-2.7,3c-1.6,0-2.6-1.2-2.6-2.9c0-1.8,1.1-3,2.7-3C115.7,62,116.7,63.3,116.7,64.9z
		 M112.4,65c0,1.2,0.6,2.1,1.6,2.1c1,0,1.6-0.9,1.6-2.1c0-1.1-0.5-2.1-1.6-2.1C113,62.8,112.4,63.8,112.4,65z"/>
	<path class="st3" d="M117.6,62.1h1v2.6h0c0.1-0.2,0.3-0.4,0.4-0.6l1.5-2h1.3l-2,2.4l2.1,3.3h-1.2l-1.6-2.6l-0.5,0.6v2h-1V62.1z"/>
	<path class="st3" d="M125.7,65.3h-2.1v1.7h2.4v0.9h-3.4v-5.7h3.3v0.9h-2.3v1.5h2.1V65.3z"/>
	<path class="st3" d="M126.8,67.8v-5.7h1.2l1.5,2.4c0.4,0.6,0.7,1.3,1,1.9h0c-0.1-0.8-0.1-1.5-0.1-2.4v-2h1v5.7h-1.1l-1.5-2.5
		c-0.4-0.6-0.7-1.3-1-2l0,0c0,0.7,0.1,1.5,0.1,2.4v2H126.8z"/>
</g>
<g>
	<g>
		<g>
			<path class="st4" d="M249.1,68.2h-10.6c-1.1,0-1.1,0-1.1,0.5v6.1c0,1.3,0.9,2.4,2.2,2.4h9.4v-9H249.1z M242.8,74.1
				c-1.3,0-2.3-1-2.3-2.3s1-2.3,2.3-2.3s2.3,1,2.3,2.3S244,74.1,242.8,74.1z"/>
			<path class="st5" d="M239,56.6h28.2c0.8,0,0.8-0.9,0.8-1.4V49c0-1.3-0.6-2.3-2-2.3h-26.3c-1.3,0-2.2,1-2.2,2.3v6.1
				C237.5,55.6,237.7,56.6,239,56.6z M242.8,49.7c1.3,0,2.3,1,2.3,2.3s-1,2.3-2.3,2.3s-2.3-1-2.3-2.3
				C240.4,50.8,241.5,49.7,242.8,49.7z"/>
			<path class="st3" d="M238.4,66.9h10.7v-4.2c0-2,2.8-3.8,6-4.7h-16.8c-1.1,0-0.9,0.9-0.9,1.4v6.1C237.5,66,237.3,66.9,238.4,66.9z
				 M242.8,60.1c1.3,0,2.3,1,2.3,2.3s-1,2.3-2.3,2.3s-2.3-1-2.3-2.3C240.4,61.1,241.5,60.1,242.8,60.1z"/>
		</g>
	</g>
	<g>
		<g>
			<path class="st1" d="M262.5,67.7c6.2,0,10.4-2.4,10.4-4.5s-4.3-4.5-10.4-4.5c-6.2,0-10.4,2.4-10.4,4.5
				C252.1,65.3,256.3,67.7,262.5,67.7"/>
		</g>
		<g>
			<path class="st1" d="M252.1,75.4v1.8v1c0,2.1,4.3,4.5,10.4,4.5c6.2,0,10.4-2.4,10.4-4.5v-1v-1.8c-1.8,1.9-5.8,3.2-10.4,3.2
				C257.8,78.6,253.8,77.3,252.1,75.4"/>
		</g>
		<g>
			<path class="st1" d="M252.1,70.4v1.1v1.7c0,2.1,4.3,4.5,10.4,4.5c6.2,0,10.4-2.4,10.4-4.5v-2.7c-1.8,1.9-5.8,3.2-10.4,3.2
				C257.8,73.7,253.8,72.3,252.1,70.4"/>
		</g>
		<g>
			<path class="st1" d="M252.1,65.4v2.7c0,2.1,4.3,4.5,10.4,4.5c6.2,0,10.4-2.4,10.4-4.5v-2.7c-1.8,1.9-5.8,3.2-10.4,3.2
				C257.8,68.7,253.8,67.4,252.1,65.4"/>
		</g>
	</g>
</g>
<g>
	<g>
		<g>
			<g>
				<path class="st5" d="M45.9,50.7c0,0,17.9-0.9,15.3,26.1H39.3l0.1-23.9L45.9,50.7z"/>
				<path class="st5" d="M32.9,50.7c0,0-17.9-0.9-15.3,26.1h21.9l-0.1-23.9L32.9,50.7z"/>
				<g>
					<rect x="33.3" y="37.9" class="st6" width="12.4" height="14.5"/>
					<path class="st6" d="M52.1,29.1c-1-0.8-1.6,0.3-1.6,0.3v-5.6c-0.5-7.7-11-7.6-11-7.6S29,16,28.5,23.8v5.6c0,0-0.7-1.1-1.6-0.3
						c-1,0.8,0.1,8.1,2.2,7.2c0,0,2.6,11,10.5,11s10.5-11,10.5-11C52,37.2,53.1,29.9,52.1,29.1z"/>
				</g>
				<path class="st7" d="M33.3,50.7c0,0,1.2,1.6,6.1,1.6v1.3c0,0-7.5,0.4-7.5-2.9C31.9,50.7,33.3,50.7,33.3,50.7z"/>
				<path class="st7" d="M45.5,50.7c0,0-1.2,1.6-6.1,1.6v1.3c0,0,7.5,0.4,7.5-2.9C46.9,50.7,45.5,50.7,45.5,50.7z"/>
				<path class="st8" d="M32.9,50.7"/>
				<path class="st9" d="M29,36.3c0,0,3.6,9.3,9,8.8v-1.5c0,0,0.6-0.2,1.3-0.1v3.8C39.4,47.3,31.9,48,29,36.3z"/>
				<path class="st9" d="M50,36.3c0,0-3.8,9.3-9.3,8.8v-1.5c0,0-0.7-0.2-1.3-0.1v3.8C39.4,47.3,47.1,48,50,36.3z"/>
			</g>
		</g>
		<path class="st9" d="M50.5,29.4c0,0,1.6-10.2-2-13.7V17c0,0-1.8-4.3-7.9-5.1l0.6,1.1c0,0-6-1.5-10.6,0.8l0.6,0.6
			c0,0-5.2,1.1-8.5,4.5l2.7,0.4l-1,1.9h2l0.8,7.5c0,0,0.5,0,1.2,0.6c0,0,0.4-6,1.5-7l0.2,1.4c0,0,3.4-0.8,7.1-3.1l-0.1,1.7
			c0,0,5.3-0.1,7.8-1.7l0.2,1.3l2.7-0.8c0,0,2.3,5.1,0.9,8.2C48.8,29.4,49.5,29,50.5,29.4z"/>
	</g>
</g>
<g>
	<g>
		<g>
			<g>
				<rect x="173.2" y="44.6" class="st6" width="12.6" height="32.5"/>
				<path class="st6" d="M192.3,35.7c-1-0.8-1.7,0.3-1.7,0.3v-5.7c-0.5-7.8-11.1-7.6-11.1-7.6s-10.6-0.2-11.1,7.6V36
					c0,0-0.7-1.2-1.7-0.3c-1,0.8,0.1,8.2,2.2,7.3c0,0,2.6,11.2,10.6,11.2S190.1,43,190.1,43C192.1,43.9,193.3,36.6,192.3,35.7z"/>
			</g>
			<path class="st4" d="M185.8,57.6c0,0,18.3-0.7,15.7,19.5h-22.2l0.1-5.6C186.3,71.5,185.8,57.6,185.8,57.6z"/>
			<path class="st4" d="M173.2,57.6c0,0-18.4-0.7-15.9,19.5h22.2l-0.1-5.6C173.2,71.6,173.2,57.6,173.2,57.6z"/>
			<path class="st8" d="M172.8,57.6"/>
			<path class="st10" d="M179.4,28.8c0,0-10.6-4.5-11,7.3c0,0-1.4-4.4-0.1-9.9l0.2,0.5c0,0,1-2.8,2.1-4.2l0.2,0.6
				c0,0,1.8-4.3,3.1-4.9l0.3,0.7c0,0,1.5-3.1,2.3-4.1l0.6,1.5l0.8-2.2l0.3,1.5l1.3-1.9v15.1C179.5,28.8,179.4,28.8,179.4,28.8z"/>
			<path class="st10" d="M179.4,28.8c0,0,10.6-4.5,11,7.3c0,0,1.4-4.4,0.1-9.9l-0.2,0.5c0,0-1-2.8-2.1-4.2l-0.2,0.6
				c0,0-1.8-4.3-3.1-4.9l-0.3,0.7c0,0-1.5-3.1-2.4-4.1l-0.6,1.5l-0.8-2.2l-0.3,1.5l-1.3-1.9v15.1C179.2,28.8,179.4,28.8,179.4,28.8z
				"/>
		</g>
	</g>
</g>
<path class="st11" d="M56,76.8H21.8c-0.8,0-1.4-0.6-1.4-1.4V56.9c0-0.8,0.6-1.4,1.4-1.4H56c0.8,0,1.4,0.6,1.4,1.4v18.6
	C57.5,76.2,56.8,76.8,56,76.8L56,76.8z"/>
<path class="st9" d="M64.6,79.7H15.2c-0.4,0-0.8-0.6-0.8-1.4s0.4-1.4,0.8-1.4h49.4c0.4,0,0.8,0.6,0.8,1.4S65.1,79.7,64.6,79.7
	L64.6,79.7z"/>
<path class="st9" d="M248.2,79.7h-93.3c-0.8,0-1.5-0.6-1.5-1.4s0.7-1.4,1.5-1.4h93.3c0.8,0,1.5,0.6,1.5,1.4
	C249.8,79.1,249.1,79.7,248.2,79.7L248.2,79.7z"/>
<path class="st12" d="M41.8,66.8c0,1.6-1.3,2.9-2.9,2.9c-1.6,0-2.9-1.3-2.9-2.9s1.3-2.9,2.9-2.9C40.5,64,41.8,65.3,41.8,66.8
	L41.8,66.8z"/>
<path class="st11" d="M227,67.6h-40.8c-2.3,0-4.1-1.8-4.1-4.1V39.1c0-2.3,1.8-4.1,4.1-4.1H227c2.3,0,4.1,1.8,4.1,4.1v24.5
	C231,65.8,229.2,67.6,227,67.6z"/>
<path class="st11" d="M193.6,77.3h-27.7c-1.5,0-2.8-0.1-2.8-0.3v-1.8c0-0.2,1.2-0.3,2.8-0.3h27.7c1.5,0,2.8,0.1,2.8,0.3V77
	C196.3,77.2,195.1,77.3,193.6,77.3z"/>
<path class="st13" d="M214.7,77.1l-2.4-18c-0.2-1.4-1.3-2.4-2.7-2.4h-6.1c-1.4,0-2.5,1-2.7,2.4l-2.4,18v2.7h16.3L214.7,77.1
	L214.7,77.1z"/>
<circle class="st12" cx="206.6" cy="48.6" r="2.7"/>
<path class="st3" d="M128.5,34.2h-40c-4,0-7.2-3.3-7.2-7.2l0,0c0-4,3.3-7.2,7.2-7.2h40c4,0,7.2,3.3,7.2,7.2l0,0
	C135.8,30.9,132.5,34.2,128.5,34.2z"/>
<g class="st2">
	<path class="st12" d="M95.1,25.1L95.1,25.1l-1,0.5l-0.2-0.8l1.3-0.7h0.9v5.5h-1V25.1z"/>
	<path class="st12" d="M100.3,29.7v-1.4h-2.5v-0.7l2.2-3.4h1.2v3.3h0.7v0.8h-0.7v1.4H100.3z M100.3,27.5V26c0-0.3,0-0.6,0-1h0
		c-0.2,0.3-0.3,0.6-0.5,0.9l-1,1.5l0,0H100.3z"/>
	<path class="st12" d="M102.8,29.7v-3.3h-0.6v-0.8h0.6v-0.2c0-0.5,0.1-1.1,0.5-1.4c0.3-0.3,0.7-0.4,1.1-0.4c0.3,0,0.5,0,0.7,0.1
		l-0.1,0.8c-0.1,0-0.3-0.1-0.4-0.1c-0.5,0-0.7,0.4-0.7,0.9v0.2h0.9v0.8h-0.9v3.3H102.8z"/>
	<path class="st12" d="M105.4,23.7h1v2.5h0c0.1-0.2,0.3-0.4,0.5-0.5c0.2-0.1,0.4-0.2,0.7-0.2c0.7,0,1.4,0.5,1.4,1.8v2.4h-1v-2.3
		c0-0.6-0.2-1-0.8-1c-0.4,0-0.7,0.3-0.8,0.6c0,0.1,0,0.2,0,0.3v2.5h-1V23.7z"/>
	<path class="st12" d="M110,28.3c0-0.7,0.4-1.1,1-1.4v0c-0.6-0.3-0.8-0.7-0.8-1.2c0-0.9,0.8-1.5,1.8-1.5c1.2,0,1.7,0.7,1.7,1.4
		c0,0.5-0.2,0.9-0.8,1.2v0c0.6,0.2,1,0.7,1,1.4c0,1-0.8,1.6-2,1.6C110.6,29.8,110,29.1,110,28.3z M112.9,28.2c0-0.6-0.4-0.9-1-1
		c-0.5,0.2-0.8,0.5-0.8,1c0,0.5,0.3,0.9,0.9,0.9C112.5,29.1,112.9,28.7,112.9,28.2z M111.1,25.6c0,0.4,0.4,0.7,0.9,0.9
		c0.4-0.1,0.7-0.4,0.7-0.8c0-0.4-0.2-0.8-0.8-0.8C111.4,24.8,111.1,25.2,111.1,25.6z"/>
	<path class="st12" d="M116.9,29.7v-1.4h-2.5v-0.7l2.2-3.4h1.2v3.3h0.7v0.8h-0.7v1.4H116.9z M116.9,27.5V26c0-0.3,0-0.6,0-1h0
		c-0.2,0.3-0.3,0.6-0.5,0.9l-1,1.5l0,0H116.9z"/>
	<path class="st12" d="M119.3,28.6c0.2,0.1,0.7,0.3,1.3,0.3c0.8,0,1.1-0.4,1.1-0.9c0-0.7-0.6-0.9-1.2-0.9h-0.5v-0.8h0.5
		c0.5,0,1.1-0.2,1.1-0.8c0-0.4-0.3-0.7-0.9-0.7c-0.4,0-0.9,0.2-1.1,0.3l-0.2-0.8c0.3-0.2,0.9-0.4,1.6-0.4c1.1,0,1.7,0.6,1.7,1.3
		c0,0.6-0.3,1-1,1.3v0c0.7,0.1,1.2,0.6,1.2,1.4c0,0.9-0.8,1.7-2.1,1.7c-0.7,0-1.2-0.2-1.5-0.4L119.3,28.6z"/>
</g>
</svg>
