<?xml version="1.0" encoding="UTF-8" standalone="no"?>
<svg
   xmlns:dc="http://purl.org/dc/elements/1.1/"
   xmlns:cc="http://creativecommons.org/ns#"
   xmlns:rdf="http://www.w3.org/1999/02/22-rdf-syntax-ns#"
   xmlns:svg="http://www.w3.org/2000/svg"
   xmlns="http://www.w3.org/2000/svg"
   xmlns:xlink="http://www.w3.org/1999/xlink"
   xmlns:sodipodi="http://sodipodi.sourceforge.net/DTD/sodipodi-0.dtd"
   xmlns:inkscape="http://www.inkscape.org/namespaces/inkscape"
   width="236"
   height="102"
   viewBox="0 0 236 102"
   version="1.1"
   id="svg61"
   sodipodi:docname="oneworld.svg"
   inkscape:version="0.92.1 r">
  <metadata
     id="metadata65">
    <rdf:RDF>
      <cc:Work
         rdf:about="">
        <dc:format>image/svg+xml</dc:format>
        <dc:type
           rdf:resource="http://purl.org/dc/dcmitype/StillImage" />
        <dc:title>Page 1</dc:title>
      </cc:Work>
    </rdf:RDF>
  </metadata>
  <sodipodi:namedview
     pagecolor="#ffffff"
     bordercolor="#666666"
     borderopacity="1"
     objecttolerance="10"
     gridtolerance="10"
     guidetolerance="10"
     inkscape:pageopacity="0"
     inkscape:pageshadow="2"
     inkscape:window-width="1920"
     inkscape:window-height="1021"
     id="namedview63"
     showgrid="false"
     inkscape:zoom="2.8284271"
     inkscape:cx="148.68525"
     inkscape:cy="49.183725"
     inkscape:window-x="0"
     inkscape:window-y="0"
     inkscape:window-maximized="1"
     inkscape:current-layer="svg61" />
  <!-- Generator: Sketch 45 (43475) - http://www.bohemiancoding.com/sketch -->
  <title
     id="title2">Page 1</title>
  <desc
     id="desc4">Created with Sketch.</desc>
  <defs
     id="defs8">
    <polygon
       id="path-1"
       points="0,15.670012 19.659381,15.670012 19.659381,0.24894673 0,0.24894673 " />
    <polygon
       id="path-3"
       points="359.59238,101.71259 359.59238,0 0,0 0,101.71259 " />
    <mask
       fill="white"
       id="mask-4">
      <use
         height="100%"
         width="100%"
         y="0"
         x="0"
         id="use30"
         xlink:href="#path-3" />
    </mask>
  </defs>
  <g
     style="fill:none;fill-rule:evenodd;stroke:none;stroke-width:1"
     id="Clip-33" />
  <g
     id="g4707">
    <path
       d="m 37.417238,37.460024 c 0,3.019963 1.417143,5.14814 3.748572,5.14814 2.354285,0 3.703333,-2.24257 3.703333,-5.239654 0,-2.768775 -1.325714,-5.14814 -3.726191,-5.14814 -2.354285,0 -3.725714,2.242094 -3.725714,5.239654 z m 11.132381,-0.206383 c 0,5.057103 -3.063333,8.122823 -7.566667,8.122823 -4.571428,0 -7.24619,-3.455131 -7.24619,-7.847804 0,-4.621935 2.949047,-8.077066 7.498095,-8.077066 4.731429,0 7.314762,3.546645 7.314762,7.802047 z"
       id="Fill-1"
       inkscape:connector-curvature="0"
       style="fill:#ffffff;fill-rule:evenodd;stroke:none;stroke-width:1" />
    <path
       d="M 50.833809,45.124848 V 29.703782 h 4.069048 l 3.200476,5.650991 c 0.914286,1.624374 1.828572,3.546168 2.514286,5.285411 h 0.06857 c -0.228572,-2.036663 -0.297143,-4.118607 -0.297143,-6.429336 v -4.507066 h 3.2 V 45.124848 H 59.931905 L 56.64,39.17596 c -0.914286,-1.647729 -1.92,-3.637682 -2.674286,-5.445561 l -0.06857,0.02288 c 0.09143,2.036186 0.137143,4.210121 0.137143,6.726757 v 4.644813 z"
       id="Fill-3"
       inkscape:connector-curvature="0"
       style="fill:#ffffff;fill-rule:evenodd;stroke:none;stroke-width:1" />
    <polygon
       id="Fill-5"
       points="76.114333,32.563262 70.102429,32.563262 70.102429,35.766729 75.771476,35.766729 75.771476,38.603664 70.102429,38.603664 70.102429,42.264701 76.434333,42.264701 76.434333,45.124991 66.60481,45.124991 66.60481,29.703449 76.114333,29.703449 "
       style="fill:#ffffff;fill-rule:evenodd;stroke:none;stroke-width:1" />
    <g
       id="Group-9"
       transform="translate(0,56.90885)"
       style="fill:none;fill-rule:evenodd;stroke:none;stroke-width:1">
      <mask
         id="mask-2"
         fill="white">
        <use
           xlink:href="#path-1"
           id="use13"
           x="0"
           y="0"
           width="100%"
           height="100%" />
      </mask>
      <g
         id="Clip-8" />
      <path
         d="M 3.6574762,15.670012 -1.4285714e-4,0.24894673 H 3.7265238 L 4.8922381,6.609171 c 0.3428571,1.830757 0.662381,3.821187 0.9142857,5.376925 h 0.045238 C 6.1036667,10.315965 6.4693809,8.4628065 6.8579524,6.5638906 L 8.1608095,0.24894673 h 3.7028575 l 1.234762,6.49749537 c 0.342857,1.8074018 0.594285,3.4551309 0.822857,5.1710189 H 13.967 c 0.228571,-1.715888 0.571905,-3.5237666 0.891429,-5.3535704 l 1.257619,-6.31494387 h 3.543333 L 15.681762,15.670012 H 11.909857 L 10.607,9.0347692 C 10.309857,7.4785542 10.057952,6.0372084 9.8755714,4.2755635 H 9.8298571 C 9.5555714,6.0143299 9.3036667,7.4785542 8.9379524,9.0347692 L 7.4750952,15.670012 Z"
         id="Fill-7"
         mask="url(#mask-2)"
         inkscape:connector-curvature="0"
         style="fill:#ffffff" />
    </g>
    <path
       d="m 24.251762,64.914039 c 0,3.019963 1.417143,5.14814 3.748571,5.14814 2.354286,0 3.703334,-2.24257 3.703334,-5.239654 0,-2.768775 -1.326191,-5.14814 -3.726191,-5.14814 -2.354286,0 -3.725714,2.242093 -3.725714,5.239654 m 11.132381,-0.206383 c 0,5.057103 -3.063333,8.122822 -7.566667,8.122822 -4.571428,0 -7.24619,-3.45513 -7.24619,-7.847803 0,-4.621935 2.949047,-8.077066 7.498095,-8.077066 4.731428,0 7.314762,3.546645 7.314762,7.802047"
       id="Fill-10"
       inkscape:connector-curvature="0"
       style="fill:#ffffff;fill-rule:evenodd;stroke:none;stroke-width:1" />
    <path
       d="m 41.120238,63.99847 h 1.371429 c 1.737142,0 2.765714,-0.869383 2.765714,-2.219215 0,-1.418467 -0.959524,-2.127701 -2.559524,-2.150579 -0.84619,0 -1.32619,0.06864 -1.577619,0.113916 z m -3.451905,-6.635243 c 1.120476,-0.183028 2.788572,-0.320299 4.640477,-0.320299 2.28619,0 3.88619,0.343178 4.983333,1.212561 0.914286,0.732112 1.417619,1.807878 1.417619,3.226346 0,1.968028 -1.394762,3.317859 -2.720476,3.797831 v 0.06911 c 1.074285,0.434692 1.668571,1.464225 2.057143,2.882692 0.480476,1.738766 0.960476,3.752551 1.257619,4.347393 h -3.566667 c -0.250952,-0.434692 -0.617143,-1.693486 -1.074286,-3.592402 -0.411428,-1.921795 -1.073809,-2.448 -2.491428,-2.470879 h -1.051429 v 6.063281 h -3.451905 z"
       id="Fill-12"
       inkscape:connector-curvature="0"
       style="fill:#ffffff;fill-rule:evenodd;stroke:none;stroke-width:1" />
    <polygon
       id="Fill-14"
       points="54.719714,69.650176 60.845905,69.650176 60.845905,72.578624 51.222095,72.578624 51.222095,57.157559 54.719714,57.157559 "
       style="fill:#ffffff;fill-rule:evenodd;stroke:none;stroke-width:1" />
    <path
       d="m 66.399286,69.947596 c 0.297143,0.06911 0.777619,0.06911 1.211428,0.06911 3.154762,0.0224 5.211905,-1.716364 5.211905,-5.40028 0.02286,-3.202991 -1.851428,-4.896477 -4.845714,-4.896477 -0.777143,0 -1.280476,0.06911 -1.577619,0.137271 z M 62.901667,57.363465 c 1.280476,-0.205906 2.949047,-0.320299 4.709047,-0.320299 2.925715,0 4.823334,0.525729 6.309524,1.647253 1.6,1.189682 2.605714,3.088598 2.605714,5.811617 0,2.951803 -1.074285,4.98799 -2.56,6.246308 -1.623333,1.350308 -4.091904,1.99043 -7.109523,1.99043 -1.805715,0 -3.086191,-0.114393 -3.954762,-0.228309 z"
       id="Fill-16"
       inkscape:connector-curvature="0"
       style="fill:#ffffff;fill-rule:evenodd;stroke:none;stroke-width:1" />
    <path
       d="m 123.51424,9.8430953 c -3.06286,4.1781867 -5.33762,9.1232807 -6.96524,13.9763827 -2.95905,-1.061467 -5.69762,-2.331224 -8.15809,-3.792588 4.24857,-4.367411 9.38857,-7.86115 15.12333,-10.1837947 z M 171.67662,20.02689 c -2.46048,1.461364 -5.19953,2.731121 -8.1581,3.792588 -1.62762,-4.852626 -3.90285,-9.797719 -6.96571,-13.9763827 5.73524,2.3226447 10.87524,5.8163837 15.12381,10.1837947 z m -15.12333,71.842794 c 3.06238,-4.178663 5.33761,-9.12328 6.96523,-13.97686 2.95857,1.061944 5.69762,2.331701 8.1581,3.792589 -4.24857,4.367888 -9.38857,7.861626 -15.12333,10.184271 z M 108.39091,81.685413 c 2.46047,-1.460888 5.19952,-2.730645 8.15809,-3.792589 1.62762,4.853103 3.90238,9.79772 6.96524,13.97686 -5.73476,-2.322645 -10.87476,-5.816383 -15.12333,-10.184271 z m 28.32904,-47.47957 v 13.333878 h -17.6119 c 0.19619,-5.414579 0.87381,-10.632308 1.99,-15.463485 4.91762,1.194448 10.18333,1.919411 15.6219,2.129607 z m 0,-26.9599346 V 27.568217 c -4.82714,-0.200187 -9.48238,-0.834589 -13.81714,-1.866982 2.35952,-6.932186 6.97238,-15.9410742 13.81714,-18.4553266 z m 6.62714,20.3223086 V 7.2459084 c 6.84334,2.5137757 11.4562,11.5183736 13.81762,18.4553266 -4.33476,1.032393 -8.99,1.666795 -13.81762,1.866982 z m 17.61239,19.971504 H 143.34709 V 34.205843 c 5.43905,-0.210196 10.70477,-0.935159 15.62239,-2.129607 1.11619,4.831177 1.79381,10.048906 1.99,15.463485 z M 143.34709,67.505983 V 54.150656 h 17.61239 c -0.19619,5.414103 -0.87381,10.654234 -1.99,15.485411 -4.91762,-1.194448 -10.18334,-1.918934 -15.62239,-2.130084 z m 0,26.960888 V 74.144086 c 4.82762,0.200187 9.48286,0.835065 13.81762,1.867458 -2.36,6.93171 -6.97285,15.940598 -13.81762,18.455327 z m -6.62714,-20.322785 v 20.322785 c -6.84286,-2.513776 -11.45571,-11.51885 -13.81714,-18.455327 4.33476,-1.032869 8.99,-1.667271 13.81714,-1.867458 z m 0,-6.638103 c -5.43857,0.21115 -10.70428,0.935636 -15.6219,2.130084 -1.11619,-4.831177 -1.79381,-10.049383 -1.99,-15.463009 h 17.6119 z m 39.2581,9.036056 c -3.16953,-1.979467 -6.75524,-3.665327 -10.6481,-5.028981 1.28381,-5.430308 2.05334,-11.308178 2.25905,-17.361925 h 16.5019 c -0.61714,8.299654 -3.53381,15.990168 -8.11285,22.390906 z m 8.11333,-29.002318 h -16.5019 c -0.20619,-6.053747 -0.97572,-11.909214 -2.25905,-17.34 3.89286,-1.363654 7.47809,-3.049514 10.64809,-5.029457 4.57857,6.400738 7.49524,14.069803 8.11286,22.369457 z m -80.0019,-22.369457 c 3.16952,1.979467 6.75523,3.665803 10.64761,5.029457 -1.28333,5.430309 -2.05285,11.286253 -2.25857,17.339524 H 95.976143 c 0.617619,-8.299178 3.534286,-15.968243 8.113337,-22.368981 z m -8.113337,29.002794 h 16.501907 c 0.20619,6.053748 0.97571,11.909215 2.25904,17.339523 -3.89285,1.363655 -7.47809,3.049991 -10.64809,5.029458 -4.578571,-6.400738 -7.495238,-14.069327 -8.112857,-22.368981 z m 44.057617,47.539622 c 28.01572,0 50.80905,-22.814155 50.80905,-50.856529 0,-28.041897 -22.79333,-50.856055672897 -50.80905,-50.856055672897 -28.01619,0 -50.809046,22.814158672897 -50.809046,50.856055672897 0,28.042374 22.792856,50.856529 50.809046,50.856529 z"
       id="Fill-45"
       mask="url(#mask-4)"
       inkscape:connector-curvature="0"
       style="fill:#ffffff;fill-rule:evenodd;stroke:none;stroke-width:1" />
    <polygon
       id="Fill-46"
       mask="url(#mask-4)"
       points="184.09143,54.095748 209.89048,54.095748 209.89048,47.616841 184.09143,47.616841 "
       style="fill:#ffffff;fill-rule:evenodd;stroke:none;stroke-width:1" />
    <path
       d="m 230.12229,50.894711 c 0,5.297804 -4.29096,9.591813 -9.58286,9.591813 -5.29286,0 -9.58381,-4.294009 -9.58381,-9.591813 0,-5.29685 4.29095,-9.591813 9.58381,-9.591813 5.2919,0 9.58286,4.294963 9.58286,9.591813"
       id="Fill-47"
       mask="url(#mask-4)"
       inkscape:connector-curvature="0"
       style="fill:#ee3f3f;fill-rule:evenodd;stroke:none;stroke-width:1" />
    <path
       d="m 220.20762,41.164674 c -5.33905,0 -9.68238,4.347392 -9.68238,9.69143 0,5.344037 4.34333,9.691906 9.68238,9.691906 5.33905,0 9.68238,-4.347869 9.68238,-9.691906 0,-5.344038 -4.34333,-9.69143 -9.68238,-9.69143 m 0,25.102962 c -8.49,0 -15.39667,-6.913598 -15.39667,-15.411532 0,-8.497458 6.90667,-15.411056 15.39667,-15.411056 8.49,0 15.39667,6.913598 15.39667,15.411056 0,8.497934 -6.90667,15.411532 -15.39667,15.411532"
       id="Fill-48"
       mask="url(#mask-4)"
       inkscape:connector-curvature="0"
       style="fill:#ffffff;fill-rule:evenodd;stroke:none;stroke-width:1" />
    <path
       d="m 218.76652,27.289623 c -0.4719,0.472346 -0.72047,1.136776 -0.74762,1.774514 0,0.66586 0.27572,1.303598 0.74762,1.774038 0.47048,0.471869 1.10762,0.749271 1.77143,0.749271 0.66572,0 1.30286,-0.277402 1.77286,-0.749271 0.47095,-0.47044 0.74809,-1.108178 0.74809,-1.774038 0,-0.664906 -0.27714,-1.302168 -0.74809,-1.774514 -0.47,-0.470916 -1.10714,-0.747364 -1.77286,-0.747364 -0.66381,0 -1.30095,0.276448 -1.77143,0.747364"
       id="Fill-49"
       mask="url(#mask-4)"
       inkscape:connector-curvature="0"
       style="fill:#ffffff;fill-rule:evenodd;stroke:none;stroke-width:1" />
    <path
       d="m 218.01876,20.969579 c 0,1.386057 1.10762,2.494234 2.52048,2.522832 1.4119,0 2.51952,-1.136775 2.51952,-2.522832 0,-1.413224 -1.13428,-2.523308 -2.51952,-2.523308 -1.38429,0 -2.52048,1.137252 -2.52048,2.523308"
       id="Fill-50"
       mask="url(#mask-4)"
       inkscape:connector-curvature="0"
       style="fill:#ffffff;fill-rule:evenodd;stroke:none;stroke-width:1" />
    <path
       d="m 218.01876,12.846757 c 0,1.386056 1.10762,2.522832 2.52048,2.522832 1.4119,0 2.51952,-1.136776 2.51952,-2.522832 0,-1.386056 -1.13428,-2.521878 -2.51952,-2.521878 -1.38429,0 -2.52048,1.135822 -2.52048,2.521878"
       id="Fill-51"
       mask="url(#mask-4)"
       inkscape:connector-curvature="0"
       style="fill:#ffffff;fill-rule:evenodd;stroke:none;stroke-width:1" />
    <path
       d="m 220.53805,2.2299869 c -1.38476,0 -2.49191,1.1086542 -2.51953,2.5218785 0,1.4146542 1.13477,2.5228318 2.51953,2.5228318 1.41333,0 2.52047,-1.1367757 2.52047,-2.5228318 0,-1.4132243 -1.13571,-2.5218785 -2.52047,-2.5218785"
       id="Fill-52"
       mask="url(#mask-4)"
       inkscape:connector-curvature="0"
       style="fill:#ffffff;fill-rule:evenodd;stroke:none;stroke-width:1" />
    <path
       d="m 218.76652,95.448073 c -0.4719,0.472822 -0.72047,1.137252 -0.74762,1.774991 0,0.665859 0.27572,1.303598 0.74762,1.774037 0.47048,0.471869 1.10762,0.749271 1.77143,0.749271 0.66572,0 1.30286,-0.277402 1.77286,-0.749271 0.47095,-0.470439 0.74809,-1.108178 0.74809,-1.774037 0,-0.664907 -0.27714,-1.302169 -0.74809,-1.774991 -0.47,-0.470439 -1.10714,-0.746888 -1.77286,-0.746888 -0.66381,0 -1.30095,0.276449 -1.77143,0.746888"
       id="Fill-53"
       mask="url(#mask-4)"
       inkscape:connector-curvature="0"
       style="fill:#ffffff;fill-rule:evenodd;stroke:none;stroke-width:1" />
    <path
       d="m 218.01876,89.128458 c 0,1.386056 1.10762,2.494234 2.52048,2.522832 1.4119,0 2.51952,-1.136776 2.51952,-2.522832 0,-1.413224 -1.13428,-2.523309 -2.51952,-2.523309 -1.38429,0 -2.52048,1.137253 -2.52048,2.523309"
       id="Fill-54"
       mask="url(#mask-4)"
       inkscape:connector-curvature="0"
       style="fill:#ffffff;fill-rule:evenodd;stroke:none;stroke-width:1" />
    <path
       d="m 218.01876,81.005635 c 0,1.386057 1.10762,2.522832 2.52048,2.522832 1.4119,0 2.51952,-1.136775 2.51952,-2.522832 0,-1.386056 -1.13428,-2.522355 -2.51952,-2.522355 -1.38429,0 -2.52048,1.136299 -2.52048,2.522355"
       id="Fill-55"
       mask="url(#mask-4)"
       inkscape:connector-curvature="0"
       style="fill:#ffffff;fill-rule:evenodd;stroke:none;stroke-width:1" />
    <path
       d="m 220.53805,70.388865 c -1.38476,0 -2.49191,1.108655 -2.51953,2.521879 0,1.414654 1.13477,2.522832 2.51953,2.522832 1.41333,0 2.52047,-1.136776 2.52047,-2.522832 0,-1.413224 -1.13571,-2.521879 -2.52047,-2.521879"
       id="Fill-56"
       mask="url(#mask-4)"
       inkscape:connector-curvature="0"
       style="fill:#ffffff;fill-rule:evenodd;stroke:none;stroke-width:1" />
  </g>
</svg>
