<?xml version="1.0" encoding="UTF-8" standalone="no"?>
<!-- Generator: Adobe Illustrator 21.0.0, SVG Export Plug-In . SVG Version: 6.00 Build 0)  -->

<svg
   xmlns:dc="http://purl.org/dc/elements/1.1/"
   xmlns:cc="http://creativecommons.org/ns#"
   xmlns:rdf="http://www.w3.org/1999/02/22-rdf-syntax-ns#"
   xmlns:svg="http://www.w3.org/2000/svg"
   xmlns="http://www.w3.org/2000/svg"
   xmlns:sodipodi="http://sodipodi.sourceforge.net/DTD/sodipodi-0.dtd"
   xmlns:inkscape="http://www.inkscape.org/namespaces/inkscape"
   version="1.1"
   id="Warstwa_1"
   x="0px"
   y="0px"
   width="260"
   height="80"
   viewBox="0 0 260 79.999999"
   xml:space="preserve"
   inkscape:version="0.91 r13725"
   sodipodi:docname="oneprovider-logo.svg"><metadata
     id="metadata51"><rdf:RDF><cc:Work
         rdf:about=""><dc:format>image/svg+xml</dc:format><dc:type
           rdf:resource="http://purl.org/dc/dcmitype/StillImage" /><dc:title></dc:title></cc:Work></rdf:RDF></metadata><defs
     id="defs49" /><sodipodi:namedview
     pagecolor="#ffffff"
     bordercolor="#666666"
     borderopacity="1"
     objecttolerance="10"
     gridtolerance="10"
     guidetolerance="10"
     inkscape:pageopacity="0"
     inkscape:pageshadow="2"
     inkscape:window-width="1584"
     inkscape:window-height="692"
     id="namedview47"
     showgrid="true"
     inkscape:zoom="3.1624758"
     inkscape:cx="120.61881"
     inkscape:cy="35.183078"
     inkscape:window-x="243"
     inkscape:window-y="113"
     inkscape:window-maximized="0"
     inkscape:current-layer="Warstwa_1"><inkscape:grid
       type="xygrid"
       id="grid4155" /></sodipodi:namedview><style
     type="text/css"
     id="style3">
	.st0{fill:#1E1E1C;}
	.st1{fill:#E84041;}
	.st2{fill:#595959;}
</style><g
     id="g4179"
     transform="matrix(0.5451448,0,0,0.5451448,18.073658,24)"><g
       id="g5"><path
         id="path7"
         d="m 113,40.9 c -2.7,3.5 -7.2,5.3 -13.7,5.3 -6.5,0 -11.1,-1.8 -13.7,-5.3 -2.7,-3.5 -4,-9.1 -4,-16.6 0,-7.5 1.3,-13.1 4,-16.8 C 88.2,3.8 92.8,2 99.3,2 c 6.5,0 11.1,1.8 13.7,5.5 2.7,3.7 4,9.3 4,16.8 0,7.5 -1.3,13.1 -4,16.6 z M 92.4,35.4 c 1.2,2.2 3.6,3.3 6.9,3.3 3.4,0 5.7,-1.1 6.9,-3.3 1.2,-2.2 1.9,-5.9 1.9,-11.1 0,-5.2 -0.6,-8.9 -1.9,-11.3 -1.3,-2.3 -3.6,-3.5 -6.9,-3.5 -3.4,0 -5.7,1.2 -6.9,3.5 -1.3,2.3 -1.9,6.1 -1.9,11.3 0,5.2 0.6,8.9 1.9,11.1 z"
         class="st0"
         inkscape:connector-curvature="0"
         style="fill:#1e1e1c" /><path
         id="path9"
         d="m 132.1,45.5 -8.4,0 0,-31.4 8.4,0 0,1.8 c 2.8,-1.7 5.5,-2.5 7.9,-2.5 4.2,0 7.1,1.2 8.7,3.7 1.6,2.5 2.4,6.3 2.4,11.4 l 0,17 -8.4,0 0,-16.8 c 0,-2.7 -0.3,-4.7 -0.9,-5.9 -0.6,-1.2 -1.9,-1.9 -3.8,-1.9 -1.7,0 -3.4,0.3 -5,0.9 l -0.8,0.3 0,23.4 z"
         class="st0"
         inkscape:connector-curvature="0"
         style="fill:#1e1e1c" /><path
         id="path11"
         d="m 166.9,37.5 c 1,0.9 2.4,1.3 4.2,1.3 3.9,0 7.4,-0.1 10.4,-0.4 l 1.8,-0.2 0.1,6.2 c -4.8,1.2 -9.2,1.8 -13.1,1.8 -4.7,0 -8.2,-1.3 -10.3,-3.8 -2.1,-2.5 -3.2,-6.6 -3.2,-12.3 0,-11.3 4.6,-16.9 13.9,-16.9 9.1,0 13.7,4.7 13.7,14.2 l -0.6,5.8 -18.5,0 c 0.1,2.1 0.6,3.5 1.6,4.3 z m 9.3,-10.6 c 0,-2.5 -0.4,-4.3 -1.2,-5.2 -0.8,-1 -2.2,-1.5 -4.2,-1.5 -2,0 -3.4,0.5 -4.2,1.5 -0.8,1 -1.2,2.8 -1.3,5.2 l 10.9,0 z"
         class="st0"
         inkscape:connector-curvature="0"
         style="fill:#1e1e1c" /><path
         id="path13"
         d="m 190.5,58.7 0,-44.6 8.4,0 0,1.7 c 2.7,-1.6 5.1,-2.5 7.2,-2.5 4.2,0 7.4,1.3 9.4,3.8 2,2.5 3,6.8 3,12.9 0,6.1 -1.1,10.3 -3.3,12.7 -2.2,2.4 -5.9,3.6 -10.9,3.6 -1.4,0 -2.9,-0.1 -4.5,-0.4 l -0.8,-0.1 0,12.9 -8.5,0 z m 13.9,-37.9 c -1.6,0 -3.1,0.3 -4.7,0.9 l -0.8,0.3 0,16.5 c 1.9,0.3 3.4,0.4 4.6,0.4 2.4,0 4.1,-0.7 5,-2.1 0.9,-1.4 1.4,-3.9 1.4,-7.3 0,-5.8 -1.8,-8.7 -5.5,-8.7 z"
         class="st0"
         inkscape:connector-curvature="0"
         style="fill:#1e1e1c" /><path
         id="path15"
         d="m 224.7,45.5 0,-31.4 8.4,0 0,3.3 c 3.5,-2.1 6.9,-3.5 10.1,-4.1 l 0,8.5 c -3.4,0.7 -6.3,1.4 -8.7,2.2 l -1.3,0.4 0,21.1 -8.5,0 z"
         class="st0"
         inkscape:connector-curvature="0"
         style="fill:#1e1e1c" /><path
         id="path17"
         d="m 249.8,17.6 c 2.2,-2.9 5.9,-4.3 11.1,-4.3 5.2,0 8.9,1.4 11.1,4.3 2.2,2.9 3.3,6.9 3.3,12.1 0,11 -4.8,16.5 -14.5,16.5 -9.6,0 -14.5,-5.5 -14.5,-16.5 0.2,-5.2 1.3,-9.2 3.5,-12.1 z m 6.5,19.2 c 0.9,1.5 2.4,2.3 4.6,2.3 2.2,0 3.8,-0.8 4.6,-2.3 0.9,-1.5 1.3,-3.9 1.3,-7.1 0,-3.2 -0.4,-5.6 -1.3,-7 -0.9,-1.5 -2.4,-2.2 -4.6,-2.2 -2.2,0 -3.8,0.7 -4.6,2.2 -0.9,1.5 -1.3,3.8 -1.3,7 0,3.2 0.4,5.6 1.3,7.1 z"
         class="st0"
         inkscape:connector-curvature="0"
         style="fill:#1e1e1c" /><path
         id="path19"
         d="m 278.1,14.1 8.8,0 5,24.3 1.8,0 5.3,-24.3 8.5,0 -7.5,31.4 -14.3,0 -7.6,-31.4 z"
         class="st0"
         inkscape:connector-curvature="0"
         style="fill:#1e1e1c" /><path
         id="path21"
         d="m 312.4,10 0,-8.5 8.4,0 0,8.5 -8.4,0 z m 0,35.5 0,-31.4 8.4,0 0,31.4 -8.4,0 z"
         class="st0"
         inkscape:connector-curvature="0"
         style="fill:#1e1e1c" /><path
         id="path23"
         d="m 355.3,1.5 0,44 -8.3,0 0,-1.3 c -2.9,1.4 -5.5,2.1 -7.6,2.1 -4.6,0 -7.8,-1.3 -9.6,-4 -1.8,-2.6 -2.7,-6.8 -2.7,-12.5 0,-5.7 1.1,-9.9 3.2,-12.5 2.2,-2.6 5.4,-3.9 9.8,-3.9 1.3,0 3.2,0.2 5.6,0.6 l 1.2,0.3 0,-12.8 8.4,0 z m -9.3,36.4 0.9,-0.2 0,-16.5 c -2.3,-0.4 -4.4,-0.6 -6.2,-0.6 -3.4,0 -5.1,3 -5.1,9.1 0,3.3 0.4,5.6 1.1,7 0.8,1.4 2,2.1 3.7,2.1 1.9,-0.1 3.7,-0.4 5.6,-0.9 z"
         class="st0"
         inkscape:connector-curvature="0"
         style="fill:#1e1e1c" /><path
         id="path25"
         d="m 371.6,37.5 c 1,0.9 2.4,1.3 4.2,1.3 3.9,0 7.4,-0.1 10.4,-0.4 l 1.8,-0.2 0.1,6.2 c -4.8,1.2 -9.2,1.8 -13.1,1.8 -4.7,0 -8.2,-1.3 -10.3,-3.8 -2.1,-2.5 -3.2,-6.6 -3.2,-12.3 0,-11.3 4.6,-16.9 13.9,-16.9 9.1,0 13.7,4.7 13.7,14.2 l -0.6,5.8 -18.5,0 c 0.1,2.1 0.6,3.5 1.6,4.3 z m 9.3,-10.6 c 0,-2.5 -0.4,-4.3 -1.2,-5.2 -0.8,-1 -2.2,-1.5 -4.2,-1.5 -2,0 -3.4,0.5 -4.2,1.5 -0.8,1 -1.2,2.8 -1.3,5.2 l 10.9,0 z"
         class="st0"
         inkscape:connector-curvature="0"
         style="fill:#1e1e1c" /><path
         id="path27"
         d="m 395.2,45.5 0,-31.4 8.4,0 0,3.3 c 3.5,-2.1 6.9,-3.5 10.1,-4.1 l 0,8.5 c -3.4,0.7 -6.3,1.4 -8.7,2.2 l -1.3,0.4 0,21.1 -8.5,0 z"
         class="st0"
         inkscape:connector-curvature="0"
         style="fill:#1e1e1c" /></g><g
       id="g29"><g
         id="g31"><path
           id="path33"
           d="m 53.9,45.5 c -2.6,2.5 -8,4.3 -14.3,4.3 -6.3,0 -11.7,-1.7 -14.3,-4.3 -1.1,1 -1.7,2.2 -1.7,3.4 0,4.2 7.2,7.7 16,7.7 8.8,0 16,-3.4 16,-7.7 0,-1.3 -0.7,-2.4 -1.7,-3.4 z"
           class="st1"
           inkscape:connector-curvature="0"
           style="fill:#e84041" /><path
           id="path35"
           d="m 53.9,35.2 c -2.6,2.5 -8,4.3 -14.3,4.3 -6.3,0 -11.7,-1.7 -14.3,-4.3 -1.1,1 -1.7,2.2 -1.7,3.4 0,4.2 7.2,7.7 16,7.7 8.8,0 16,-3.4 16,-7.7 0,-1.2 -0.7,-2.3 -1.7,-3.4 z"
           class="st1"
           inkscape:connector-curvature="0"
           style="fill:#e84041" /><ellipse
           id="ellipse37"
           ry="7.6999998"
           rx="16"
           cy="28.4"
           cx="39.599998"
           class="st1"
           style="fill:#e84041" /></g></g><g
       id="g39"><path
         id="path41"
         d="m 20.1,37.2 -18.3,0 C 0,37.2 0,37.9 0,38.7 l 0,10.5 c 0,2.3 1.6,3.4 3.9,3.4 l 16.3,0 0,-15.4 z M 9.1,48 c -2.2,0 -4,-1.8 -4,-4 0,-2.2 1.8,-4 4,-4 2.2,0 4,1.8 4,4 0.1,2.2 -1.7,4 -4,4 z"
         class="st2"
         inkscape:connector-curvature="0"
         style="fill:#595959" /><path
         id="path43"
         d="m 2.6,17 48.7,0 c 1.3,0 1.4,-0.9 1.4,-1.8 l 0,-10.5 C 52.7,2.4 51.6,0 49.3,0 L 3.9,0 C 1.6,0 0,2.5 0,4.7 L 0,15.2 C 0,16.1 0.4,17 2.6,17 Z M 9.1,6 c 2.2,0 4,1.8 4,4 0,2.2 -1.8,4 -4,4 -2.2,0 -4,-1.8 -4,-4 0,-2.2 1.8,-4 4,-4 z"
         class="st2"
         inkscape:connector-curvature="0"
         style="fill:#595959" /><path
         id="path45"
         d="m 1.7,34.1 18.4,0 0,-6.6 c 0,-3.4 4.7,-7.3 10.3,-8.9 l -29,0 c -1.9,0 -1.5,2.3 -1.5,3.1 l 0,10.5 c 0.1,0.9 -0.2,1.9 1.8,1.9 z M 9.1,23 c 2.2,0 4,1.8 4,4 0,2.2 -1.8,4 -4,4 -2.2,0 -4,-1.8 -4,-4 0,-2.2 1.8,-4 4,-4 z"
         class="st2"
         inkscape:connector-curvature="0"
         style="fill:#595959" /></g></g></svg>