<?xml version="1.0" encoding="UTF-8" standalone="no"?>
<!-- Generator: Adobe Illustrator 21.0.0, SVG Export Plug-In . SVG Version: 6.00 Build 0)  -->

<svg
   xmlns:dc="http://purl.org/dc/elements/1.1/"
   xmlns:cc="http://creativecommons.org/ns#"
   xmlns:rdf="http://www.w3.org/1999/02/22-rdf-syntax-ns#"
   xmlns:svg="http://www.w3.org/2000/svg"
   xmlns="http://www.w3.org/2000/svg"
   xmlns:sodipodi="http://sodipodi.sourceforge.net/DTD/sodipodi-0.dtd"
   xmlns:inkscape="http://www.inkscape.org/namespaces/inkscape"
   version="1.1"
   id="Warstwa_1"
   x="0px"
   y="0px"
   width="260"
   height="80"
   viewBox="0 0 260.00001 80.000003"
   xml:space="preserve"
   inkscape:version="0.91 r13725"
   sodipodi:docname="onepanel-logo.svg"><metadata
     id="metadata43"><rdf:RDF><cc:Work
         rdf:about=""><dc:format>image/svg+xml</dc:format><dc:type
           rdf:resource="http://purl.org/dc/dcmitype/StillImage" /><dc:title /></cc:Work></rdf:RDF></metadata><defs
     id="defs41" /><sodipodi:namedview
     pagecolor="#ffffff"
     bordercolor="#666666"
     borderopacity="1"
     objecttolerance="10"
     gridtolerance="10"
     guidetolerance="10"
     inkscape:pageopacity="0"
     inkscape:pageshadow="2"
     inkscape:window-width="1670"
     inkscape:window-height="810"
     id="namedview39"
     showgrid="true"
     inkscape:zoom="5.4437652"
     inkscape:cx="82.33549"
     inkscape:cy="37.314594"
     inkscape:window-x="0"
     inkscape:window-y="0"
     inkscape:window-maximized="0"
     inkscape:current-layer="Warstwa_1"
     showguides="true"
     inkscape:guide-bbox="true"><sodipodi:guide
       position="-591.27278,437.47951"
       orientation="-0.70710678,0.70710678"
       id="guide4153" /><inkscape:grid
       type="xygrid"
       id="grid4157" /></sodipodi:namedview><style
     type="text/css"
     id="style3">
	.st0{fill:#1E1E1C;}
	.st1{fill:#595959;}
	.st2{fill:#E84040;}
</style><g
     id="g4171"
     transform="matrix(0.44692737,0,0,0.44692737,17.981878,23.553073)"><g
       id="g5"><path
         id="path7"
         d="m 123.6,47 c -2.6,3.5 -7.1,5.2 -13.5,5.2 -6.4,0 -10.9,-1.7 -13.5,-5.2 -2.6,-3.5 -3.9,-8.9 -3.9,-16.4 0,-7.4 1.3,-13 3.9,-16.6 2.6,-3.6 7.1,-5.4 13.5,-5.4 6.4,0 10.9,1.8 13.5,5.4 2.6,3.6 3.9,9.1 3.9,16.6 0.1,7.4 -1.2,12.9 -3.9,16.4 z m -20.3,-5.5 c 1.2,2.2 3.5,3.3 6.8,3.3 3.3,0 5.6,-1.1 6.8,-3.3 1.2,-2.2 1.8,-5.8 1.8,-10.9 0,-5.1 -0.6,-8.8 -1.9,-11.1 -1.2,-2.3 -3.5,-3.5 -6.8,-3.5 -3.3,0 -5.6,1.2 -6.8,3.5 -1.2,2.3 -1.9,6 -1.9,11.1 0.1,5.1 0.7,8.8 2,10.9 z"
         class="st0"
         inkscape:connector-curvature="0"
         style="fill:#1e1e1c" /><path
         id="path9"
         d="m 142.4,51.5 -8.3,0 0,-31 8.2,0 0,1.7 c 2.8,-1.7 5.4,-2.5 7.7,-2.5 4.1,0 7,1.2 8.5,3.7 1.6,2.4 2.4,6.2 2.4,11.3 l 0,16.8 -8.3,0 0,-16.6 c 0,-2.6 -0.3,-4.6 -0.9,-5.9 -0.6,-1.3 -1.9,-1.9 -3.7,-1.9 -1.7,0 -3.3,0.3 -4.9,0.9 l -0.7,0.2 0,23.3 z"
         class="st0"
         inkscape:connector-curvature="0"
         style="fill:#1e1e1c" /><path
         id="path11"
         d="m 176.7,43.6 c 1,0.8 2.4,1.3 4.2,1.3 3.8,0 7.3,-0.1 10.3,-0.4 l 1.7,-0.2 0.1,6.1 c -4.7,1.2 -9,1.7 -12.9,1.7 -4.7,0 -8.1,-1.2 -10.2,-3.7 -2.1,-2.5 -3.2,-6.5 -3.2,-12.1 0,-11.1 4.6,-16.7 13.7,-16.7 9,0 13.5,4.7 13.5,14 l -0.6,5.8 -18.2,0 c 0.1,2 0.6,3.4 1.6,4.2 z m 9.1,-10.4 c 0,-2.5 -0.4,-4.2 -1.2,-5.2 -0.8,-1 -2.2,-1.5 -4.1,-1.5 -1.9,0 -3.3,0.5 -4.1,1.5 -0.8,1 -1.2,2.7 -1.3,5.1 l 10.7,0 z"
         class="st0"
         inkscape:connector-curvature="0"
         style="fill:#1e1e1c" /><path
         id="path13"
         d="m 200,64.5 0,-44 8.2,0 0,1.7 c 2.7,-1.6 5,-2.4 7.1,-2.4 4.2,0 7.2,1.2 9.2,3.7 2,2.5 3,6.7 3,12.7 0,6 -1.1,10.1 -3.3,12.5 -2.2,2.3 -5.8,3.5 -10.8,3.5 -1.4,0 -2.8,-0.1 -4.4,-0.4 l -0.7,-0.1 0,12.8 -8.3,0 z m 13.7,-37.3 c -1.5,0 -3.1,0.3 -4.6,0.9 l -0.7,0.3 0,16.2 c 1.9,0.2 3.4,0.4 4.5,0.4 2.4,0 4,-0.7 4.9,-2.1 0.9,-1.4 1.3,-3.8 1.3,-7.2 -0.1,-5.7 -1.9,-8.5 -5.4,-8.5 z"
         class="st0"
         inkscape:connector-curvature="0"
         style="fill:#1e1e1c" /><path
         id="path15"
         d="m 257.4,30.2 0,12.8 c 0.1,1 0.2,1.7 0.5,2.1 0.2,0.4 0.8,0.7 1.5,0.8 l -0.2,6.3 c -2.1,0 -3.8,-0.1 -5,-0.4 -1.3,-0.3 -2.5,-0.9 -3.8,-1.7 -3,1.4 -6,2.2 -9.1,2.2 -6.4,0 -9.6,-3.4 -9.6,-10.2 0,-3.3 0.9,-5.6 2.7,-7 1.8,-1.4 4.5,-2.2 8.2,-2.4 l 6.6,-0.5 0,-1.9 c 0,-1.3 -0.3,-2.2 -0.9,-2.6 -0.6,-0.5 -1.5,-0.7 -2.8,-0.7 l -11.6,0.5 -0.2,-5.8 c 4.4,-1.2 8.6,-1.8 12.6,-1.8 4,0 6.9,0.8 8.6,2.5 1.6,1.5 2.5,4.1 2.5,7.8 z m -14,8.1 c -2.3,0.2 -3.5,1.4 -3.5,3.7 0,2.3 1,3.4 3,3.4 1.6,0 3.3,-0.2 5.1,-0.7 l 0.9,-0.2 0,-6.6 -5.5,0.4 z"
         class="st0"
         inkscape:connector-curvature="0"
         style="fill:#1e1e1c" /><path
         id="path17"
         d="m 273.6,51.5 -8.3,0 0,-31 8.2,0 0,1.7 c 2.8,-1.7 5.4,-2.5 7.7,-2.5 4.1,0 7,1.2 8.5,3.7 1.6,2.4 2.4,6.2 2.4,11.3 l 0,16.8 -8.3,0 0,-16.6 c 0,-2.6 -0.3,-4.6 -0.9,-5.9 -0.6,-1.3 -1.9,-1.9 -3.7,-1.9 -1.7,0 -3.3,0.3 -4.9,0.9 l -0.7,0.2 0,23.3 z"
         class="st0"
         inkscape:connector-curvature="0"
         style="fill:#1e1e1c" /><path
         id="path19"
         d="m 307.9,43.6 c 1,0.8 2.4,1.3 4.2,1.3 3.8,0 7.3,-0.1 10.3,-0.4 l 1.7,-0.2 0.1,6.1 c -4.7,1.2 -9,1.7 -12.9,1.7 -4.7,0 -8.1,-1.2 -10.2,-3.7 -2.1,-2.5 -3.1,-6.4 -3.1,-12 0,-11.1 4.6,-16.7 13.7,-16.7 9,0 13.5,4.7 13.5,14 l -0.6,5.8 -18.2,0 c 0,1.9 0.5,3.3 1.5,4.1 z M 317,33.2 c 0,-2.5 -0.4,-4.2 -1.2,-5.2 -0.8,-1 -2.2,-1.5 -4.1,-1.5 -1.9,0 -3.3,0.5 -4.1,1.5 -0.8,1 -1.2,2.7 -1.3,5.1 l 10.7,0 z"
         class="st0"
         inkscape:connector-curvature="0"
         style="fill:#1e1e1c" /><path
         id="path21"
         d="m 331.5,51.5 0,-43.4 8.3,0 0,43.4 -8.3,0 z"
         class="st0"
         inkscape:connector-curvature="0"
         style="fill:#1e1e1c" /></g><g
       id="g23"><g
         id="g25"><path
           id="path27"
           d="M 45.4,39.8 23.2,62 c -0.8,0.8 -1.2,1.8 -1.2,3 0,1.2 0.4,2.2 1.2,2.9 l 3.5,3.5 c 0.8,0.8 1.8,1.2 3,1.2 1.2,0 2.1,-0.4 2.9,-1.2 L 54.9,49.1 c -2.1,-0.8 -4,-2.1 -5.7,-3.7 -1.7,-1.6 -2.9,-3.5 -3.8,-5.6 l 0,0 z M 33.2,64.3 c -0.4,0.4 -0.9,0.6 -1.5,0.6 -0.6,0 -1.1,-0.2 -1.5,-0.6 -0.4,-0.4 -0.6,-0.9 -0.6,-1.5 0,-0.6 0.2,-1.1 0.6,-1.5 0.4,-0.4 0.9,-0.6 1.5,-0.6 0.6,0 1.1,0.2 1.5,0.6 0.4,0.4 0.6,0.9 0.6,1.5 0,0.6 -0.2,1.1 -0.6,1.5 l 0,0 z m 0,0"
           class="st1"
           inkscape:connector-curvature="0"
           style="fill:#595959" /><path
           id="path29"
           d="m 75.2,34.1 c -0.2,-0.2 -0.4,-0.3 -0.8,-0.3 -0.2,0 -1,0.4 -2.3,1.2 -1.3,0.8 -2.8,1.7 -4.4,2.6 -1.6,1 -2.5,1.5 -2.6,1.6 l -6.3,-3.5 0,-7.3 9.6,-5.5 c 0.3,-0.2 0.5,-0.5 0.5,-0.9 0,-0.4 -0.2,-0.7 -0.5,-0.9 -1,-0.7 -2.1,-1.2 -3.5,-1.5 -1.4,-0.4 -2.7,-0.5 -4,-0.5 -4,0 -7.5,1.4 -10.3,4.3 -2.9,2.9 -4.3,6.3 -4.3,10.3 0,4 1.4,7.5 4.3,10.3 2.9,2.9 6.3,4.3 10.3,4.3 3.1,0 5.9,-0.9 8.4,-2.7 2.6,-1.8 4.3,-4.2 5.4,-7.1 0.5,-1.5 0.7,-2.6 0.7,-3.5 0.1,-0.4 0,-0.6 -0.2,-0.9 l 0,0 z m 0,0"
           class="st2"
           inkscape:connector-curvature="0"
           style="fill:#e84040" /></g></g><g
       id="g31"><path
         id="path33"
         d="m 2.5,18 48.6,0 c 0.7,-1.5 1.7,-0.7 2.5,-1 0.3,-0.4 0.6,-0.8 0.6,-1.2 l 0,-10.6 C 54.3,2.9 52,1 49.7,1 L 3.8,1 C 1.5,1 0.1,2.9 0.1,5.2 l 0,10.6 c 0,0.9 0.2,2.2 2.4,2.2 z M 9.1,6.5 c 2.2,0 4.1,1.8 4.1,4.1 0,2.2 -1.8,4.1 -4.1,4.1 C 6.9,14.7 5,12.9 5,10.6 5.1,8.3 6.9,6.5 9.1,6.5 Z"
         class="st1"
         inkscape:connector-curvature="0"
         style="fill:#595959" /><path
         id="path35"
         d="m 0.1,33 c 0,0.9 -0.5,2 1.6,2 l 42.9,0 c -0.4,-1.5 -0.7,-2.7 -0.7,-4.3 0,-4 1.4,-7.6 4.3,-10.5 0.2,-0.2 0.4,-0.7 0.6,-0.7 l -47.3,0 c -1.9,0 -1.4,1.9 -1.4,2.8 l 0,10.7 z m 9,-9.4 c 2.2,0 4.1,1.8 4.1,4.1 0,2.2 -1.8,4.1 -4.1,4.1 C 6.9,31.8 5,30 5,27.7 5.1,25.5 6.9,23.6 9.1,23.6 Z"
         class="st1"
         inkscape:connector-curvature="0"
         style="fill:#595959" /><path
         id="path37"
         d="m 42.8,36.6 -41,0 c -1.8,0 -1.7,2.1 -1.7,2.9 l 0,10.6 c 0,2.3 1.5,3.4 3.8,3.4 l 21.8,0 17.1,-16.9 z M 9.1,48.9 C 6.9,48.9 5,47.1 5,44.8 c 0,-2.2 1.8,-4.1 4.1,-4.1 2.2,0 4.1,1.8 4.1,4.1 0,2.3 -1.8,4.1 -4.1,4.1 z"
         class="st1"
         inkscape:connector-curvature="0"
         style="fill:#595959" /></g></g></svg>