<?xml version="1.0" encoding="utf-8"?>
<!-- Generator: Adobe Illustrator 21.0.0, SVG Export Plug-In . SVG Version: 6.00 Build 0)  -->
<!DOCTYPE svg PUBLIC "-//W3C//DTD SVG 1.1//EN" "http://www.w3.org/Graphics/SVG/1.1/DTD/svg11.dtd">
<svg version="1.1" id="Warstwa_1" xmlns="http://www.w3.org/2000/svg" xmlns:xlink="http://www.w3.org/1999/xlink" x="0px" y="0px"
	 width="413.6px" height="58.7px" viewBox="0 0 413.6 58.7" style="enable-background:new 0 0 413.6 58.7;" xml:space="preserve">
<style type="text/css">
	.st0{fill:#1E1E1C;}
	.st1{fill:#E84041;}
	.st2{fill:#595959;}
</style>
<g>
	<path class="st0" d="M113,40.9c-2.7,3.5-7.2,5.3-13.7,5.3c-6.5,0-11.1-1.8-13.7-5.3c-2.7-3.5-4-9.1-4-16.6s1.3-13.1,4-16.8
		C88.2,3.8,92.8,2,99.3,2c6.5,0,11.1,1.8,13.7,5.5c2.7,3.7,4,9.3,4,16.8S115.7,37.4,113,40.9z M92.4,35.4c1.2,2.2,3.6,3.3,6.9,3.3
		c3.4,0,5.7-1.1,6.9-3.3c1.2-2.2,1.9-5.9,1.9-11.1c0-5.2-0.6-8.9-1.9-11.3c-1.3-2.3-3.6-3.5-6.9-3.5c-3.4,0-5.7,1.2-6.9,3.5
		c-1.3,2.3-1.9,6.1-1.9,11.3C90.5,29.5,91.1,33.2,92.4,35.4z"/>
	<path class="st0" d="M132.1,45.5h-8.4V14.1h8.4v1.8c2.8-1.7,5.5-2.5,7.9-2.5c4.2,0,7.1,1.2,8.7,3.7c1.6,2.5,2.4,6.3,2.4,11.4v17
		h-8.4V28.7c0-2.7-0.3-4.7-0.9-5.9s-1.9-1.9-3.8-1.9c-1.7,0-3.4,0.3-5,0.9l-0.8,0.3V45.5z"/>
	<path class="st0" d="M166.9,37.5c1,0.9,2.4,1.3,4.2,1.3c3.9,0,7.4-0.1,10.4-0.4l1.8-0.2l0.1,6.2c-4.8,1.2-9.2,1.8-13.1,1.8
		c-4.7,0-8.2-1.3-10.3-3.8c-2.1-2.5-3.2-6.6-3.2-12.3c0-11.3,4.6-16.9,13.9-16.9c9.1,0,13.7,4.7,13.7,14.2l-0.6,5.8h-18.5
		C165.4,35.3,165.9,36.7,166.9,37.5z M176.2,26.9c0-2.5-0.4-4.3-1.2-5.2c-0.8-1-2.2-1.5-4.2-1.5c-2,0-3.4,0.5-4.2,1.5
		c-0.8,1-1.2,2.8-1.3,5.2H176.2z"/>
	<path class="st0" d="M190.5,58.7V14.1h8.4v1.7c2.7-1.6,5.1-2.5,7.2-2.5c4.2,0,7.4,1.3,9.4,3.8c2,2.5,3,6.8,3,12.9
		c0,6.1-1.1,10.3-3.3,12.7c-2.2,2.4-5.9,3.6-10.9,3.6c-1.4,0-2.9-0.1-4.5-0.4l-0.8-0.1v12.9H190.5z M204.4,20.8
		c-1.6,0-3.1,0.3-4.7,0.9l-0.8,0.3v16.5c1.9,0.3,3.4,0.4,4.6,0.4c2.4,0,4.1-0.7,5-2.1c0.9-1.4,1.4-3.9,1.4-7.3
		C209.9,23.7,208.1,20.8,204.4,20.8z"/>
	<path class="st0" d="M224.7,45.5V14.1h8.4v3.3c3.5-2.1,6.9-3.5,10.1-4.1v8.5c-3.4,0.7-6.3,1.4-8.7,2.2l-1.3,0.4v21.1H224.7z"/>
	<path class="st0" d="M249.8,17.6c2.2-2.9,5.9-4.3,11.1-4.3c5.2,0,8.9,1.4,11.1,4.3c2.2,2.9,3.3,6.9,3.3,12.1
		c0,11-4.8,16.5-14.5,16.5c-9.6,0-14.5-5.5-14.5-16.5C246.5,24.5,247.6,20.5,249.8,17.6z M256.3,36.8c0.9,1.5,2.4,2.3,4.6,2.3
		c2.2,0,3.8-0.8,4.6-2.3c0.9-1.5,1.3-3.9,1.3-7.1s-0.4-5.6-1.3-7c-0.9-1.5-2.4-2.2-4.6-2.2c-2.2,0-3.8,0.7-4.6,2.2
		c-0.9,1.5-1.3,3.8-1.3,7S255.4,35.3,256.3,36.8z"/>
	<path class="st0" d="M278.1,14.1h8.8l5,24.3h1.8l5.3-24.3h8.5L300,45.5h-14.3L278.1,14.1z"/>
	<path class="st0" d="M312.4,10V1.5h8.4V10H312.4z M312.4,45.5V14.1h8.4v31.4H312.4z"/>
	<path class="st0" d="M355.3,1.5v44H347v-1.3c-2.9,1.4-5.5,2.1-7.6,2.1c-4.6,0-7.8-1.3-9.6-4c-1.8-2.6-2.7-6.8-2.7-12.5
		c0-5.7,1.1-9.9,3.2-12.5c2.2-2.6,5.4-3.9,9.8-3.9c1.3,0,3.2,0.2,5.6,0.6l1.2,0.3V1.5H355.3z M346,37.9l0.9-0.2V21.2
		c-2.3-0.4-4.4-0.6-6.2-0.6c-3.4,0-5.1,3-5.1,9.1c0,3.3,0.4,5.6,1.1,7c0.8,1.4,2,2.1,3.7,2.1C342.3,38.7,344.1,38.4,346,37.9z"/>
	<path class="st0" d="M371.6,37.5c1,0.9,2.4,1.3,4.2,1.3c3.9,0,7.4-0.1,10.4-0.4l1.8-0.2l0.1,6.2c-4.8,1.2-9.2,1.8-13.1,1.8
		c-4.7,0-8.2-1.3-10.3-3.8s-3.2-6.6-3.2-12.3c0-11.3,4.6-16.9,13.9-16.9c9.1,0,13.7,4.7,13.7,14.2l-0.6,5.8H370
		C370.1,35.3,370.6,36.7,371.6,37.5z M380.9,26.9c0-2.5-0.4-4.3-1.2-5.2c-0.8-1-2.2-1.5-4.2-1.5c-2,0-3.4,0.5-4.2,1.5
		c-0.8,1-1.2,2.8-1.3,5.2H380.9z"/>
	<path class="st0" d="M395.2,45.5V14.1h8.4v3.3c3.5-2.1,6.9-3.5,10.1-4.1v8.5c-3.4,0.7-6.3,1.4-8.7,2.2l-1.3,0.4v21.1H395.2z"/>
</g>
<g>
	<g>
		<path class="st1" d="M53.9,45.5c-2.6,2.5-8,4.3-14.3,4.3c-6.3,0-11.7-1.7-14.3-4.3c-1.1,1-1.7,2.2-1.7,3.4c0,4.2,7.2,7.7,16,7.7
			c8.8,0,16-3.4,16-7.7C55.6,47.6,54.9,46.5,53.9,45.5z"/>
		<path class="st1" d="M53.9,35.2c-2.6,2.5-8,4.3-14.3,4.3c-6.3,0-11.7-1.7-14.3-4.3c-1.1,1-1.7,2.2-1.7,3.4c0,4.2,7.2,7.7,16,7.7
			c8.8,0,16-3.4,16-7.7C55.6,37.4,54.9,36.3,53.9,35.2z"/>
		<ellipse class="st1" cx="39.6" cy="28.4" rx="16" ry="7.7"/>
	</g>
</g>
<g>
	<path class="st2" d="M20.1,37.2H1.8C0,37.2,0,37.9,0,38.7v10.5c0,2.3,1.6,3.4,3.9,3.4h16.3V37.2z M9.1,48c-2.2,0-4-1.8-4-4
		c0-2.2,1.8-4,4-4c2.2,0,4,1.8,4,4C13.2,46.2,11.4,48,9.1,48z"/>
	<path class="st2" d="M2.6,17h48.7c1.3,0,1.4-0.9,1.4-1.8V4.7c0-2.3-1.1-4.7-3.4-4.7H3.9C1.6,0,0,2.5,0,4.7v10.5
		C0,16.1,0.4,17,2.6,17z M9.1,6c2.2,0,4,1.8,4,4c0,2.2-1.8,4-4,4c-2.2,0-4-1.8-4-4C5.1,7.8,6.9,6,9.1,6z"/>
	<path class="st2" d="M1.7,34.1h18.4v-6.6c0-3.4,4.7-7.3,10.3-8.9h-29c-1.9,0-1.5,2.3-1.5,3.1v10.5C0,33.1-0.3,34.1,1.7,34.1z
		 M9.1,23c2.2,0,4,1.8,4,4c0,2.2-1.8,4-4,4c-2.2,0-4-1.8-4-4C5.1,24.8,6.9,23,9.1,23z"/>
</g>
</svg>
