<?xml version="1.0" encoding="UTF-8" standalone="no"?>
<!-- Generator: Adobe Illustrator 21.0.0, SVG Export Plug-In . SVG Version: 6.00 Build 0)  -->

<svg
   xmlns:dc="http://purl.org/dc/elements/1.1/"
   xmlns:cc="http://creativecommons.org/ns#"
   xmlns:rdf="http://www.w3.org/1999/02/22-rdf-syntax-ns#"
   xmlns:svg="http://www.w3.org/2000/svg"
   xmlns="http://www.w3.org/2000/svg"
   xmlns:sodipodi="http://sodipodi.sourceforge.net/DTD/sodipodi-0.dtd"
   xmlns:inkscape="http://www.inkscape.org/namespaces/inkscape"
   version="1.1"
   id="Warstwa_1"
   x="0px"
   y="0px"
   width="260"
   height="80"
   viewBox="0 0 260.00001 79.999998"
   xml:space="preserve"
   inkscape:version="0.91 r13725"
   sodipodi:docname="onezone-logo.svg"><metadata
     id="metadata47"><rdf:RDF><cc:Work
         rdf:about=""><dc:format>image/svg+xml</dc:format><dc:type
           rdf:resource="http://purl.org/dc/dcmitype/StillImage" /><dc:title></dc:title></cc:Work></rdf:RDF></metadata><defs
     id="defs45" /><sodipodi:namedview
     pagecolor="#ffffff"
     bordercolor="#666666"
     borderopacity="1"
     objecttolerance="10"
     gridtolerance="10"
     guidetolerance="10"
     inkscape:pageopacity="0"
     inkscape:pageshadow="2"
     inkscape:window-width="1537"
     inkscape:window-height="707"
     id="namedview43"
     showgrid="true"
     inkscape:zoom="1.0351377"
     inkscape:cx="-110.6133"
     inkscape:cy="32.2"
     inkscape:window-x="0"
     inkscape:window-y="0"
     inkscape:window-maximized="0"
     inkscape:current-layer="Warstwa_1"><inkscape:grid
       type="xygrid"
       id="grid4153" /></sodipodi:namedview><style
     type="text/css"
     id="style3">
	.st0{fill:#1E1E1C;}
	.st1{fill:#595959;}
	.st2{fill:#E84040;}
</style><g
     id="g4175"
     transform="matrix(0.49535604,0,0,0.49535604,18.02945,24.148607)"><g
       id="g5"><path
         id="path7"
         d="m 118.4,38.1 c -2.6,3.5 -7.1,5.2 -13.5,5.2 -6.4,0 -10.9,-1.7 -13.5,-5.2 -2.6,-3.5 -3.9,-8.9 -3.9,-16.4 0,-7.4 1.3,-13 3.9,-16.6 2.6,-3.6 7.1,-5.4 13.5,-5.4 6.4,0 10.9,1.8 13.5,5.4 2.6,3.6 3.9,9.1 3.9,16.6 0,7.4 -1.3,12.9 -3.9,16.4 z M 98,32.6 c 1.2,2.2 3.5,3.3 6.8,3.3 3.3,0 5.6,-1.1 6.8,-3.3 1.2,-2.2 1.8,-5.8 1.8,-10.9 0,-5.1 -0.6,-8.8 -1.9,-11.1 -1.2,-2.3 -3.5,-3.5 -6.8,-3.5 -3.3,0 -5.6,1.2 -6.8,3.5 -1.2,2.3 -1.9,6 -1.9,11.1 0.2,5.1 0.8,8.8 2,10.9 z"
         class="st0"
         inkscape:connector-curvature="0"
         style="fill:#1e1e1c" /><path
         id="path9"
         d="m 137.2,42.6 -8.3,0 0,-31 8.2,0 0,1.7 c 2.8,-1.7 5.4,-2.5 7.7,-2.5 4.1,0 7,1.2 8.5,3.7 1.6,2.4 2.4,6.2 2.4,11.3 l 0,16.8 -8.3,0 0,-16.6 c 0,-2.6 -0.3,-4.6 -0.9,-5.9 -0.6,-1.3 -1.9,-1.9 -3.7,-1.9 -1.7,0 -3.3,0.3 -4.9,0.9 l -0.7,0.2 0,23.3 z"
         class="st0"
         inkscape:connector-curvature="0"
         style="fill:#1e1e1c" /><path
         id="path11"
         d="m 171.5,34.7 c 1,0.8 2.4,1.3 4.2,1.3 3.8,0 7.3,-0.1 10.3,-0.4 l 1.7,-0.2 0.1,6.1 c -4.7,1.2 -9,1.7 -12.9,1.7 -4.7,0 -8.1,-1.2 -10.2,-3.7 -2.1,-2.5 -3.2,-6.5 -3.2,-12.1 0,-11.1 4.6,-16.7 13.7,-16.7 9,0 13.5,4.7 13.5,14 l -0.6,5.8 -18.1,0 c 0,2 0.5,3.4 1.5,4.2 z m 9.1,-10.4 c 0,-2.5 -0.4,-4.2 -1.2,-5.2 -0.8,-1 -2.2,-1.5 -4.1,-1.5 -1.9,0 -3.3,0.5 -4.1,1.5 -0.8,1 -1.2,2.7 -1.3,5.1 l 10.7,0 z"
         class="st0"
         inkscape:connector-curvature="0"
         style="fill:#1e1e1c" /><path
         id="path13"
         d="m 193.4,19 0,-7.4 23,0 0,7.4 -13,16.1 13,0 0,7.4 -23,0 0,-7.4 13,-16.1 -13,0 z"
         class="st0"
         inkscape:connector-curvature="0"
         style="fill:#1e1e1c" /><path
         id="path15"
         d="m 224.5,15.1 c 2.2,-2.8 5.8,-4.2 11,-4.2 5.1,0 8.8,1.4 11,4.2 2.2,2.8 3.3,6.8 3.3,11.9 0,10.9 -4.7,16.3 -14.2,16.3 -9.5,0 -14.2,-5.4 -14.2,-16.3 -0.2,-5.1 0.9,-9.1 3.1,-11.9 z m 6.4,18.9 c 0.8,1.5 2.4,2.2 4.6,2.2 2.2,0 3.7,-0.7 4.6,-2.2 0.8,-1.5 1.3,-3.8 1.3,-7 0,-3.2 -0.4,-5.5 -1.3,-6.9 -0.8,-1.4 -2.4,-2.2 -4.6,-2.2 -2.2,0 -3.7,0.7 -4.6,2.2 -0.8,1.4 -1.3,3.8 -1.3,6.9 0.1,3.2 0.5,5.5 1.3,7 z"
         class="st0"
         inkscape:connector-curvature="0"
         style="fill:#1e1e1c" /><path
         id="path17"
         d="m 264.1,42.6 -8.3,0 0,-31 8.2,0 0,1.7 c 2.8,-1.7 5.4,-2.5 7.7,-2.5 4.1,0 7,1.2 8.5,3.7 1.6,2.4 2.4,6.2 2.4,11.3 l 0,16.8 -8.3,0 0,-16.6 c 0,-2.6 -0.3,-4.6 -0.9,-5.9 -0.6,-1.3 -1.9,-1.9 -3.7,-1.9 -1.7,0 -3.3,0.3 -4.9,0.9 l -0.7,0.2 0,23.3 z"
         class="st0"
         inkscape:connector-curvature="0"
         style="fill:#1e1e1c" /><path
         id="path19"
         d="m 298.4,34.7 c 1,0.8 2.4,1.3 4.2,1.3 3.8,0 7.3,-0.1 10.3,-0.4 l 1.7,-0.2 0.1,6.1 c -4.7,1.2 -9,1.7 -12.9,1.7 -4.7,0 -8.1,-1.2 -10.2,-3.7 -2.1,-2.5 -3.2,-6.5 -3.2,-12.1 0,-11.1 4.6,-16.7 13.7,-16.7 9,0 13.5,4.7 13.5,14 l -0.6,5.8 -18.2,0 c 0.1,2 0.6,3.4 1.6,4.2 z m 9.1,-10.4 c 0,-2.5 -0.4,-4.2 -1.2,-5.2 -0.8,-1 -2.2,-1.5 -4.1,-1.5 -1.9,0 -3.3,0.5 -4.1,1.5 -0.8,1 -1.2,2.7 -1.3,5.1 l 10.7,0 z"
         class="st0"
         inkscape:connector-curvature="0"
         style="fill:#1e1e1c" /></g><g
       id="g21"><path
         id="path23"
         d="m 2.5,17 49.2,0 c 1.3,0 2.5,-1.4 2.5,-2.2 l 0,-10.7 C 54.2,1.8 52,0 49.7,0 L 3.8,0 C 1.5,0 0,1.8 0,4.1 l 0,10.6 c 0,1 0.2,2.3 2.5,2.3 z M 9.1,5.4 c 2.2,0 4.1,1.8 4.1,4.1 0,2.2 -1.8,4.1 -4.1,4.1 C 6.8,13.5 5,11.7 5,9.5 5,7.2 6.8,5.4 9.1,5.4 Z"
         class="st1"
         inkscape:connector-curvature="0"
         style="fill:#595959" /><path
         id="path25"
         d="m 0,32 c 0,0.9 -0.5,2.1 1.6,2.1 l 30.7,0 c -2.4,0 -4.2,-2.8 -4.2,-5.5 0,-3.2 2.6,-5.8 5.9,-5.8 3.2,0 5.9,2.7 5.9,5.9 0,0.6 -0.1,1.2 -0.3,1.7 l 3.1,2.9 c 1.3,-0.7 2.8,-1.2 4.4,-1.2 0.7,0 1.4,0.1 2.1,0.3 l 4,-6.7 c -0.6,-0.9 -0.9,-2 -0.9,-3.2 0,-1.1 0.3,-2.3 0.9,-3.2 -0.4,-0.3 -0.9,-0.7 -1.8,-0.7 l -50,0 C -0.5,18.6 0,20.4 0,21.3 L 0,32 Z m 9.1,-9.4 c 2.2,0 4.1,1.8 4.1,4.1 0,2.2 -1.8,4.1 -4.1,4.1 C 6.9,30.8 5,29 5,26.7 5,24.4 6.8,22.6 9.1,22.6 Z"
         class="st1"
         inkscape:connector-curvature="0"
         style="fill:#595959" /><path
         id="path27"
         d="m 21.2,47.5 c 0,-3.2 2.6,-5.7 5.9,-5.7 1.6,0 3.1,0.7 4.2,1.8 l 6.9,-2.3 c 0,-0.1 0,-0.1 0,-0.2 0,-1.4 0.3,-3 0.9,-4.2 L 38,35.6 1.7,35.6 c -1.8,0 -1.7,2 -1.7,2.9 l 0,10.6 c 0,2.3 1.5,3.5 3.8,3.5 l 21.1,0 c -2.2,0 -3.7,-2.6 -3.7,-5.1 z M 9.1,47.9 C 6.8,47.9 5,46 5,43.8 c 0,-2.2 1.8,-4.1 4.1,-4.1 2.2,0 4.1,1.8 4.1,4.1 -0.1,2.2 -1.9,4.1 -4.1,4.1 z"
         class="st1"
         inkscape:connector-curvature="0"
         style="fill:#595959" /></g><g
       id="g29"><path
         id="path31"
         d="M 40.9,33.5 38,30.8 c 0.3,-0.6 0.6,-1.3 0.6,-2.1 0,-2.4 -1.9,-4.3 -4.3,-4.3 -2.4,0 -4.3,1.9 -4.3,4.3 0,2.4 1.9,4.3 4.3,4.3 0.8,0 1.6,-0.3 2.3,-0.7 l 2.9,2.8 c 0.3,-0.6 0.8,-1.1 1.4,-1.6 l 0,0 z m 0,0"
         class="st2"
         inkscape:connector-curvature="0"
         style="fill:#e84040" /><path
         id="path33"
         d="m 53.2,33.2 3.9,-6.5 c 0.4,0.1 0.8,0.2 1.2,0.2 2.4,0 4.3,-1.9 4.3,-4.3 0,-2.4 -1.9,-4.3 -4.3,-4.3 -2.4,0 -4.3,1.8 -4.3,4.2 0,1.2 0.5,2.3 1.3,3 L 51.4,32 c 0.6,0.4 1.3,0.8 1.8,1.2 l 0,0 z m 0,0"
         class="st2"
         inkscape:connector-curvature="0"
         style="fill:#e84040" /><path
         id="path35"
         d="m 66.6,38.7 c -1.9,0 -3.4,1.2 -4.1,2.8 L 57.2,41 c 0,0 0,0.1 0,0.1 0,0.7 -0.1,1.4 -0.2,2.1 l 5.4,0.5 c 0.3,2.1 2.1,3.7 4.3,3.7 2.4,0 4.3,-1.9 4.3,-4.3 0,-2.5 -2,-4.4 -4.4,-4.4 l 0,0 z m 0,0"
         class="st2"
         inkscape:connector-curvature="0"
         style="fill:#e84040" /><path
         id="path37"
         d="m 51.8,55.7 -1.2,-5.3 c -0.7,0.2 -1.4,0.4 -2.1,0.5 l 1.2,5.3 c -1.4,0.7 -2.3,2.2 -2.3,3.8 0,2.4 1.9,4.3 4.3,4.3 2.4,0 4.3,-1.9 4.3,-4.3 0,-2.3 -1.9,-4.2 -4.2,-4.3 l 0,0 z m 0,0"
         class="st2"
         inkscape:connector-curvature="0"
         style="fill:#e84040" /><path
         id="path39"
         d="m 37.6,43.2 -6.7,2.3 c -0.8,-1.2 -2.1,-2 -3.6,-2 -2.4,0 -4.3,1.9 -4.3,4.3 0,2.4 1.9,4.3 4.3,4.3 2.4,0 4.3,-1.9 4.3,-4.3 0,-0.1 0,-0.2 0,-0.3 l 6.7,-2.3 c -0.3,-0.6 -0.5,-1.3 -0.7,-2 l 0,0 z m 0,0"
         class="st2"
         inkscape:connector-curvature="0"
         style="fill:#e84040" /><path
         id="path41"
         d="m 54.7,41.1 c 0,4.1 -3.3,7.4 -7.4,7.4 -4.1,0 -7.4,-3.3 -7.4,-7.4 0,-4.1 3.3,-7.4 7.4,-7.4 4.1,0 7.4,3.3 7.4,7.4 l 0,0 z m 0,0"
         class="st2"
         inkscape:connector-curvature="0"
         style="fill:#e84040" /></g></g></svg>