<?xml version="1.0" encoding="utf-8"?>
<!-- Generator: Adobe Illustrator 21.0.0, SVG Export Plug-In . SVG Version: 6.00 Build 0)  -->
<!DOCTYPE svg PUBLIC "-//W3C//DTD SVG 1.1//EN" "http://www.w3.org/Graphics/SVG/1.1/DTD/svg11.dtd">
<svg version="1.1" id="Warstwa_1" xmlns="http://www.w3.org/2000/svg" xmlns:xlink="http://www.w3.org/1999/xlink" x="0px" y="0px"
	 width="315.9px" height="64.4px" viewBox="0 0 315.9 64.4" style="enable-background:new 0 0 315.9 64.4;" xml:space="preserve">
<style type="text/css">
	.st0{fill:#1E1E1C;}
	.st1{fill:#595959;}
	.st2{fill:#E84040;}
</style>
<g>
	<path class="st0" d="M118.4,38.1c-2.6,3.5-7.1,5.2-13.5,5.2c-6.4,0-10.9-1.7-13.5-5.2c-2.6-3.5-3.9-8.9-3.9-16.4
		c0-7.4,1.3-13,3.9-16.6c2.6-3.6,7.1-5.4,13.5-5.4c6.4,0,10.9,1.8,13.5,5.4c2.6,3.6,3.9,9.1,3.9,16.6
		C122.3,29.1,121,34.6,118.4,38.1z M98,32.6c1.2,2.2,3.5,3.3,6.8,3.3c3.3,0,5.6-1.1,6.8-3.3c1.2-2.2,1.8-5.8,1.8-10.9
		c0-5.1-0.6-8.8-1.9-11.1c-1.2-2.3-3.5-3.5-6.8-3.5c-3.3,0-5.6,1.2-6.8,3.5c-1.2,2.3-1.9,6-1.9,11.1C96.2,26.8,96.8,30.5,98,32.6z"
		/>
	<path class="st0" d="M137.2,42.6h-8.3v-31h8.2v1.7c2.8-1.7,5.4-2.5,7.7-2.5c4.1,0,7,1.2,8.5,3.7c1.6,2.4,2.4,6.2,2.4,11.3v16.8
		h-8.3V26c0-2.6-0.3-4.6-0.9-5.9c-0.6-1.3-1.9-1.9-3.7-1.9c-1.7,0-3.3,0.3-4.9,0.9l-0.7,0.2V42.6z"/>
	<path class="st0" d="M171.5,34.7c1,0.8,2.4,1.3,4.2,1.3c3.8,0,7.3-0.1,10.3-0.4l1.7-0.2l0.1,6.1c-4.7,1.2-9,1.7-12.9,1.7
		c-4.7,0-8.1-1.2-10.2-3.7c-2.1-2.5-3.2-6.5-3.2-12.1c0-11.1,4.6-16.7,13.7-16.7c9,0,13.5,4.7,13.5,14l-0.6,5.8H170
		C170,32.5,170.5,33.9,171.5,34.7z M180.6,24.3c0-2.5-0.4-4.2-1.2-5.2c-0.8-1-2.2-1.5-4.1-1.5s-3.3,0.5-4.1,1.5
		c-0.8,1-1.2,2.7-1.3,5.1H180.6z"/>
	<path class="st0" d="M193.4,19v-7.4h23V19l-13,16.1h13v7.4h-23v-7.4l13-16.1H193.4z"/>
	<path class="st0" d="M224.5,15.1c2.2-2.8,5.8-4.2,11-4.2c5.1,0,8.8,1.4,11,4.2c2.2,2.8,3.3,6.8,3.3,11.9c0,10.9-4.7,16.3-14.2,16.3
		c-9.5,0-14.2-5.4-14.2-16.3C221.2,21.9,222.3,17.9,224.5,15.1z M230.9,34c0.8,1.5,2.4,2.2,4.6,2.2c2.2,0,3.7-0.7,4.6-2.2
		c0.8-1.5,1.3-3.8,1.3-7c0-3.2-0.4-5.5-1.3-6.9c-0.8-1.4-2.4-2.2-4.6-2.2c-2.2,0-3.7,0.7-4.6,2.2c-0.8,1.4-1.3,3.8-1.3,6.9
		C229.7,30.2,230.1,32.5,230.9,34z"/>
	<path class="st0" d="M264.1,42.6h-8.3v-31h8.2v1.7c2.8-1.7,5.4-2.5,7.7-2.5c4.1,0,7,1.2,8.5,3.7c1.6,2.4,2.4,6.2,2.4,11.3v16.8
		h-8.3V26c0-2.6-0.3-4.6-0.9-5.9c-0.6-1.3-1.9-1.9-3.7-1.9c-1.7,0-3.3,0.3-4.9,0.9l-0.7,0.2V42.6z"/>
	<path class="st0" d="M298.4,34.7c1,0.8,2.4,1.3,4.2,1.3c3.8,0,7.3-0.1,10.3-0.4l1.7-0.2l0.1,6.1c-4.7,1.2-9,1.7-12.9,1.7
		c-4.7,0-8.1-1.2-10.2-3.7c-2.1-2.5-3.2-6.5-3.2-12.1c0-11.1,4.6-16.7,13.7-16.7c9,0,13.5,4.7,13.5,14l-0.6,5.8h-18.2
		C296.9,32.5,297.4,33.9,298.4,34.7z M307.5,24.3c0-2.5-0.4-4.2-1.2-5.2c-0.8-1-2.2-1.5-4.1-1.5s-3.3,0.5-4.1,1.5
		c-0.8,1-1.2,2.7-1.3,5.1H307.5z"/>
</g>
<g>
	<path class="st1" d="M2.5,17h49.2c1.3,0,2.5-1.4,2.5-2.2V4.1c0-2.3-2.2-4.1-4.5-4.1H3.8C1.5,0,0,1.8,0,4.1v10.6
		C0,15.7,0.2,17,2.5,17z M9.1,5.4c2.2,0,4.1,1.8,4.1,4.1c0,2.2-1.8,4.1-4.1,4.1C6.8,13.5,5,11.7,5,9.5C5,7.2,6.8,5.4,9.1,5.4z"/>
	<path class="st1" d="M0,32c0,0.9-0.5,2.1,1.6,2.1h30.7c-2.4,0-4.2-2.8-4.2-5.5c0-3.2,2.6-5.8,5.9-5.8c3.2,0,5.9,2.7,5.9,5.9
		c0,0.6-0.1,1.2-0.3,1.7l3.1,2.9c1.3-0.7,2.8-1.2,4.4-1.2c0.7,0,1.4,0.1,2.1,0.3l4-6.7c-0.6-0.9-0.9-2-0.9-3.2
		c0-1.1,0.3-2.3,0.9-3.2c-0.4-0.3-0.9-0.7-1.8-0.7H1.4c-1.9,0-1.4,1.8-1.4,2.7V32z M9.1,22.6c2.2,0,4.1,1.8,4.1,4.1
		c0,2.2-1.8,4.1-4.1,4.1c-2.2,0-4.1-1.8-4.1-4.1C5,24.4,6.8,22.6,9.1,22.6z"/>
	<path class="st1" d="M21.2,47.5c0-3.2,2.6-5.7,5.9-5.7c1.6,0,3.1,0.7,4.2,1.8l6.9-2.3c0-0.1,0-0.1,0-0.2c0-1.4,0.3-3,0.9-4.2
		L38,35.6H1.7c-1.8,0-1.7,2-1.7,2.9v10.6c0,2.3,1.5,3.5,3.8,3.5h21.1C22.7,52.6,21.2,50,21.2,47.5z M9.1,47.9C6.8,47.9,5,46,5,43.8
		c0-2.2,1.8-4.1,4.1-4.1c2.2,0,4.1,1.8,4.1,4.1C13.1,46,11.3,47.9,9.1,47.9z"/>
</g>
<g>
	<path class="st2" d="M40.9,33.5L38,30.8c0.3-0.6,0.6-1.3,0.6-2.1c0-2.4-1.9-4.3-4.3-4.3s-4.3,1.9-4.3,4.3c0,2.4,1.9,4.3,4.3,4.3
		c0.8,0,1.6-0.3,2.3-0.7l2.9,2.8C39.8,34.5,40.3,34,40.9,33.5L40.9,33.5z M40.9,33.5"/>
	<path class="st2" d="M53.2,33.2l3.9-6.5c0.4,0.1,0.8,0.2,1.2,0.2c2.4,0,4.3-1.9,4.3-4.3c0-2.4-1.9-4.3-4.3-4.3S54,20.1,54,22.5
		c0,1.2,0.5,2.3,1.3,3l-3.9,6.5C52,32.4,52.7,32.8,53.2,33.2L53.2,33.2z M53.2,33.2"/>
	<path class="st2" d="M66.6,38.7c-1.9,0-3.4,1.2-4.1,2.8L57.2,41c0,0,0,0.1,0,0.1c0,0.7-0.1,1.4-0.2,2.1l5.4,0.5
		c0.3,2.1,2.1,3.7,4.3,3.7c2.4,0,4.3-1.9,4.3-4.3C71,40.6,69,38.7,66.6,38.7L66.6,38.7z M66.6,38.7"/>
	<path class="st2" d="M51.8,55.7l-1.2-5.3c-0.7,0.2-1.4,0.4-2.1,0.5l1.2,5.3c-1.4,0.7-2.3,2.2-2.3,3.8c0,2.4,1.9,4.3,4.3,4.3
		c2.4,0,4.3-1.9,4.3-4.3C56,57.7,54.1,55.8,51.8,55.7L51.8,55.7z M51.8,55.7"/>
	<path class="st2" d="M37.6,43.2l-6.7,2.3c-0.8-1.2-2.1-2-3.6-2c-2.4,0-4.3,1.9-4.3,4.3c0,2.4,1.9,4.3,4.3,4.3s4.3-1.9,4.3-4.3
		c0-0.1,0-0.2,0-0.3l6.7-2.3C38,44.6,37.8,43.9,37.6,43.2L37.6,43.2z M37.6,43.2"/>
	<path class="st2" d="M54.7,41.1c0,4.1-3.3,7.4-7.4,7.4c-4.1,0-7.4-3.3-7.4-7.4c0-4.1,3.3-7.4,7.4-7.4C51.4,33.7,54.7,37,54.7,41.1
		L54.7,41.1z M54.7,41.1"/>
</g>
</svg>
