<svg xmlns="http://www.w3.org/2000/svg" xmlns:xlink="http://www.w3.org/1999/xlink" viewBox="0 0 1384 632.12"><defs><style>.cls-1{isolation:isolate;}.cls-2{fill:#fff;}.cls-3{fill:#e8f5fc;}.cls-4,.cls-6{opacity:0.3;}.cls-5,.cls-6{fill:#6d6e70;}.cls-5,.cls-8{opacity:0.7;}.cls-7{fill:#5192eb;}.cls-8{mix-blend-mode:multiply;fill:url(#radial-gradient);}.cls-9{fill:#81d0e1;}.cls-10{fill:#7db6f9;}.cls-11{fill:#edeef0;}.cls-12{opacity:0.1;}.cls-13{fill:#d6212a;}.cls-14{fill:#4f4c4c;}.cls-15{fill:#f14549;}.cls-16{opacity:0.2;}.cls-17{fill:#ee3f3f;}</style><radialGradient id="radial-gradient" cx="598.28" cy="244.49" r="77.77" gradientTransform="translate(13.58 368.65) scale(1.3 0.06)" gradientUnits="userSpaceOnUse"><stop offset="0" stop-color="#fff"/><stop offset="0.08" stop-color="#f8f8f8" stop-opacity="0.96"/><stop offset="0.22" stop-color="#e6e6e6" stop-opacity="0.87"/><stop offset="0.4" stop-color="#c7c7c8" stop-opacity="0.71"/><stop offset="0.61" stop-color="#9d9d9e" stop-opacity="0.49"/><stop offset="0.84" stop-color="#696969" stop-opacity="0.21"/><stop offset="1" stop-color="#404041" stop-opacity="0"/></radialGradient></defs><title>404</title><g class="cls-1"><g id="Tryb_izolacji" data-name="Tryb izolacji"><rect class="cls-2" width="1384" height="440.22"/><path class="cls-3" d="M1382.59,486.14c.13-2.54.21-5.1.21-7.68V214.32a62.3,62.3,0,0,0-123.32-12.67,107.46,107.46,0,0,0-26.89-3.41c-59.45,0-107.65,48.54-107.65,108.41a108.37,108.37,0,0,0,21.65,65.19,7.78,7.78,0,0,0-5.84,2.43,4.83,4.83,0,0,0-.34.45,12.8,12.8,0,0,0-19.59,4,59.34,59.34,0,0,0-88.92-.7,15.66,15.66,0,0,0-4.76-12.42l-.18-.15c.23-.22.47-.43.69-.67a15.7,15.7,0,0,0-.51-22.09,15.42,15.42,0,0,0-14-4,32.86,32.86,0,0,0-33.47-28,21.56,21.56,0,0,0-6.21-19.62,21.27,21.27,0,0,0-30.21.71c-.5.53-1,1.08-1.4,1.64a107.53,107.53,0,0,0-94.68-56.79c-59.46,0-107.65,48.53-107.65,108.4a109.5,109.5,0,0,0,3.42,27.22,59.87,59.87,0,0,0-55.35,59.88c0,.85,0,1.68.06,2.52a17.51,17.51,0,0,0-6.45-1.24,17.72,17.72,0,0,0-17.31,14.19,26.56,26.56,0,0,0-28.7-2.6,40.27,40.27,0,0,0-31.91-26.18,88.2,88.2,0,0,0,1.14-14.08c0-48.29-38.88-87.44-86.84-87.44s-86.84,39.15-86.84,87.44a26.79,26.79,0,0,0-22.23,11.88,56.57,56.57,0,0,0-75.17,5.18A36.9,36.9,0,0,0,306.21,405a27.41,27.41,0,0,0,.77-6.32,27.05,27.05,0,0,0-13.38-23.37,88.15,88.15,0,0,0,1.43-15.7c0-44.7-33.31-81.53-76.29-86.78a40.09,40.09,0,0,0-76.43-12.57,36.68,36.68,0,0,0-21-6.56,37.07,37.07,0,0,0-4.86.33,56.32,56.32,0,0,0-98.57-8.65A35.8,35.8,0,0,0,1.27,275.61V486.14Z"/><g class="cls-4"><path class="cls-5" d="M1028.29,343.94a15.7,15.7,0,0,1-.64,20.85c-.22.24-.46.45-.69.67l.18.15A15.66,15.66,0,0,1,1031.9,378a59.34,59.34,0,0,1,88.92.7,12.8,12.8,0,0,1,19.59-4,4.83,4.83,0,0,1,.34-.45,7.78,7.78,0,0,1,5.84-2.43,108.8,108.8,0,0,1,42.72-164.45,26,26,0,0,0-44.69,18.23,26.2,26.2,0,0,0,.26,3.46,58.54,58.54,0,0,0-36.78,40.68,7.48,7.48,0,0,0-1.78-.23,7.65,7.65,0,0,0-7.64,7.66,7,7,0,0,0,.08.8,38,38,0,0,0-7.75-.8,37.58,37.58,0,0,0-37.34,33.62h-.21a24.69,24.69,0,0,0-23.7,31.61C1029.26,342.91,1028.78,343.43,1028.29,343.94Z"/></g><g class="cls-4"><path class="cls-5" d="M604.37,405.13a88.24,88.24,0,0,1-1.13,13.7A40.27,40.27,0,0,1,635.15,445a26.56,26.56,0,0,1,28.7,2.6,17.72,17.72,0,0,1,17.31-14.19,17.51,17.51,0,0,1,6.45,1.24c0-.84-.06-1.67-.06-2.52a59.87,59.87,0,0,1,55.35-59.88,109.55,109.55,0,0,1,4.61-68.33,94.9,94.9,0,0,0-83.29,94.26c0,2.71.14,5.39.36,8.05a58.25,58.25,0,0,0-60.21-1.11Z"/></g><path class="cls-6" d="M295,359.58a88.15,88.15,0,0,1-1.43,15.7A27.05,27.05,0,0,1,307,398.65a27.41,27.41,0,0,1-.77,6.32,36.9,36.9,0,0,1,27.09,16.84,56.57,56.57,0,0,1,75.17-5.18,27,27,0,0,1,6.54-6.77,24.59,24.59,0,0,0-31.27-20.28,94.36,94.36,0,0,0-62.4-27.94A24.53,24.53,0,0,0,294.13,347,88.63,88.63,0,0,1,295,359.58Z"/><rect class="cls-7" y="374.53" width="1384" height="257.59"/><path class="cls-8" d="M932.08,383.47c0,4.06-63.25,7.35-141.28,7.35s-141.28-3.29-141.28-7.35,63.25-7.35,141.28-7.35S932.08,379.41,932.08,383.47Z"/><path class="cls-9" d="M165.7,423.33"/><polygon class="cls-10" points="171.61 407.56 148.8 339.84 104.39 448.39 171.61 407.56"/><polygon class="cls-11" points="148.8 339.84 44.37 435.18 104.39 448.39 148.8 339.84"/><polygon class="cls-12" points="171.61 407.56 217.92 459.63 104.39 448.39 171.61 407.56"/><path class="cls-10" d="M1216.08,496c2.69-2.95,49-89.1,49-89.1l24.75,61.38Z"/><polygon class="cls-11" points="1265.06 406.89 1117.78 485.5 1216.08 495.99 1265.06 406.89"/><polygon class="cls-12" points="1289.81 468.27 1328.01 503.6 1216.08 495.99 1289.81 468.27"/><polygon class="cls-13" points="682.72 304.95 795.53 339.85 905.08 309.01 856.07 380.76 737.28 380.19 682.72 304.95"/><path class="cls-14" d="M682.72,305s117,50,115.33,50,107-45.93,107-45.93l-39.27,71.31s-60.29,3.4-135.52-.48C726.42,380.4,682.72,305,682.72,305Z"/><polygon class="cls-15" points="758.17 337.15 797.77 295.36 840.48 336.44 798.05 354.94 758.17 337.15"/><polygon class="cls-13" points="798.05 354.94 840.48 336.44 797.77 295.36 797.77 354.85 798.05 354.94"/><path d="M683.57,276.07c.13-.06,3.5.13,5.25.24l-.17.44,6.1.83-10.41,4.92,10.75,3.43-8.21-3.71,7.88-4.64h0c-.72,2-1.7,4.75-1.7,4.75l3.83.17,2.49-4.23c-.17-.23-3.73-2.82-3.87-2.65s-.35.85-.72,1.87l-5.48-2.6-.14.38-4.67-2.22-.18.52-4.77-1.88-.82,3.45,4.91.42C683.58,275.88,683.52,276.09,683.57,276.07Z"/><path d="M691.54,293.39l6.52.95-1.13-11.84C696.43,282.88,691.54,293.39,691.54,293.39Z"/><path d="M698.06,295.9l-6.52-.87h-8.18l6.92,14.36L688,297.23l4.64.42s13.51,18.6,13.24,17.79S698.06,295.9,698.06,295.9Z"/><polygon points="704.35 289.36 697.08 284.13 701.74 289.44 698.68 297.23 704.35 289.36"/><g class="cls-16"><path d="M918.41,410.31a.79.79,0,0,0,.23,0C918.73,410.35,918.64,410.34,918.41,410.31Z"/><path d="M865.81,380.17l-135.52-.33L679.71,408,693.89,407l-6.65,9.52h8.17l6.52-.7s1.32-5.46,2.38-9.7l88.43-7.14s119.42,10.62,125.67,11.38C914,409.1,865.81,380.17,865.81,380.17Zm-169.28,34.3-4.65.3,2.17-7.9,8.05-.65C699.54,410,696.53,414.47,696.53,414.47Z"/><polygon points="794.73 432.88 834.13 402.62 792.74 398.92 750.22 402.35 794.73 432.88"/><path d="M697,424.44a23.86,23.86,0,0,0,1.77,2.92h-6v.46c-1.76-.09-5,0-5.13-.09s0,.24,0,.46l-4.92-.1.71,2.35,4.61-.74.12.37,4.83-1,.18.54,5.57-1.2c.33.6.58,1.06.62,1.09a25.72,25.72,0,0,0,3.87-1.8l-2.49-3.11Z"/><path d="M701.93,416.72l-6.52.65s4.9,7.15,5.39,7.41Z"/><polygon points="698.67 428.14 690.75 424.97 698.97 422.44 688.21 424.78 698.67 428.14"/><polygon points="705.61 420.05 700.96 423.67 708.23 420.11 702.55 414.75 705.61 420.05"/></g><polygon class="cls-10" points="778.61 578.88 794.61 553.26 800.91 570.28 778.61 578.88"/><path class="cls-11" d="M794.61,553.26c-5.4.8-34.21,17-34.21,17l-11.69-17-20,17,49.93,8.6Z"/><polygon class="cls-10" points="748.71 553.26 768.01 566.07 760.4 570.28 748.71 553.26"/><polygon class="cls-12" points="800.91 570.28 812.22 592.89 775 584.49 756.6 588.09 728.67 570.28 779.46 578.55 800.91 570.28"/><path class="cls-17" d="M834.77,373l2.11-9.39h3.62l2.11,9.39H840.7l-.37-1.7h-3.28l-.38,1.7Zm3.59-7.81-1,4.45H840l-1-4.45Z"/><path class="cls-17" d="M842.51,365.32v-1.69h6.9v1.69h-2.48V373H845v-7.7Z"/><path class="cls-17" d="M849.31,373l2.11-9.39H855l2.11,9.39h-1.9l-.38-1.7h-3.28l-.37,1.7Zm3.59-7.81-.95,4.45h2.56l-1-4.45Z"/><path class="cls-17" d="M833.87,366.11a3.46,3.46,0,0,0-.6-1.38,2.36,2.36,0,0,0-1.22-.84,6.56,6.56,0,0,0-2-.26h-1.24v1.66h1.24a3.59,3.59,0,0,1,1.1.14,1.13,1.13,0,0,1,.61.53,2.27,2.27,0,0,1,.26.86,10.28,10.28,0,0,1,.06,1.25c0,.52,0,.93,0,1.22a2.58,2.58,0,0,1-.5,1.55,1.91,1.91,0,0,1-1.5.52h-1.24V373h1.24a5.86,5.86,0,0,0,2-.3,2.35,2.35,0,0,0,1.22-1,4.26,4.26,0,0,0,.58-1.49,12.3,12.3,0,0,0,.15-2.11A10.44,10.44,0,0,0,833.87,366.11Z"/><path class="cls-2" d="M808.75,372a4.5,4.5,0,0,1-6,0,6.15,6.15,0,0,1-.87-3.65,6.37,6.37,0,0,1,.87-3.7,4.39,4.39,0,0,1,6,0,6.29,6.29,0,0,1,.88,3.7A6.07,6.07,0,0,1,808.75,372Zm-4.54-1.22a2,2,0,0,0,3,0,5.28,5.28,0,0,0,.41-2.43,5.43,5.43,0,0,0-.42-2.47,1.86,1.86,0,0,0-3,0,5.43,5.43,0,0,0-.42,2.47A5.28,5.28,0,0,0,804.21,370.8Z"/><path class="cls-2" d="M811.26,373v-9.39h3.21l2.26,7.73h.14v-7.73h1.91V373h-3.14l-2.34-7.73h-.14V373Z"/><rect class="cls-2" x="820.82" y="363.63" width="6.07" height="1.66"/><rect class="cls-2" x="820.82" y="367.5" width="6.07" height="1.66"/><rect class="cls-2" x="820.82" y="371.36" width="6.07" height="1.66"/></g></g></svg>