<?xml version="1.0" encoding="UTF-8" standalone="no"?>
<svg
   xmlns:dc="http://purl.org/dc/elements/1.1/"
   xmlns:cc="http://creativecommons.org/ns#"
   xmlns:rdf="http://www.w3.org/1999/02/22-rdf-syntax-ns#"
   xmlns:svg="http://www.w3.org/2000/svg"
   xmlns="http://www.w3.org/2000/svg"
   xmlns:sodipodi="http://sodipodi.sourceforge.net/DTD/sodipodi-0.dtd"
   xmlns:inkscape="http://www.inkscape.org/namespaces/inkscape"
   width="342.88034pt"
   height="73.839844pt"
   viewBox="0 0 342.88034 73.839843"
   version="1.1"
   id="svg2"
   inkscape:version="0.91 r13725"
   sodipodi:docname="Logo-01_gray.svg">
  <metadata
     id="metadata207">
    <rdf:RDF>
      <cc:Work
         rdf:about="">
        <dc:format>image/svg+xml</dc:format>
        <dc:type
           rdf:resource="http://purl.org/dc/dcmitype/StillImage" />
        <dc:title></dc:title>
      </cc:Work>
    </rdf:RDF>
  </metadata>
  <sodipodi:namedview
     pagecolor="#ffffff"
     bordercolor="#666666"
     borderopacity="1"
     objecttolerance="10"
     gridtolerance="10"
     guidetolerance="10"
     inkscape:pageopacity="0"
     inkscape:pageshadow="2"
     inkscape:window-width="668"
     inkscape:window-height="480"
     id="namedview205"
     showgrid="false"
     inkscape:zoom="0.76312722"
     inkscape:cx="214.30022"
     inkscape:cy="46.149903"
     inkscape:window-x="639"
     inkscape:window-y="312"
     inkscape:window-maximized="0"
     inkscape:current-layer="svg2"
     fit-margin-top="0"
     fit-margin-left="0"
     fit-margin-right="0"
     fit-margin-bottom="0" />
  <defs
     id="defs4">
    <clipPath
       id="clip1">
      <path
         d="m 50.320312,30.078125 c 0,7.160156 -5.800781,12.960937 -12.960937,12.960937 -7.15625,0 -12.960937,-5.800781 -12.960937,-12.960937 0,-7.15625 5.804687,-12.957031 12.960937,-12.957031 7.160156,0 12.960937,5.800781 12.960937,12.957031 z m 0,0"
         id="path7"
         inkscape:connector-curvature="0" />
    </clipPath>
    <radialGradient
       id="radial0"
       gradientUnits="userSpaceOnUse"
       cx="46.730469"
       cy="37.574219"
       fx="46.730469"
       fy="37.574219"
       r="16.238281"
       gradientTransform="matrix(0.8,0,0,0.8,0,1e-6)">
      <stop
         offset="0"
         style="stop-color:rgb(47%,47%,47%);stop-opacity:1;"
         id="stop10" />
      <stop
         offset="0.015625"
         style="stop-color:rgb(47%,47%,47%);stop-opacity:1;"
         id="stop12" />
      <stop
         offset="0.0273438"
         style="stop-color:rgb(47%,47%,47%);stop-opacity:1;"
         id="stop14" />
      <stop
         offset="0.0390625"
         style="stop-color:rgb(47%,47%,47%);stop-opacity:1;"
         id="stop16" />
      <stop
         offset="0.0507812"
         style="stop-color:rgb(46%,46%,46%);stop-opacity:1;"
         id="stop18" />
      <stop
         offset="0.0625"
         style="stop-color:rgb(46%,46%,46%);stop-opacity:1;"
         id="stop20" />
      <stop
         offset="0.0742188"
         style="stop-color:rgb(46%,46%,46%);stop-opacity:1;"
         id="stop22" />
      <stop
         offset="0.0859375"
         style="stop-color:rgb(46%,46%,46%);stop-opacity:1;"
         id="stop24" />
      <stop
         offset="0.0976562"
         style="stop-color:rgb(46%,46%,46%);stop-opacity:1;"
         id="stop26" />
      <stop
         offset="0.109375"
         style="stop-color:rgb(45%,45%,45%);stop-opacity:1;"
         id="stop28" />
      <stop
         offset="0.121094"
         style="stop-color:rgb(45%,45%,45%);stop-opacity:1;"
         id="stop30" />
      <stop
         offset="0.132812"
         style="stop-color:rgb(45%,45%,45%);stop-opacity:1;"
         id="stop32" />
      <stop
         offset="0.144531"
         style="stop-color:rgb(45%,45%,45%);stop-opacity:1;"
         id="stop34" />
      <stop
         offset="0.15625"
         style="stop-color:rgb(45%,45%,45%);stop-opacity:1;"
         id="stop36" />
      <stop
         offset="0.167969"
         style="stop-color:rgb(44%,44%,44%);stop-opacity:1;"
         id="stop38" />
      <stop
         offset="0.179688"
         style="stop-color:rgb(44%,44%,44%);stop-opacity:1;"
         id="stop40" />
      <stop
         offset="0.191406"
         style="stop-color:rgb(44%,44%,44%);stop-opacity:1;"
         id="stop42" />
      <stop
         offset="0.203125"
         style="stop-color:rgb(44%,44%,44%);stop-opacity:1;"
         id="stop44" />
      <stop
         offset="0.214844"
         style="stop-color:rgb(44%,44%,44%);stop-opacity:1;"
         id="stop46" />
      <stop
         offset="0.226562"
         style="stop-color:rgb(43%,43%,43%);stop-opacity:1;"
         id="stop48" />
      <stop
         offset="0.238281"
         style="stop-color:rgb(43%,43%,43%);stop-opacity:1;"
         id="stop50" />
      <stop
         offset="0.25"
         style="stop-color:rgb(43%,43%,43%);stop-opacity:1;"
         id="stop52" />
      <stop
         offset="0.261719"
         style="stop-color:rgb(43%,43%,43%);stop-opacity:1;"
         id="stop54" />
      <stop
         offset="0.28125"
         style="stop-color:rgb(42%,42%,42%);stop-opacity:1;"
         id="stop56" />
      <stop
         offset="0.300781"
         style="stop-color:rgb(42%,42%,42%);stop-opacity:1;"
         id="stop58" />
      <stop
         offset="0.320312"
         style="stop-color:rgb(42%,42%,42%);stop-opacity:1;"
         id="stop60" />
      <stop
         offset="0.339844"
         style="stop-color:rgb(41%,41%,41%);stop-opacity:1;"
         id="stop62" />
      <stop
         offset="0.359375"
         style="stop-color:rgb(41%,41%,41%);stop-opacity:1;"
         id="stop64" />
      <stop
         offset="0.378906"
         style="stop-color:rgb(41%,41%,41%);stop-opacity:1;"
         id="stop66" />
      <stop
         offset="0.394531"
         style="stop-color:rgb(40%,40%,40%);stop-opacity:1;"
         id="stop68" />
      <stop
         offset="0.410156"
         style="stop-color:rgb(40%,40%,40%);stop-opacity:1;"
         id="stop70" />
      <stop
         offset="0.425781"
         style="stop-color:rgb(40%,40%,40%);stop-opacity:1;"
         id="stop72" />
      <stop
         offset="0.441406"
         style="stop-color:rgb(40%,40%,40%);stop-opacity:1;"
         id="stop74" />
      <stop
         offset="0.457031"
         style="stop-color:rgb(39%,39%,39%);stop-opacity:1;"
         id="stop76" />
      <stop
         offset="0.472656"
         style="stop-color:rgb(39%,39%,39%);stop-opacity:1;"
         id="stop78" />
      <stop
         offset="0.488281"
         style="stop-color:rgb(39%,39%,39%);stop-opacity:1;"
         id="stop80" />
      <stop
         offset="0.503906"
         style="stop-color:rgb(38%,38%,38%);stop-opacity:1;"
         id="stop82" />
      <stop
         offset="0.515625"
         style="stop-color:rgb(38%,38%,38%);stop-opacity:1;"
         id="stop84" />
      <stop
         offset="0.527344"
         style="stop-color:rgb(38%,38%,38%);stop-opacity:1;"
         id="stop86" />
      <stop
         offset="0.539062"
         style="stop-color:rgb(38%,38%,38%);stop-opacity:1;"
         id="stop88" />
      <stop
         offset="0.550781"
         style="stop-color:rgb(38%,38%,38%);stop-opacity:1;"
         id="stop90" />
      <stop
         offset="0.5625"
         style="stop-color:rgb(37%,37%,37%);stop-opacity:1;"
         id="stop92" />
      <stop
         offset="0.574219"
         style="stop-color:rgb(37%,37%,37%);stop-opacity:1;"
         id="stop94" />
      <stop
         offset="0.585938"
         style="stop-color:rgb(37%,37%,37%);stop-opacity:1;"
         id="stop96" />
      <stop
         offset="0.597656"
         style="stop-color:rgb(37%,37%,37%);stop-opacity:1;"
         id="stop98" />
      <stop
         offset="0.609375"
         style="stop-color:rgb(37%,37%,37%);stop-opacity:1;"
         id="stop100" />
      <stop
         offset="0.621094"
         style="stop-color:rgb(36%,36%,36%);stop-opacity:1;"
         id="stop102" />
      <stop
         offset="0.632812"
         style="stop-color:rgb(36%,36%,36%);stop-opacity:1;"
         id="stop104" />
      <stop
         offset="0.652344"
         style="stop-color:rgb(36%,36%,36%);stop-opacity:1;"
         id="stop106" />
      <stop
         offset="0.671875"
         style="stop-color:rgb(35%,35%,35%);stop-opacity:1;"
         id="stop108" />
      <stop
         offset="0.691406"
         style="stop-color:rgb(35%,35%,35%);stop-opacity:1;"
         id="stop110" />
      <stop
         offset="0.707031"
         style="stop-color:rgb(35%,35%,35%);stop-opacity:1;"
         id="stop112" />
      <stop
         offset="0.722656"
         style="stop-color:rgb(35%,35%,35%);stop-opacity:1;"
         id="stop114" />
      <stop
         offset="0.738281"
         style="stop-color:rgb(34%,34%,34%);stop-opacity:1;"
         id="stop116" />
      <stop
         offset="0.753906"
         style="stop-color:rgb(34%,34%,34%);stop-opacity:1;"
         id="stop118" />
      <stop
         offset="0.765625"
         style="stop-color:rgb(34%,34%,34%);stop-opacity:1;"
         id="stop120" />
      <stop
         offset="0.777344"
         style="stop-color:rgb(34%,34%,34%);stop-opacity:1;"
         id="stop122" />
      <stop
         offset="0.789062"
         style="stop-color:rgb(33%,33%,33%);stop-opacity:1;"
         id="stop124" />
      <stop
         offset="0.800781"
         style="stop-color:rgb(33%,33%,33%);stop-opacity:1;"
         id="stop126" />
      <stop
         offset="0.8125"
         style="stop-color:rgb(33%,33%,33%);stop-opacity:1;"
         id="stop128" />
      <stop
         offset="0.824219"
         style="stop-color:rgb(33%,33%,33%);stop-opacity:1;"
         id="stop130" />
      <stop
         offset="0.84375"
         style="stop-color:rgb(32%,32%,32%);stop-opacity:1;"
         id="stop132" />
      <stop
         offset="0.863281"
         style="stop-color:rgb(32%,32%,32%);stop-opacity:1;"
         id="stop134" />
      <stop
         offset="0.878906"
         style="stop-color:rgb(32%,32%,32%);stop-opacity:1;"
         id="stop136" />
      <stop
         offset="0.890625"
         style="stop-color:rgb(32%,32%,32%);stop-opacity:1;"
         id="stop138" />
      <stop
         offset="0.902344"
         style="stop-color:rgb(31%,31%,31%);stop-opacity:1;"
         id="stop140" />
      <stop
         offset="0.914062"
         style="stop-color:rgb(31%,31%,31%);stop-opacity:1;"
         id="stop142" />
      <stop
         offset="0.933594"
         style="stop-color:rgb(31%,31%,31%);stop-opacity:1;"
         id="stop144" />
      <stop
         offset="0.949219"
         style="stop-color:rgb(31%,31%,31%);stop-opacity:1;"
         id="stop146" />
      <stop
         offset="0.960938"
         style="stop-color:rgb(30%,30%,30%);stop-opacity:1;"
         id="stop148" />
      <stop
         offset="0.980469"
         style="stop-color:rgb(30%,30%,30%);stop-opacity:1;"
         id="stop150" />
      <stop
         offset="1"
         style="stop-color:rgb(30%,30%,30%);stop-opacity:1;"
         id="stop152" />
    </radialGradient>
  </defs>
  <g
     id="surface1">
    <path
       style="fill:#ffffff;fill-opacity:1;fill-rule:nonzero;stroke:none"
       d="m 0,73.839844 342.80078,0 L 342.80078,0 0,0 Z m 0,0"
       id="path155"
       inkscape:connector-curvature="0" />
    <path
       style="fill:#c2c2c2;fill-opacity:1;fill-rule:nonzero;stroke:none"
       d="M 73.761719,36.878906 C 73.761719,57.25 57.25,73.761719 36.878906,73.761719 16.511719,73.761719 0,57.25 0,36.878906 0,16.511719 16.511719,0 36.878906,0 57.25,0 73.761719,16.511719 73.761719,36.878906 Z m 0,0"
       id="path157"
       inkscape:connector-curvature="0" />
    <path
       style="fill:#8c8c8c;fill-opacity:1;fill-rule:nonzero;stroke:none"
       d="m 66.398438,33.199219 c 0,18.335937 -14.863282,33.199219 -33.199219,33.199219 C 14.863281,66.398438 0,51.535156 0,33.199219 0,14.863281 14.863281,0 33.199219,0 51.535156,0 66.398438,14.863281 66.398438,33.199219 Z m 0,0"
       id="path159"
       inkscape:connector-curvature="0" />
    <path
       style="fill:#707070;fill-opacity:1;fill-rule:nonzero;stroke:none"
       d="m 66.398438,28.800781 c 0,15.90625 -12.894532,28.800781 -28.796876,28.800781 -15.90625,0 -28.800781,-12.894531 -28.800781,-28.800781 C 8.800781,12.894531 21.695312,0 37.601562,0 53.503906,0 66.398438,12.894531 66.398438,28.800781 Z m 0,0"
       id="path161"
       inkscape:connector-curvature="0" />
    <path
       style="fill:#bababa;fill-opacity:1;fill-rule:nonzero;stroke:none"
       d="m 66.398438,31.039062 c 0,14.625 -11.855469,26.480469 -26.476563,26.480469 -14.625,0 -26.480469,-11.855469 -26.480469,-26.480469 0,-14.625 11.855469,-26.480468 26.480469,-26.480468 14.621094,0 26.476563,11.855468 26.476563,26.480468 z m 0,0"
       id="path163"
       inkscape:connector-curvature="0" />
    <path
       style="fill:#949494;fill-opacity:1;fill-rule:nonzero;stroke:none"
       d="m 62.558594,33.039062 c 0,13.566407 -10.996094,24.5625 -24.558594,24.5625 -13.5625,0 -24.558594,-10.996093 -24.558594,-24.5625 0,-13.5625 10.996094,-24.558593 24.558594,-24.558593 13.5625,0 24.558594,10.996093 24.558594,24.558593 z m 0,0"
       id="path165"
       inkscape:connector-curvature="0" />
    <path
       style="fill:#cfcfcf;fill-opacity:1;fill-rule:nonzero;stroke:none"
       d="m 54.71875,29.121094 c 0,11.398437 -9.238281,20.640625 -20.640625,20.640625 -11.398437,0 -20.636719,-9.242188 -20.636719,-20.640625 0,-11.398438 9.238282,-20.640625 20.636719,-20.640625 11.402344,0 20.640625,9.242187 20.640625,20.640625 z m 0,0"
       id="path167"
       inkscape:connector-curvature="0" />
    <path
       style="fill:#a1a1a1;fill-opacity:1;fill-rule:nonzero;stroke:none"
       d="m 54.71875,25.761719 c 0,9.542969 -7.734375,17.277343 -17.277344,17.277343 -9.542968,0 -17.28125,-7.734374 -17.28125,-17.277343 0,-9.546875 7.738282,-17.28125 17.28125,-17.28125 9.542969,0 17.277344,7.734375 17.277344,17.28125 z m 0,0"
       id="path169"
       inkscape:connector-curvature="0" />
    <path
       style="fill:#828282;fill-opacity:1;fill-rule:nonzero;stroke:none"
       d="m 54.800781,27.839844 c 0,8.394531 -6.804687,15.199218 -15.199219,15.199218 -8.394531,0 -15.203124,-6.804687 -15.203124,-15.199218 0,-8.394532 6.808593,-15.199219 15.203124,-15.199219 8.394532,0 15.199219,6.804687 15.199219,15.199219 z m 0,0"
       id="path171"
       inkscape:connector-curvature="0" />
    <g
       clip-path="url(#clip1)"
       id="g173"
       style="clip-rule:nonzero">
      <path
         style="fill:url(#radial0);fill-rule:nonzero;stroke:none"
         d="m 24.398438,17.121094 0,25.917968 25.921874,0 0,-25.917968 z m 0,0"
         id="path175"
         inkscape:connector-curvature="0" />
    </g>
    <path
       style="fill:#212121;fill-opacity:1;fill-rule:nonzero;stroke:none"
       d="m 50.320312,30.078125 c 0,7.160156 -5.800781,12.960937 -12.960937,12.960937 -7.15625,0 -12.960937,-5.800781 -12.960937,-12.960937 0,-7.15625 5.804687,-12.957031 12.960937,-12.957031 7.160156,0 12.960937,5.800781 12.960937,12.957031 z m 0,0"
       id="path177"
       inkscape:connector-curvature="0" />
    <path
       style="fill:#ffffff;fill-opacity:1;fill-rule:nonzero;stroke:none"
       d="m 44.886719,26.40625 c -0.902344,2.015625 -2.683594,3.179688 -3.972657,2.601562 C 39.625,28.425781 39.3125,26.324219 40.214844,24.308594 c 0.90625,-2.015625 2.683594,-3.179688 3.976562,-2.601563 1.289063,0.578125 1.601563,2.683594 0.695313,4.699219 z m 0,0"
       id="path179"
       inkscape:connector-curvature="0" />
    <path
       style="fill:#303030;fill-opacity:1;fill-rule:nonzero;stroke:none"
       d="m 85.679688,22.800781 c 0,-0.242187 0.160156,-0.402343 0.480468,-0.402343 l 11.601563,0 c 6.636721,0 9.757811,3.042968 9.757811,7.679687 0,3.28125 -1.67969,5.121094 -3.59765,6.082031 l 0,0.07813 c 1.91796,0.640625 4.15625,2.960938 4.15625,6.480469 0,5.761719 -3.91797,8.480469 -10.718755,8.480469 l -11.199219,0 c -0.238281,0 -0.480468,-0.160157 -0.480468,-0.398438 z m 11.921874,11.597657 c 2.718748,0 4.476568,-1.519532 4.476568,-3.757813 0,-2.320313 -1.67969,-3.839844 -4.476568,-3.839844 l -6.242187,0 c -0.160156,0 -0.238281,0.07813 -0.238281,0.238281 l 0,7.121094 c 0,0.160156 0.07813,0.238282 0.238281,0.238282 z m -6.242187,12.402343 6.5625,0 c 3.039065,0 4.718755,-1.601562 4.718755,-4 0,-2.402343 -1.67969,-4 -4.718755,-4 l -6.5625,0 c -0.160156,0 -0.238281,0.07813 -0.238281,0.238281 l 0,7.519532 c 0,0.160156 0.07813,0.242187 0.238281,0.242187 z m 0,0"
       id="path181"
       inkscape:connector-curvature="0" />
    <path
       style="fill:#303030;fill-opacity:1;fill-rule:nonzero;stroke:none"
       d="m 111.83984,51.28125 c -0.23828,0 -0.48046,-0.160156 -0.48046,-0.402344 l 0,-19.679687 c 0,-0.238281 0.16015,-0.398438 0.48046,-0.398438 l 4.23829,0 c 0.24218,0 0.48046,0.160157 0.48046,0.398438 l 0,1.761719 0.082,0 c 1.03906,-1.601563 2.96093,-2.640626 5.75781,-2.640626 1.76172,0 3.52344,0.640626 4.64062,1.679688 0.24219,0.238281 0.24219,0.398438 0.082,0.558594 l -2.40234,2.882812 c -0.16016,0.238282 -0.39844,0.238282 -0.64062,0.07813 -1.03907,-0.558593 -2.07813,-0.960937 -3.27735,-0.960937 -2.8789,0 -4.16015,1.921875 -4.16015,5.203125 l 0,11.117187 c 0,0.242188 -0.16016,0.402344 -0.48047,0.402344 z m 0,0"
       id="path183"
       inkscape:connector-curvature="0" />
    <path
       style="fill:#303030;fill-opacity:1;fill-rule:nonzero;stroke:none"
       d="m 127.92188,46.078125 c -0.48047,-1.4375 -0.72266,-2.796875 -0.72266,-5.039063 0,-2.238281 0.24219,-3.597656 0.72266,-5.039062 1.27734,-3.601562 4.63671,-5.679688 9.11718,-5.679688 4.48047,0 7.83985,2.078126 9.1211,5.679688 0.48046,1.441406 0.71875,2.800781 0.71875,5.039062 0,2.242188 -0.23829,3.601563 -0.71875,5.039063 -1.28125,3.601563 -4.64063,5.683594 -9.1211,5.683594 -4.48047,-0.08203 -7.83984,-2.160157 -9.11718,-5.683594 z m 13.27734,-1.277344 c 0.40234,-1.039062 0.48047,-2 0.48047,-3.761719 0,-1.757812 -0.0781,-2.640624 -0.48047,-3.757812 -0.64063,-1.679688 -2.07813,-2.640625 -4.16016,-2.640625 -2.07812,0 -3.51953,0.960937 -4.16015,2.640625 -0.39844,1.117188 -0.48047,2 -0.48047,3.757812 0,1.761719 0.082,2.722657 0.48047,3.761719 0.64062,1.679688 2.08203,2.640625 4.16015,2.640625 2.08203,0 3.51953,-0.960937 4.16016,-2.640625 z m 0,0"
       id="path185"
       inkscape:connector-curvature="0" />
    <path
       style="fill:#303030;fill-opacity:1;fill-rule:nonzero;stroke:none"
       d="m 169.19922,51.28125 c -0.23828,0 -0.48047,-0.160156 -0.5586,-0.402344 l -4.24218,-13.117187 -0.0781,0 L 160,50.878906 c -0.0781,0.242188 -0.23828,0.402344 -0.55859,0.402344 l -3.76172,0 c -0.23828,0 -0.48047,-0.160156 -0.5586,-0.402344 l -7.04297,-19.679687 c -0.0781,-0.238281 0.082,-0.398438 0.32032,-0.398438 l 4.40234,0 c 0.32031,0 0.48047,0.160157 0.55859,0.398438 l 4.24219,13.519531 0.0781,0 4.24218,-13.519531 c 0.0781,-0.238281 0.31641,-0.398438 0.5586,-0.398438 l 3.28125,0 c 0.23828,0 0.47656,0.160157 0.55859,0.398438 l 4.48047,13.519531 0.0781,0 4.08203,-13.519531 c 0.0781,-0.320313 0.23828,-0.398438 0.55859,-0.398438 l 4.40234,0 c 0.23829,0 0.39844,0.160157 0.31641,0.398438 l -6.95703,19.601562 c -0.082,0.238281 -0.24219,0.398438 -0.5625,0.398438 l -3.51953,0 z m 0,0"
       id="path187"
       inkscape:connector-curvature="0" />
    <path
       style="fill:#303030;fill-opacity:1;fill-rule:nonzero;stroke:none"
       d="m 181.35937,48.480469 c -0.16015,-0.160157 -0.16015,-0.402344 0,-0.558594 L 184,45.359375 c 0.16016,-0.160156 0.48047,-0.160156 0.64062,0 1.59766,1.359375 4.16016,2.320313 6.48047,2.320313 2.71875,0 4.07813,-1.039063 4.07813,-2.398438 0,-1.203125 -0.80078,-2 -3.67969,-2.242188 l -2.39844,-0.238281 c -4.48047,-0.402343 -6.80078,-2.5625 -6.80078,-6 0,-3.921875 3.03906,-6.480469 8.5586,-6.480469 3.4414,0 6.32031,1.039063 8.32031,2.480469 0.24219,0.160157 0.24219,0.398438 0.082,0.558594 l -2.24219,2.480469 c -0.16015,0.238281 -0.39844,0.238281 -0.64062,0.08203 -1.35938,-0.882813 -3.59766,-1.683594 -5.75782,-1.683594 -2.24218,0 -3.35937,0.882813 -3.35937,2.160157 0,1.203124 0.79687,1.921874 3.59766,2.160156 l 2.40234,0.242187 c 4.64062,0.398438 6.87891,2.640625 6.87891,6 0,4.078125 -3.19922,6.960938 -9.28125,6.960938 -4.5586,-0.08203 -7.67969,-1.683594 -9.51954,-3.28125 z m 0,0"
       id="path189"
       inkscape:connector-curvature="0" />
    <path
       style="fill:#303030;fill-opacity:1;fill-rule:nonzero;stroke:none"
       d="m 203.67969,46 c -0.48047,-1.28125 -0.80078,-2.878906 -0.80078,-5.039062 0,-2.160157 0.24218,-3.761719 0.72265,-5.039063 1.27735,-3.601563 4.63672,-5.683594 9.03906,-5.683594 4.5586,0 7.83985,2.160157 9.1211,5.683594 0.47656,1.4375 0.71875,2.878906 0.71875,6.15625 0,0.242187 -0.16016,0.402344 -0.48047,0.402344 l -13.67969,0 c -0.16015,0 -0.24219,0.07813 -0.24219,0.238281 0,0.5625 0.16016,1.121094 0.32032,1.601562 0.72265,2 2.48047,3.121094 4.96093,3.121094 2.48047,0 4.08204,-0.882812 5.19922,-1.921875 0.24219,-0.238281 0.48047,-0.238281 0.72266,-0.07813 L 222,47.679688 c 0.23828,0.160156 0.23828,0.398437 0.0781,0.558593 -1.91796,2 -5.03906,3.523438 -9.11718,3.523438 -4.72266,-0.08203 -8,-2.160157 -9.28125,-5.761719 z m 13.35937,-9.039062 c -0.55859,-1.679688 -2.23828,-2.640626 -4.32031,-2.640626 -2.07813,0 -3.75781,0.960938 -4.39844,2.640626 -0.16015,0.480468 -0.24219,1.039062 -0.24219,1.757812 0,0.160156 0.082,0.242188 0.24219,0.242188 l 8.71875,0 c 0.16016,0 0.24219,-0.08203 0.24219,-0.242188 0.0781,-0.71875 0,-1.277344 -0.24219,-1.757812 z m 0,0"
       id="path191"
       inkscape:connector-curvature="0" />
    <path
       style="fill:#303030;fill-opacity:1;fill-rule:nonzero;stroke:none"
       d="m 226.32031,51.28125 c -0.24219,0 -0.48047,-0.160156 -0.48047,-0.402344 l 0,-19.679687 c 0,-0.238281 0.16016,-0.398438 0.48047,-0.398438 l 4.23828,0 c 0.24219,0 0.48047,0.160157 0.48047,0.398438 l 0,1.761719 0.082,0 c 1.03907,-1.601563 2.95703,-2.640626 5.75782,-2.640626 1.76171,0 3.51953,0.640626 4.64062,1.679688 0.24219,0.238281 0.24219,0.398438 0.082,0.558594 l -2.40234,2.882812 c -0.16016,0.238282 -0.39844,0.238282 -0.64063,0.07813 -1.03906,-0.558593 -2.07812,-0.960937 -3.27734,-0.960937 -2.88281,0 -4.16016,1.921875 -4.16016,5.203125 l 0,11.117187 c 0,0.242188 -0.16015,0.402344 -0.48047,0.402344 z m 0,0"
       id="path193"
       inkscape:connector-curvature="0" />
    <path
       style="fill:#303030;fill-opacity:1;fill-rule:nonzero;stroke:none"
       d="m 242.32031,47.921875 c -0.16015,-0.160156 -0.24219,-0.402344 -0.082,-0.640625 l 2.88281,-3.042969 C 245.28125,44 245.60156,44 245.76172,44.160156 c 2,1.519532 5.03906,3.039063 8.47656,3.039063 3.76172,0 5.92188,-1.757813 5.92188,-4.160157 0,-2.078124 -1.35938,-3.4375 -5.67969,-4 l -1.67969,-0.238281 c -6,-0.800781 -9.44141,-3.441406 -9.44141,-8.242187 0,-5.199219 4.16016,-8.71875 10.5625,-8.71875 3.91797,0 7.59766,1.121094 10.07813,2.878906 0.23828,0.160156 0.23828,0.320312 0.0781,0.5625 l -2.23828,3.117188 c -0.16015,0.242187 -0.39843,0.242187 -0.64062,0.160156 -2.5586,-1.519532 -4.87891,-2.238282 -7.51953,-2.238282 -3.19922,0 -4.87891,1.601563 -4.87891,3.839844 0,2 1.51953,3.359375 5.75781,3.917969 l 1.67969,0.242187 c 6,0.800782 9.36328,3.359376 9.36328,8.398438 0,5.121094 -4,8.960938 -11.76172,8.960938 -4.64062,0 -9.03906,-1.679688 -11.51953,-3.757813 z m 0,0"
       id="path195"
       inkscape:connector-curvature="0" />
    <path
       style="fill:#303030;fill-opacity:1;fill-rule:nonzero;stroke:none"
       d="m 275.12109,51.601562 c -4.48047,0 -6.16015,-2 -6.16015,-6 l 0,-10.800781 c 0,-0.160156 -0.082,-0.242187 -0.24219,-0.242187 l -1.51953,0 c -0.23828,0 -0.48047,-0.160156 -0.48047,-0.398438 l 0,-2.878906 c 0,-0.242188 0.16016,-0.402344 0.48047,-0.402344 l 1.4414,0 c 0.16016,0 0.23829,-0.07813 0.23829,-0.238281 l 0,-5.601563 c 0,-0.238281 0.16015,-0.398437 0.48046,-0.398437 l 4.24219,0 c 0.23828,0 0.47656,0.160156 0.47656,0.398437 l 0,5.601563 c 0,0.160156 0.082,0.238281 0.24219,0.238281 l 2.96094,0 c 0.23828,0 0.48047,0.160156 0.48047,0.402344 l 0,2.878906 c 0,0.238282 -0.16016,0.398438 -0.48047,0.398438 l -2.88281,0 c -0.16016,0 -0.23828,0.08203 -0.23828,0.242187 l 0,10.640625 c 0,1.4375 0.64062,1.917969 2.07812,1.917969 l 1.12109,0 c 0.24219,0 0.48047,0.160156 0.48047,0.402344 l 0,3.4375 c 0,0.242187 -0.16015,0.402343 -0.48047,0.402343 z m 0,0"
       id="path197"
       inkscape:connector-curvature="0" />
    <path
       style="fill:#303030;fill-opacity:1;fill-rule:nonzero;stroke:none"
       d="m 294.55859,51.28125 c -0.23828,0 -0.48047,-0.160156 -0.48047,-0.402344 l 0,-1.519531 -0.0781,0 c -1.03906,1.441406 -3.12109,2.402344 -6.23828,2.402344 -4.08203,0 -7.44141,-1.921875 -7.44141,-6.242188 0,-4.480469 3.35938,-6.480469 8.87891,-6.480469 l 4.48047,0 c 0.16015,0 0.24218,-0.07812 0.24218,-0.238281 l 0,-0.960937 c 0,-2.320313 -1.20312,-3.359375 -4.88281,-3.359375 -2.48047,0 -4,0.640625 -5.03906,1.441406 -0.23828,0.15625 -0.48047,0.15625 -0.64063,-0.08203 l -1.67968,-2.800782 c -0.16016,-0.238281 -0.0781,-0.398437 0.082,-0.558593 1.75781,-1.199219 4.23828,-2 7.83984,-2 6.71875,0 9.19922,2.160156 9.19922,7.121093 l 0,13.359376 c 0,0.238281 -0.16016,0.398437 -0.48047,0.398437 l -3.76172,0 z m -0.48047,-6.882812 0,-1.597657 c 0,-0.160156 -0.0781,-0.242187 -0.23828,-0.242187 l -3.67968,0 c -3.28125,0 -4.80079,0.882812 -4.80079,2.800781 0,1.679687 1.35938,2.5625 3.83985,2.5625 3.12109,-0.08203 4.8789,-1.203125 4.8789,-3.523437 z m 0,0"
       id="path199"
       inkscape:connector-curvature="0" />
    <path
       style="fill:#303030;fill-opacity:1;fill-rule:nonzero;stroke:none"
       d="m 302.96094,46.078125 c -0.48047,-1.277344 -0.72266,-2.878906 -0.72266,-5.039063 0,-2.160156 0.24219,-3.757812 0.72266,-5.039062 1.27734,-3.679688 4.71875,-5.679688 9.11718,-5.679688 3.28125,0 5.92188,1.199219 7.6836,3.199219 0.16015,0.160157 0.16015,0.402344 -0.082,0.558594 l -2.87891,2.320313 c -0.24219,0.160156 -0.48047,0.160156 -0.64062,-0.07813 -1.1211,-1.121093 -2.23829,-1.761718 -4.08204,-1.761718 -2,0 -3.51953,0.882812 -4.15625,2.640625 -0.40234,1.039062 -0.48046,2.242187 -0.48046,3.761719 0,1.519531 0.0781,2.800781 0.48046,3.839843 0.63672,1.757813 2.15625,2.640625 4.15625,2.640625 1.84375,0 2.96094,-0.640625 4.08204,-1.761718 0.16015,-0.238282 0.39843,-0.238282 0.64062,-0.07813 l 2.87891,2.320313 c 0.24218,0.15625 0.16015,0.398437 0.082,0.558594 -1.76172,1.917969 -4.40235,3.121093 -7.6836,3.121093 -4.47656,0.07813 -7.83984,-1.921874 -9.11718,-5.523437 z m 0,0"
       id="path201"
       inkscape:connector-curvature="0" />
    <path
       style="fill:#303030;fill-opacity:1;fill-rule:nonzero;stroke:none"
       d="m 337.67969,51.28125 c -0.32032,0 -0.5586,-0.160156 -0.71875,-0.402344 l -5.60157,-8.558594 -2.96093,3.199219 0,5.359375 c 0,0.242188 -0.16016,0.402344 -0.47657,0.402344 l -4.24218,0 c -0.23828,0 -0.48047,-0.160156 -0.48047,-0.402344 l 0,-28.078125 c 0,-0.242187 0.16015,-0.402343 0.48047,-0.402343 l 4.24218,0 c 0.23829,0 0.47657,0.160156 0.47657,0.402343 l 0,16.640625 L 336,31.199219 c 0.23828,-0.320313 0.48047,-0.398438 0.87891,-0.398438 l 4.72265,0 c 0.23828,0 0.39844,0.238281 0.16016,0.398438 l -7.04297,7.441406 8.08203,12.160156 c 0.16016,0.160157 0.0781,0.398438 -0.24219,0.398438 l -4.8789,0 z m 0,0"
       id="path203"
       inkscape:connector-curvature="0" />
  </g>
</svg>
