<?xml version="1.0" encoding="UTF-8" standalone="no"?>
<svg
   xmlns:dc="http://purl.org/dc/elements/1.1/"
   xmlns:cc="http://creativecommons.org/ns#"
   xmlns:rdf="http://www.w3.org/1999/02/22-rdf-syntax-ns#"
   xmlns:svg="http://www.w3.org/2000/svg"
   xmlns="http://www.w3.org/2000/svg"
   xmlns:sodipodi="http://sodipodi.sourceforge.net/DTD/sodipodi-0.dtd"
   xmlns:inkscape="http://www.inkscape.org/namespaces/inkscape"
   viewBox="0 0 50 50"
   height="50"
   width="50"
   xml:space="preserve"
   id="svg2"
   version="1.1"
   inkscape:version="0.91 r13725"
   sodipodi:docname="cern.svg"><sodipodi:namedview
     pagecolor="#ffffff"
     bordercolor="#666666"
     borderopacity="1"
     objecttolerance="10"
     gridtolerance="10"
     guidetolerance="10"
     inkscape:pageopacity="0"
     inkscape:pageshadow="2"
     inkscape:window-width="1342"
     inkscape:window-height="801"
     id="namedview8"
     showgrid="false"
     inkscape:zoom="1.4944227"
     inkscape:cx="-137.1538"
     inkscape:cy="180.63915"
     inkscape:window-x="209"
     inkscape:window-y="105"
     inkscape:window-maximized="0"
     inkscape:current-layer="svg2"
     fit-margin-top="0"
     fit-margin-left="0"
     fit-margin-right="0"
     fit-margin-bottom="0" /><metadata
     id="metadata8"><rdf:RDF><cc:Work
         rdf:about=""><dc:format>image/svg+xml</dc:format><dc:type
           rdf:resource="http://purl.org/dc/dcmitype/StillImage" /><dc:title /></cc:Work></rdf:RDF></metadata><defs
     id="defs6" /><g
     transform="matrix(0.09275362,0,0,-0.09275362,8.9999998,40.536232)"
     id="g10"
     style="fill:#ffffff"><g
       transform="scale(0.1,0.1)"
       id="g12"
       style="fill:#ffffff"><path
         id="path14"
         style="fill:#ffffff;fill-opacity:1;fill-rule:nonzero;stroke:none"
         d="M 1219.36,3349.96 C 547.012,3349.96 0,2806.71 0,2138.91 c 0,-100.12 12.2852,-199.57 36.6094,-295.83 2.5586,-10.15 6.0664,-19.81 8.8789,-29.88 l -0.6172,-0.08 305.6559,-1086.632 74.844,20.813 -190.547,677.439 c 224.18,-304.99 585.203,-496.83 984.496,-496.83 200.14,0 389.06,48.41 555.89,133.71 L 800.598,0.0507813 l 105.183,0 L 2120.28,1322.97 l -0.38,0.39 c 164.63,179.1 275.53,407.43 308.34,659.8 L 2894.61,0 l 79.83,0 -567.76,2414.4 -0.22,-0.03 c -93.02,395.74 -381.78,717.45 -759.21,858.47 l 1802.75,0 0,77.16 M 2361.05,2138.87 c 0,-625.24 -512.17,-1133.88 -1141.69,-1133.88 -524.438,0 -979.809,352.33 -1107.387,856.8 -22.7269,90.06 -34.2894,183.27 -34.2894,277.03 0,625.2 512.1404,1133.89 1141.6764,1133.89 629.52,0 1141.69,-508.65 1141.69,-1133.89 M 599.656,1788.7 l 0.254,26.66 -77.691,1.67 -0.317,-28.33 c 0,-100.14 12.309,-199.66 36.672,-295.88 27.188,-107.56 68.914,-208.37 121.809,-301.34 42.597,-23.85 86.972,-44.58 132.722,-62.62 -81.375,112.93 -143.503,241.61 -179.21,382.8 -22.723,90.02 -34.286,183.22 -34.286,277.04 M 2758.22,1121.33 c 99.3,148.71 165.92,320.39 190.98,505.03 l 5.28,-0.73 195.83,1390.02 -77.01,10.71 -139.21,-988.31 c -82.07,387.75 -351.1,707.91 -709.22,862.16 32.04,-41.56 61.43,-85.2 88.05,-130.64 340.46,-196.48 570.06,-562.43 570.06,-980.87 0,-203.84 -54.73,-395.11 -149.91,-560.54 l 25.15,-106.83 z M 1741.31,654.809 c -54.5,0 -107.96,4.691 -160.72,12.082 L 1517.86,598.5 c 72.73,-13.371 147.35,-20.84 223.5,-20.84 346.56,0 659.53,144.488 881.76,375.781 l -21.43,91.059 C 2392.27,806.031 2084.32,654.809 1741.36,654.809 m -966.348,1872.671 98.687,-0.77 c 123.762,159.5 441.451,395.91 867.571,395.91 92.69,0 182.71,-11.26 269.03,-32.08 -33.89,35.14 -70.05,68.07 -108.4,98.45 -52.54,6.89 -106.09,10.85 -160.59,10.85 -381.1,0 -733.33,-172.15 -966.259,-472.32 M 1037.68,894.98 C 985.781,902.422 934.871,913.199 885,926.75 1011.27,803.102 1163.59,706.969 1332.64,647.43 l 57.57,62.679 c -128.38,41.051 -247.78,103.52 -352.53,184.77 m 456.42,1084.011 -165.84,188.19 c 80.48,9.36 165.84,51.71 165.84,136.4 0,70.52 -56.83,108.17 -180,108.17 l -203.7,0 0,-493.97 c 14.2,4.67 23.67,4.67 37.92,4.67 9.43,0 23.63,0 33.12,-4.67 l 0,239.93 66.27,0 61.6,-65.86 94.66,-108.17 c 18.97,-23.52 33.16,-42.35 52.12,-65.83 14.15,4.69 28.36,4.69 47.36,4.69 14.16,0 28.35,0 42.59,-4.69 l -14.19,18.76 -37.75,42.38 z m -317.43,207.01 0,197.6 c 33.12,0 123.15,4.64 151.59,0 61.56,-9.42 90,-42.36 90,-89.34 0,-56.45 -42.6,-94.11 -104.16,-103.54 -37.91,-9.36 -123.19,-4.62 -137.38,-4.62 M 631.902,1997.68 c -14.148,-14.06 -80.515,-56.45 -170.554,-56.45 -123.106,0 -213.106,84.66 -213.106,225.85 0,117.57 70.996,225.83 217.871,225.83 85.227,0 142.063,-47.03 156.309,-61.18 l 4.719,0 c 4.714,18.84 9.441,37.67 14.207,56.45 -52.09,18.84 -113.68,32.93 -170.52,32.93 -170.555,0 -303.191,-94.11 -303.191,-254.08 0,-155.25 108.926,-254 284.238,-254 61.516,0 127.859,9.32 175.215,37.62 z m 990.108,414.06 -28.48,0 0,-493.99 c 4.76,4.69 14.2,4.69 23.73,4.69 4.76,0 14.19,0 18.86,-4.69 l 0,390.51 9.49,0 345.78,-343.47 c 18.87,-18.74 33.11,-32.88 42.62,-46.99 l 23.73,0 0,493.98 c -9.52,0 -14.23,-4.69 -23.73,-4.69 -9.47,0 -14.19,4.69 -23.71,4.69 l 0,-371.66 -4.63,0 -383.65,371.62 z M 958.809,1960.06 c -47.356,-4.69 -132.637,-4.69 -179.993,-4.69 l 0,211.71 161.028,0 c 23.679,0 47.351,-4.7 71.036,-4.7 0,4.7 -4.72,14.1 -4.72,18.84 0,4.68 4.72,14.05 4.72,18.83 -23.685,0 -47.357,-4.73 -71.036,-4.73 l -161.028,0 0,183.49 99.477,0 80.516,-4.73 c 23.679,0 47.351,-4.64 71.031,-4.64 0,4.64 -4.76,14.1 -4.76,18.74 0,9.42 4.76,14.11 4.76,23.52 l -322.145,0 0,-489.35 326.865,0 c 0,4.74 -4.72,14.07 -4.72,18.84 0,9.42 4.72,14.11 4.72,23.52 -23.68,-4.69 -52.072,-4.69 -75.751,-4.69"
         inkscape:connector-curvature="0" /></g></g></svg>