<?xml version="1.0" encoding="UTF-8" standalone="no"?>
<svg
   xmlns:dc="http://purl.org/dc/elements/1.1/"
   xmlns:cc="http://creativecommons.org/ns#"
   xmlns:rdf="http://www.w3.org/1999/02/22-rdf-syntax-ns#"
   xmlns:svg="http://www.w3.org/2000/svg"
   xmlns="http://www.w3.org/2000/svg"
   xmlns:sodipodi="http://sodipodi.sourceforge.net/DTD/sodipodi-0.dtd"
   xmlns:inkscape="http://www.inkscape.org/namespaces/inkscape"
   viewBox="0 0 354.32999 354.32874"
   height="354.32874"
   width="354.32999"
   xml:space="preserve"
   version="1.1"
   id="svg2"
   inkscape:version="0.91 r13725"
   sodipodi:docname="desy.svg"><sodipodi:namedview
     pagecolor="#ffffff"
     bordercolor="#666666"
     borderopacity="1"
     objecttolerance="10"
     gridtolerance="10"
     guidetolerance="10"
     inkscape:pageopacity="0"
     inkscape:pageshadow="2"
     inkscape:window-width="1443"
     inkscape:window-height="884"
     id="namedview22"
     showgrid="false"
     fit-margin-top="0"
     fit-margin-left="0"
     fit-margin-right="0"
     fit-margin-bottom="0"
     inkscape:zoom="0.47437186"
     inkscape:cx="177.165"
     inkscape:cy="177.165"
     inkscape:window-x="0"
     inkscape:window-y="0"
     inkscape:window-maximized="0"
     inkscape:current-layer="svg2" /><metadata
     id="metadata8"><rdf:RDF><cc:Work
         rdf:about=""><dc:format>image/svg+xml</dc:format><dc:type
           rdf:resource="http://purl.org/dc/dcmitype/StillImage" /><dc:title></dc:title></cc:Work></rdf:RDF></metadata><defs
     id="defs6"><clipPath
       id="clipPath18"
       clipPathUnits="userSpaceOnUse"><path
         id="path20"
         d="M 0,0 407,0 407,398 0,398 0,0 Z"
         inkscape:connector-curvature="0" /></clipPath></defs><g
     transform="matrix(1.25,0,0,-1.25,-77.21,425.91375)"
     id="g10"><g
       id="g12" /><g
       id="g14"><g
         clip-path="url(#clipPath18)"
         id="g16"><path
           id="path22"
           style="fill:#00adef;fill-opacity:1;fill-rule:nonzero;stroke:none"
           d="m 203.5,62.719 c -75.267,0 -136.281,61.015 -136.281,136.281 0,75.266 61.014,136.281 136.281,136.281 75.266,0 136.281,-61.015 136.281,-136.281 0,-75.266 -61.015,-136.281 -136.281,-136.281 z m 0,278.012 C 125.224,340.731 61.768,277.276 61.768,199 c 0,-78.277 63.456,-141.732 141.732,-141.732 78.276,0 141.732,63.455 141.732,141.732 0,78.276 -63.456,141.731 -141.732,141.731"
           inkscape:connector-curvature="0" /><path
           id="path24"
           style="fill:#00adef;fill-opacity:1;fill-rule:nonzero;stroke:none"
           d="m 147.871,198.332 c 0,-7.754 -2.694,-15.835 -10.71,-15.835 l -9.593,0 0,30.882 9.461,0 c 4.206,0 10.842,-1.117 10.842,-15.047 z m -29.962,23.194 0,-47.177 20.435,0 c 15.572,0 19.58,14.588 19.58,24.706 0,8.936 -3.285,22.471 -19.186,22.471 l -20.829,0"
           inkscape:connector-curvature="0" /><path
           id="path26"
           style="fill:#00adef;fill-opacity:1;fill-rule:nonzero;stroke:none"
           d="m 199.603,213.182 0,8.344 -33.82,0 0,-47.177 34.937,0 0,8.345 -25.278,0 0,12.221 22.997,0 0,8.345 -22.997,0 0,9.922 24.161,0"
           inkscape:connector-curvature="0" /><path
           id="path28"
           style="fill:#00adef;fill-opacity:1;fill-rule:nonzero;stroke:none"
           d="m 225.332,181.248 c -8.608,0 -9.922,4.994 -9.987,7.622 l -9.463,0 c 0,-5.848 2.958,-15.769 20.173,-15.769 4.139,0 18.594,1.248 18.594,15.441 0,8.476 -5.913,11.104 -12.353,12.682 l -11.498,2.825 c -1.972,0.46 -4.994,1.248 -4.994,4.928 0,4.27 4.467,5.651 8.214,5.651 8.607,0 9.396,-4.994 9.659,-7.097 l 9.462,0 c -0.067,5.782 -3.944,15.244 -18.398,15.244 -15.31,0 -18.137,-9.264 -18.137,-14.521 0,-10.382 7.361,-12.09 14.983,-13.864 l 5.059,-1.183 c 4.993,-1.183 8.542,-2.168 8.542,-5.848 0,-4.993 -5.192,-6.111 -9.856,-6.111"
           inkscape:connector-curvature="0" /><path
           id="path30"
           style="fill:#00adef;fill-opacity:1;fill-rule:nonzero;stroke:none"
           d="m 273.424,174.349 0,17.675 15.769,29.502 -11.17,0 -9.329,-20.5 -9.791,20.5 -11.631,0 16.297,-29.371 0,-17.806 9.855,0"
           inkscape:connector-curvature="0" /><path
           id="path32"
           style="fill:#00adef;fill-opacity:1;fill-rule:nonzero;stroke:none"
           d="m 201.096,241.134 0.012,-14.426 5.022,0 0.009,14.428 c 17.073,1.294 30.525,15.546 30.525,32.95 0,17.391 -13.431,31.634 -30.483,32.947 l 0.01,18.054 -5.165,-0.008 0.015,-18.045 c -17.056,-1.311 -30.489,-15.556 -30.489,-32.948 0,-17.411 13.463,-31.667 30.544,-32.952"
           inkscape:connector-curvature="0" /><path
           id="path34"
           style="fill:#00adef;fill-opacity:1;fill-rule:nonzero;stroke:none"
           d="m 110.966,258.624 c 0,-12.278 9.953,-22.232 22.231,-22.232 5.942,0 11.334,2.336 15.323,6.132 l 18.496,-15.791 7.736,-0.003 -23.006,19.643 c 2.325,3.513 3.682,7.723 3.682,12.251 0,12.278 -9.953,22.231 -22.231,22.231 -5.785,0 -11.053,-2.211 -15.008,-5.833 l -8.914,7.611 -3.261,-3.819 8.878,-7.58 c -2.474,-3.583 -3.926,-7.926 -3.926,-12.61"
           inkscape:connector-curvature="0" /><path
           id="path36"
           style="fill:#00adef;fill-opacity:1;fill-rule:nonzero;stroke:none"
           d="m 233.789,226.69 8.059,0.016 24.657,19.821 c 1.773,-1.369 3.99,-2.192 6.404,-2.192 5.798,0 10.498,4.7 10.498,10.498 0,1.602 -0.369,3.112 -1.01,4.471 l 20.804,16.723 -3.146,3.914 -20.828,-16.737 c -1.759,1.329 -3.943,2.127 -6.318,2.127 -5.798,0 -10.498,-4.7 -10.498,-10.498 0,-1.562 0.351,-3.038 0.962,-4.369 L 233.789,226.69"
           inkscape:connector-curvature="0" /><path
           id="path38"
           style="fill:#00adef;fill-opacity:1;fill-rule:nonzero;stroke:none"
           d="m 206.192,155.175 0,14.475 -5.213,-0.037 0,-14.426 c -17.077,-1.29 -30.535,-15.544 -30.535,-32.952 0,-17.407 13.458,-31.662 30.535,-32.952 l 0,-17.919 5.213,0.025 0,17.907 c 16.997,1.371 30.366,15.59 30.366,32.939 0,17.351 -13.369,31.569 -30.366,32.94"
           inkscape:connector-curvature="0" /><path
           id="path40"
           style="fill:#00adef;fill-opacity:1;fill-rule:nonzero;stroke:none"
           d="m 296.144,137.697 c 0,12.28 -9.954,22.233 -22.232,22.233 -5.941,0 -11.335,-2.336 -15.323,-6.133 l -18.496,15.791 -7.736,0.002 23.005,-19.641 c -2.325,-3.513 -3.682,-7.722 -3.682,-12.252 0,-12.278 9.954,-22.23 22.232,-22.23 5.785,0 11.053,2.211 15.008,5.832 l 8.914,-7.61 3.261,3.818 -8.877,7.579 c 2.473,3.584 3.926,7.927 3.926,12.611"
           inkscape:connector-curvature="0" /><path
           id="path42"
           style="fill:#00adef;fill-opacity:1;fill-rule:nonzero;stroke:none"
           d="m 173.32,169.632 -8.058,-0.016 -24.658,-19.822 c -1.774,1.369 -3.99,2.191 -6.404,2.191 -5.798,0 -10.498,-4.699 -10.498,-10.497 0,-1.601 0.369,-3.112 1.009,-4.469 l -20.803,-16.724 3.146,-3.915 20.829,16.738 c 1.759,-1.33 3.942,-2.128 6.317,-2.128 5.798,0 10.498,4.699 10.498,10.498 0,1.562 -0.35,3.038 -0.962,4.37 l 29.584,23.774"
           inkscape:connector-curvature="0" /></g></g></g></svg>