<?xml version="1.0" encoding="UTF-8" standalone="no"?>
<!-- Created with Inkscape (http://www.inkscape.org/) -->

<svg
   xmlns:dc="http://purl.org/dc/elements/1.1/"
   xmlns:cc="http://creativecommons.org/ns#"
   xmlns:rdf="http://www.w3.org/1999/02/22-rdf-syntax-ns#"
   xmlns:svg="http://www.w3.org/2000/svg"
   xmlns="http://www.w3.org/2000/svg"
   xmlns:sodipodi="http://sodipodi.sourceforge.net/DTD/sodipodi-0.dtd"
   xmlns:inkscape="http://www.inkscape.org/namespaces/inkscape"
   width="64mm"
   height="64mm"
   viewBox="0 0 226.77166 226.77165"
   id="svg2"
   version="1.1"
   inkscape:version="0.91 r13725"
   sodipodi:docname="stfc.svg">
  <defs
     id="defs4" />
  <sodipodi:namedview
     id="base"
     pagecolor="#ffffff"
     bordercolor="#666666"
     borderopacity="1.0"
     inkscape:pageopacity="0.0"
     inkscape:pageshadow="2"
     inkscape:zoom="0.98994949"
     inkscape:cx="-308.28832"
     inkscape:cy="178.12561"
     inkscape:document-units="px"
     inkscape:current-layer="layer1"
     showgrid="false"
     fit-margin-top="0"
     fit-margin-left="0"
     fit-margin-right="0"
     fit-margin-bottom="0"
     inkscape:window-width="1916"
     inkscape:window-height="1036"
     inkscape:window-x="4"
     inkscape:window-y="0"
     inkscape:window-maximized="1" />
  <metadata
     id="metadata7">
    <rdf:RDF>
      <cc:Work
         rdf:about="">
        <dc:format>image/svg+xml</dc:format>
        <dc:type
           rdf:resource="http://purl.org/dc/dcmitype/StillImage" />
        <dc:title />
      </cc:Work>
    </rdf:RDF>
  </metadata>
  <g
     inkscape:label="Layer 1"
     inkscape:groupmode="layer"
     id="layer1"
     transform="translate(-119.10665,-338.29279)">
    <path
       style="fill:#ffffff"
       d="m 217.60871,560.50365 c -16.35156,-2.58688 -37.36431,-11.50615 -49.8749,-21.17039 -5.97412,-4.61491 -22.5439,-21.62227 -22.5439,-23.13925 0,-0.94326 16.0053,-5.21932 28.87285,-7.71379 46.12723,-8.94212 94.78703,-6.93574 141.76101,5.84523 1.95246,0.53123 3.54994,1.3608 3.54994,1.84347 0,1.78555 -16.80178,18.84209 -23.74467,24.10471 -11.73099,8.89194 -26.35801,15.50795 -41.83431,18.92223 -8.25712,1.82163 -28.34828,2.54775 -36.18602,1.30779 z m -80.80864,-58.54708 c -8.32668,-16.922 -11.77102,-31.28258 -11.85448,-49.42522 -0.0304,-6.63022 0.51713,-15.30976 1.21695,-19.2879 8.07409,-45.89692 43.08041,-81.55936 88.13289,-89.78479 10.01203,-1.82792 28.95711,-1.56869 38.8127,0.53111 22.38174,4.76858 41.28973,15.43536 56.93775,32.12096 8.72922,9.30802 13.82104,16.82144 19.29447,28.47072 14.27912,30.3907 14.26652,64.38037 -0.0351,94.72304 -5.29109,11.22569 -3.80868,10.75573 -17.9781,5.69943 -21.90901,-7.81814 -39.57776,-11.3593 -64.16285,-12.85949 -33.16926,-2.024 -69.1675,3.18659 -96.61132,13.98405 -4.61616,1.81619 -8.77149,3.30215 -9.2341,3.30215 -0.46259,0 -2.49604,-3.36334 -4.51879,-7.47406 z m 55.24906,-16.65212 c 33.21157,-5.98044 64.67687,-4.77539 98.13975,3.75854 5.55565,1.41686 9.88913,2.22651 9.62992,1.79926 -0.7693,-1.26809 -19.09056,-10.36953 -27.77494,-13.79772 -4.42708,-1.74763 -7.41025,-3.38568 -6.62927,-3.64015 0.78098,-0.25445 11.8568,-1.42214 24.61294,-2.59489 33.75281,-3.10306 34.23549,-3.59265 3.7866,-3.84067 -14.83876,-0.12087 -28.17098,-0.4939 -29.62717,-0.82894 -2.37215,-0.54583 -0.61824,-1.79905 16.85793,-12.04566 10.72805,-6.29007 19.36737,-11.57725 19.19847,-11.74931 -0.1689,-0.17206 -9.87073,2.67427 -21.5596,6.32521 -11.68889,3.65092 -21.36786,6.52056 -21.50881,6.37695 -0.14096,-0.14361 4.90411,-5.87212 11.21127,-12.73004 6.30716,-6.85793 17.0581,-18.54343 23.89097,-25.96781 6.83289,-7.42436 11.57144,-12.85429 10.53012,-12.06648 -1.04132,0.78781 -12.54312,10.57463 -25.55958,21.7485 -13.01646,11.17387 -24.18362,20.63416 -24.81593,21.02287 -1.38381,0.85066 -1.20499,0.40163 9.12307,-22.90808 4.20975,-9.50113 7.51167,-17.41988 7.33758,-17.59721 -0.17407,-0.17735 -5.57992,7.69646 -12.01299,17.49734 -6.43307,9.80087 -11.86713,17.64592 -12.07569,17.43344 -0.20859,-0.21246 2.24244,-16.71554 5.4467,-36.67346 3.20425,-19.95794 5.67805,-36.73913 5.4973,-37.29152 -0.18076,-0.5524 -4.13319,15.08654 -8.78318,34.75322 -4.64999,19.66666 -8.73138,35.43658 -9.06974,35.04429 -0.33834,-0.39231 -1.61919,-13.72413 -2.84631,-29.62624 -1.5054,-19.50811 -2.45444,-27.82115 -2.91763,-25.55646 -0.37756,1.84607 -1.60217,15.29088 -2.72134,29.87734 -1.11917,14.58648 -2.16068,26.65271 -2.31444,26.81387 -0.15379,0.16115 -3.77647,-14.37709 -8.05042,-32.30722 -9.11087,-38.22204 -10.22826,-42.65394 -10.34318,-41.02371 -0.0863,1.2237 10.82418,70.91915 11.81109,75.4489 0.28891,1.32604 -5.25168,-6.23948 -12.31246,-16.81226 -7.06076,-10.5728 -12.83775,-19.00899 -12.83775,-18.74708 0,0.2619 4.25504,10.17677 9.45564,22.03306 6.72445,15.33031 8.84357,21.00137 7.33654,19.63372 -1.16548,-1.05774 -6.37902,-5.59125 -11.5856,-10.07448 -31.19677,-26.86254 -39.50501,-33.75517 -37.39272,-31.02139 1.30164,1.68462 12.09143,13.50101 23.97732,26.25864 11.88587,12.75765 21.39869,23.19571 21.13959,23.19571 -0.25911,0 -10.17416,-3.02486 -22.03344,-6.72191 -11.85929,-3.69707 -21.70452,-6.57708 -21.87831,-6.40005 -0.17377,0.17703 8.661,5.529 19.63281,11.89323 23.84338,13.83047 24.97876,12.72683 -13.26475,12.89414 -29.79426,0.13034 -29.15997,0.75825 3.7866,3.74858 29.37587,2.66624 28.68035,2.45452 19.40634,5.90727 -8.03651,2.99204 -25.22982,11.30665 -28.39953,13.7339 -1.38324,1.05925 0.5295,0.81 7.09989,-0.92515 4.94624,-1.30625 13.6791,-3.21878 19.40634,-4.25009 z m 64.54561,-121.67822 c -0.30218,-0.76933 -0.5265,-0.54082 -0.57192,0.58265 -0.041,1.01664 0.18262,1.58623 0.4972,1.26578 0.31457,-0.32048 0.34819,-1.15226 0.0747,-1.84843 z"
       id="path3360"
       inkscape:connector-curvature="0" />
  </g>
</svg>
