<?xml version="1.0" encoding="utf-8"?>
<!-- Generator: Adobe Illustrator 21.1.0, SVG Export Plug-In . SVG Version: 6.00 Build 0)  -->
<!DOCTYPE svg PUBLIC "-//W3C//DTD SVG 1.1//EN" "http://www.w3.org/Graphics/SVG/1.1/DTD/svg11.dtd">
<svg version="1.1" id="Warstwa_1" xmlns="http://www.w3.org/2000/svg" xmlns:xlink="http://www.w3.org/1999/xlink" x="0px" y="0px"
	 width="175.7px" height="88.5px" viewBox="0 0 175.7 88.5" style="enable-background:new 0 0 175.7 88.5;" xml:space="preserve">
<style type="text/css">
	.st0{enable-background:new    ;}
	.st1{fill:#F53B3B;}
	.st2{fill:#556080;}
	.st3{fill:none;stroke:#F53B3B;stroke-width:3;stroke-miterlimit:10;}
	.st4{fill:#303E51;}
	.st5{fill:#7383BF;}
</style>
<g class="st0">
	<path class="st1" d="M12.2,75.2c0.4-0.1,0.9-0.1,1.6-0.1c0.8,0,1.3,0.2,1.7,0.5c0.3,0.3,0.6,0.7,0.6,1.3c0,0.5-0.2,1-0.5,1.3
		c-0.4,0.4-1.1,0.6-1.8,0.6c-0.2,0-0.4,0-0.5,0v2.1h-1V75.2z M13.2,77.8c0.1,0,0.3,0,0.5,0c0.8,0,1.3-0.4,1.3-1c0-0.6-0.4-1-1.2-1
		c-0.3,0-0.5,0-0.6,0.1V77.8z"/>
	<path class="st1" d="M16.9,75.2c0.4-0.1,1-0.1,1.6-0.1c0.8,0,1.4,0.1,1.8,0.5c0.3,0.3,0.5,0.7,0.5,1.1c0,0.7-0.5,1.2-1,1.4v0
		c0.4,0.2,0.7,0.5,0.8,1.1c0.2,0.7,0.3,1.4,0.4,1.6h-1.1c-0.1-0.2-0.2-0.6-0.4-1.3c-0.2-0.7-0.4-1-1-1H18v2.3h-1V75.2z M18,77.7h0.6
		c0.7,0,1.1-0.4,1.1-0.9c0-0.6-0.4-0.9-1.1-0.9c-0.3,0-0.5,0-0.6,0.1V77.7z"/>
	<path class="st1" d="M26.8,77.9c0,1.9-1.2,3-2.7,3c-1.6,0-2.6-1.2-2.6-2.9c0-1.8,1.1-3,2.7-3C25.8,75,26.8,76.3,26.8,77.9z
		 M22.5,78c0,1.2,0.6,2.1,1.6,2.1c1,0,1.6-0.9,1.6-2.1c0-1.1-0.5-2.1-1.6-2.1C23.1,75.8,22.5,76.8,22.5,78z"/>
	<path class="st1" d="M29,80.8l-1.8-5.7h1.1l0.8,2.6c0.2,0.7,0.4,1.4,0.6,2.1h0c0.2-0.7,0.4-1.4,0.6-2.1l0.8-2.6h1.1l-2,5.7H29z"/>
	<path class="st1" d="M33.8,75.1v5.7h-1v-5.7H33.8z"/>
	<path class="st1" d="M35,75.2c0.5-0.1,1-0.1,1.7-0.1c1.1,0,1.8,0.2,2.3,0.7c0.5,0.4,0.9,1.1,0.9,2.1c0,1-0.3,1.8-0.9,2.3
		c-0.6,0.5-1.5,0.8-2.6,0.8c-0.6,0-1.1,0-1.4-0.1V75.2z M36,80c0.1,0,0.4,0,0.6,0c1.4,0,2.2-0.7,2.2-2.2c0-1.3-0.7-2-2-2
		c-0.3,0-0.6,0-0.7,0.1V80z"/>
	<path class="st1" d="M43.9,78.3h-2.1v1.7h2.4v0.9h-3.4v-5.7h3.3v0.9h-2.3v1.5h2.1V78.3z"/>
	<path class="st1" d="M45.1,75.2c0.4-0.1,1-0.1,1.6-0.1c0.8,0,1.4,0.1,1.8,0.5c0.3,0.3,0.5,0.7,0.5,1.1c0,0.7-0.5,1.2-1,1.4v0
		c0.4,0.2,0.7,0.5,0.8,1.1c0.2,0.7,0.3,1.4,0.4,1.6h-1.1c-0.1-0.2-0.2-0.6-0.4-1.3c-0.2-0.7-0.4-1-1-1h-0.5v2.3h-1V75.2z M46.1,77.7
		h0.6c0.7,0,1.1-0.4,1.1-0.9c0-0.6-0.4-0.9-1.1-0.9c-0.3,0-0.5,0-0.6,0.1V77.7z"/>
</g>
<g class="st0">
	<path class="st1" d="M126.6,79.7c0.3,0.2,0.8,0.4,1.4,0.4c0.7,0,1-0.3,1-0.8c0-0.4-0.3-0.7-1-0.9c-0.9-0.3-1.5-0.8-1.5-1.7
		c0-0.9,0.8-1.6,2-1.6c0.6,0,1.1,0.1,1.4,0.3l-0.3,0.8c-0.2-0.1-0.6-0.3-1.1-0.3c-0.7,0-0.9,0.4-0.9,0.7c0,0.4,0.3,0.6,1.1,0.9
		c1,0.4,1.5,0.9,1.5,1.7c0,0.9-0.7,1.7-2.2,1.7c-0.6,0-1.2-0.2-1.5-0.4L126.6,79.7z"/>
	<path class="st1" d="M131,75.2c0.4-0.1,0.9-0.1,1.6-0.1c0.8,0,1.3,0.2,1.7,0.5c0.3,0.3,0.6,0.7,0.6,1.3c0,0.5-0.2,1-0.5,1.3
		c-0.4,0.4-1.1,0.6-1.8,0.6c-0.2,0-0.4,0-0.5,0v2.1h-1V75.2z M132,77.8c0.1,0,0.3,0,0.5,0c0.8,0,1.3-0.4,1.3-1c0-0.6-0.4-1-1.2-1
		c-0.3,0-0.5,0-0.6,0.1V77.8z"/>
	<path class="st1" d="M136.3,79.2l-0.5,1.6h-1.1l1.8-5.7h1.3l1.9,5.7h-1.1l-0.5-1.6H136.3z M137.9,78.4l-0.4-1.4
		c-0.1-0.3-0.2-0.7-0.3-1.1h0c-0.1,0.3-0.2,0.7-0.3,1.1l-0.4,1.4H137.9z"/>
	<path class="st1" d="M144.4,80.6c-0.2,0.1-0.8,0.3-1.5,0.3c-1.8,0-2.9-1.1-2.9-2.9c0-1.9,1.3-3,3-3c0.7,0,1.2,0.1,1.4,0.3l-0.2,0.8
		c-0.3-0.1-0.6-0.2-1.1-0.2c-1.2,0-2,0.7-2,2.1c0,1.3,0.7,2.1,2,2.1c0.4,0,0.9-0.1,1.1-0.2L144.4,80.6z"/>
	<path class="st1" d="M148.5,78.3h-2.1v1.7h2.4v0.9h-3.4v-5.7h3.3v0.9h-2.3v1.5h2.1V78.3z"/>
</g>
<path class="st2" d="M157.6,26.9c0-0.2,0-0.3,0-0.5c0-9-7.3-16.3-16.3-16.3c-6.5,0-12.1,3.8-14.7,9.3c-1.2-0.5-2.4-0.9-3.8-0.9
	c-4.2,0-7.6,3-8.3,7c-4.9,1.7-8.5,6.4-8.5,11.9c0,6.9,5.7,12.6,12.6,12.6h39l0,0c6.3,0,11.5-5.2,11.5-11.6
	C169.2,32,164,26.9,157.6,26.9z"/>
<g>
	<g>
		<line class="st3" x1="66.7" y1="22.8" x2="95.3" y2="22.8"/>
		<g>
			<polygon class="st1" points="94.3,26.1 100,22.8 94.3,19.5 			"/>
		</g>
	</g>
</g>
<g>
	<g>
		<g>
			<path class="st4" d="M22.1,36.5H7.5c-1.5,0-1.5,0-1.5,0.7v8.4c0,1.8,1.3,3.3,3.1,3.3h13V36.5z M13.3,44.7c-1.8,0-3.2-1.4-3.2-3.2
				s1.4-3.2,3.2-3.2s3.2,1.4,3.2,3.2C16.6,43.2,15.1,44.7,13.3,44.7z"/>
			<path class="st5" d="M8.1,20.5H47c1,0,1.1-1.3,1.1-2v-8.4c0-1.8-0.9-3.2-2.7-3.2H9.1C7.3,6.8,6,8.3,6,10.1v8.4
				C6,19.2,6.3,20.5,8.1,20.5z M13.3,11.1c1.8,0,3.2,1.4,3.2,3.2s-1.4,3.2-3.2,3.2s-3.2-1.4-3.2-3.2S11.6,11.1,13.3,11.1z"/>
			<path class="st2" d="M7.4,34.7h14.7v-5.8c0-2.7,3.8-5.3,8.3-6.5H7.2c-1.5,0-1.2,1.3-1.2,2v8.4C6,33.4,5.8,34.7,7.4,34.7z
				 M13.3,25.3c1.8,0,3.2,1.4,3.2,3.2c0,1.8-1.4,3.2-3.2,3.2s-3.2-1.4-3.2-3.2C10.1,26.7,11.6,25.3,13.3,25.3z"/>
		</g>
	</g>
	<g>
		<g>
			<path class="st1" d="M40.5,35.8c8.5,0,14.4-3.3,14.4-6.2s-5.9-6.2-14.4-6.2s-14.4,3.3-14.4,6.2S32,35.8,40.5,35.8"/>
		</g>
		<g>
			<path class="st1" d="M26.1,46.4v2.4v1.4c0,2.9,5.9,6.2,14.4,6.2s14.4-3.3,14.4-6.2v-1.4v-2.4c-2.4,2.6-7.9,4.4-14.4,4.4
				C34.1,50.8,28.6,49,26.1,46.4"/>
		</g>
		<g>
			<path class="st1" d="M26.1,39.5V41v2.3c0,2.9,5.9,6.2,14.4,6.2s14.4-3.3,14.4-6.2v-3.8C52.5,42.2,47,44,40.5,44
				C34.1,44,28.6,42.1,26.1,39.5"/>
		</g>
		<g>
			<path class="st1" d="M26.1,32.7v3.8c0,2.9,5.9,6.2,14.4,6.2s14.4-3.3,14.4-6.2v-3.8c-2.4,2.6-7.9,4.4-14.4,4.4
				C34.1,37.1,28.6,35.3,26.1,32.7"/>
		</g>
	</g>
</g>
</svg>
